<svg width="291" height="277" viewBox="0 0 291 277" fill="none" xmlns="http://www.w3.org/2000/svg">
<g clip-path="url(#clip0_31_25)">
<path d="M0.585138 227.647C3.12545 226.338 4.20389 222.866 6.95989 221.96C9.78779 221.029 12.9272 222.866 15.5155 220.853C16.6418 219.972 17.4806 218.513 18.8466 217.985C20.0449 217.532 21.2911 218.035 22.4414 218.412C23.424 218.739 24.4066 219.041 25.3892 219.369C29.3434 220.652 33.2737 221.91 37.228 223.193C41.7095 224.627 46.167 226.087 50.6485 227.521C51.0799 227.672 51.2716 226.942 50.8402 226.791C42.6441 224.149 34.472 221.507 26.2759 218.865C24.3586 218.261 22.3695 217.33 20.3804 217.079C18.9904 216.903 17.888 217.481 16.9055 218.438C15.5394 219.771 14.5089 221.004 12.5198 221.105C10.8662 221.205 9.23658 220.752 7.58298 221.029C4.17992 221.583 3.12545 225.483 0.249623 226.967C-0.181751 227.219 0.177729 227.873 0.585138 227.647Z" fill="#E8E8E8"/>
<path d="M43.6506 224.476C45.3522 224.929 46.6942 223.143 48.228 222.614C50.289 221.885 52.4938 222.187 54.3631 223.319C54.7705 223.57 55.13 222.916 54.7226 222.665C53.1409 221.683 51.3435 221.281 49.5221 221.532C48.7313 221.633 47.9884 221.859 47.2694 222.187C46.2389 222.665 45.0406 224.049 43.8424 223.747C43.387 223.621 43.1953 224.35 43.6506 224.476Z" fill="#E8E8E8"/>
<path d="M62.1279 222.589C60.5222 221.205 58.9884 219.721 57.5505 218.135C56.8795 217.406 56.2324 216.626 55.6093 215.846C55.2498 215.393 54.8903 214.94 54.5548 214.487C54.3152 214.16 54.0755 213.833 53.8598 213.506C53.4764 213.103 53.4764 212.6 53.8838 212.046C54.1714 212.172 54.6267 211.87 54.3871 211.518C52.9252 209.455 51.8468 207.19 51.1518 204.724C51.008 204.875 50.8642 205.026 50.7204 205.177C51.5112 205.404 52.0864 205.831 52.5178 206.536C52.7574 206.938 53.3805 206.586 53.1409 206.158C49.5701 199.667 46.6463 192.823 44.4415 185.702C44.2498 185.828 44.0341 185.954 43.8424 186.079C53.8838 196.446 58.4372 210.864 66.8969 222.463C67.1845 222.841 67.8076 222.463 67.52 222.086C59.0363 210.436 54.435 195.968 44.3456 185.551C44.106 185.299 43.6267 185.551 43.7465 185.928C45.9753 193.125 48.899 200.019 52.5178 206.561C52.7335 206.435 52.9252 206.309 53.1409 206.184C52.5897 205.303 51.8707 204.724 50.9121 204.473C50.6485 204.397 50.3849 204.649 50.4807 204.926C51.1997 207.442 52.3021 209.782 53.7879 211.895C53.9557 211.719 54.1235 211.543 54.2912 211.367C53.6202 211.04 52.8773 211.367 52.7095 212.197C52.4938 213.38 53.8598 214.688 54.4829 215.519C56.6158 218.312 59.0363 220.853 61.6725 223.117C61.9841 223.419 62.4873 222.891 62.1279 222.589Z" fill="#E8E8E8"/>
<path d="M59.6115 206.863C55.2019 199.944 51.6311 192.521 48.9949 184.67C48.923 184.821 48.8271 184.972 48.7552 185.123C49.5701 184.922 50.265 185.249 50.7204 186.004C50.96 186.432 51.5352 186.054 51.3435 185.626C47.6289 177.197 43.8424 168.416 44.106 158.93C43.8903 159.005 43.6506 159.056 43.435 159.131C49.8337 172.97 55.9208 186.985 61.6725 201.126C61.8403 201.529 62.4634 201.227 62.3196 200.824C61.361 197.805 60.4263 194.76 59.4677 191.741C59.0124 190.256 58.5331 188.797 58.0777 187.312C57.7662 186.331 57.0951 184.192 58.4372 183.664C58.2934 183.614 58.1736 183.538 58.0298 183.488C59.7553 187.036 61.4568 190.583 63.1823 194.131C63.398 194.559 64.0211 194.181 63.8054 193.754C61.9361 189.904 61.0734 185.652 61.2411 181.324C61.0015 181.349 60.7618 181.399 60.5461 181.424C65.5309 194.433 71.3065 207.115 77.8011 219.368C78.0168 219.796 78.6399 219.419 78.4242 218.991C71.9536 206.788 66.2019 194.181 61.2411 181.223C61.0973 180.846 60.5461 180.871 60.5461 181.324C60.3784 185.777 61.2891 190.13 63.2063 194.131C63.422 194.005 63.6137 193.88 63.8294 193.754C62.1039 190.206 60.4023 186.658 58.6768 183.11C58.605 182.984 58.4132 182.884 58.2694 182.934C55.8729 183.865 57.4067 187.463 57.9339 189.149C59.1801 193.1 60.4023 197.075 61.6485 201.025C61.8642 200.925 62.0799 200.824 62.2956 200.724C56.5439 186.583 50.4568 172.567 44.0581 158.729C43.8903 158.376 43.387 158.578 43.387 158.93C43.0994 168.542 46.9578 177.474 50.7204 186.004C50.9361 185.878 51.1278 185.752 51.3435 185.626C50.7204 184.595 49.7138 184.142 48.5635 184.394C48.3718 184.444 48.252 184.67 48.3239 184.846C50.984 192.747 54.5788 200.245 59.0124 207.215C59.252 207.643 59.8751 207.266 59.6115 206.863Z" fill="#E8E8E8"/>
<path d="M12.2562 255.501C20.5482 251.299 29.2955 247.021 38.7617 248.028C43.2432 248.506 47.5809 249.865 52.0385 250.468C54.2912 250.77 56.5679 250.896 58.8206 250.619C60.9296 250.343 62.9187 249.538 64.9797 249.059C67.6398 248.43 70.0603 249.085 72.6246 249.839C74.7336 250.443 76.8185 250.947 78.9994 250.418C79.4547 250.318 79.263 249.588 78.8076 249.688C74.446 250.77 70.3479 247.474 65.9383 248.128C63.7575 248.456 61.7204 249.361 59.5636 249.764C57.2869 250.167 54.9622 250.116 52.6616 249.814C48.1321 249.261 43.7225 247.852 39.1692 247.323C34.6877 246.795 30.2541 247.399 25.9643 248.707C21.0754 250.217 16.4501 252.532 11.8967 254.847C11.4653 255.048 11.8488 255.702 12.2562 255.501Z" fill="#E8E8E8"/>
<path d="M60.9056 276.36C63.7096 275.102 66.4656 273.718 69.1257 272.158C70.5157 271.327 71.8817 270.472 73.2477 269.566C74.47 268.736 75.6922 267.553 77.0342 266.949C78.544 266.295 80.8207 267.528 82.3306 268.006C83.9362 268.535 85.5419 269.038 87.1236 269.566C90.4068 270.623 93.6901 271.68 96.9493 272.737C97.3807 272.888 97.5724 272.158 97.1411 272.007C93.6421 270.875 90.1192 269.742 86.6203 268.61C84.9428 268.056 83.2652 267.528 81.5876 266.975C80.2935 266.547 78.6639 265.666 77.2979 266.018C76.0277 266.345 74.8774 267.503 73.7989 268.258C72.4089 269.214 70.971 270.145 69.5331 271.026C66.6333 272.762 63.6377 274.322 60.5462 275.68C60.1148 275.882 60.4982 276.536 60.9056 276.36Z" fill="#E8E8E8"/>
<path d="M90.7184 277.14C92.5397 276.184 94.3611 275.203 96.1825 274.246C97.86 273.341 99.6574 272.133 101.575 271.957C103.516 271.755 105.026 273.089 106.703 273.869C108.117 274.523 109.651 274.901 111.185 275.001C114.779 275.203 118.135 273.315 121.705 273.517C124.557 273.693 127.433 276.159 130.237 274.599C130.644 274.372 130.285 273.718 129.878 273.945C128.128 274.926 126.235 273.97 124.509 273.391C123.024 272.888 121.586 272.661 120.028 272.837C116.337 273.24 112.958 274.876 109.172 273.945C106.032 273.19 103.636 270.447 100.257 271.479C98.6988 271.957 97.2369 272.863 95.799 273.617C93.9777 274.574 92.1563 275.555 90.3349 276.511C89.9515 276.712 90.311 277.367 90.7184 277.14Z" fill="#E8E8E8"/>
<path d="M104.714 271.68C103.228 270.321 101.886 268.811 100.784 267.075C100.28 266.295 99.8252 265.465 99.3938 264.635C99.1781 264.207 98.9864 263.779 98.8186 263.351C98.6748 262.999 98.531 262.672 98.4112 262.32C98.1955 261.942 98.2914 261.59 98.6988 261.263C98.9145 261.162 99.1302 261.062 99.3458 260.961C96.7097 256.885 95.0561 252.255 94.5049 247.374C94.2892 247.474 94.0975 247.55 93.8818 247.65C94.3131 248.229 94.7445 248.808 95.1999 249.412C95.4635 249.764 95.9667 249.311 95.775 248.959C91.6051 241.133 89.3763 232.327 89.3284 223.369C89.1127 223.47 88.921 223.545 88.7053 223.646C90.3349 225.03 91.5811 226.741 92.348 228.779C92.5637 228.678 92.7794 228.578 92.9951 228.477C91.1258 224.325 90.7423 219.645 91.8447 215.217C91.6051 215.217 91.3894 215.217 91.1497 215.217C96.0626 229.987 100.952 244.732 105.864 259.502C106.008 259.954 106.703 259.753 106.559 259.3C104.091 251.727 102.869 243.775 102.941 235.749C102.725 235.849 102.533 235.925 102.318 236.026C103.779 237.409 104.69 239.146 105.026 241.184C105.098 241.611 105.745 241.511 105.721 241.083C105.649 239.548 105.553 237.988 105.481 236.453C105.289 236.554 105.121 236.68 104.93 236.78C106.2 237.636 106.44 239.9 106.847 241.31C107.278 242.819 107.71 244.329 108.165 245.864C109.052 248.984 109.962 252.079 110.849 255.199C112.647 261.414 114.444 267.654 116.241 273.869C116.385 274.322 117.08 274.146 116.936 273.668C114.995 266.975 113.078 260.256 111.137 253.563C110.202 250.292 109.243 247.021 108.309 243.75C107.83 242.064 107.35 240.404 106.871 238.718C106.559 237.686 106.2 236.755 105.313 236.151C105.097 236 104.762 236.202 104.762 236.479C104.834 238.013 104.93 239.573 105.002 241.108C105.241 241.083 105.481 241.033 105.697 241.008C105.361 238.844 104.355 236.957 102.797 235.497C102.557 235.271 102.198 235.422 102.174 235.774C102.102 243.851 103.324 251.878 105.816 259.527C106.056 259.451 106.272 259.401 106.511 259.325C101.599 244.555 96.7097 229.811 91.7968 215.041C91.677 214.714 91.1977 214.663 91.1018 215.041C89.9515 219.696 90.3828 224.552 92.324 228.88C92.4918 229.257 93.1388 228.98 92.9711 228.578C92.1563 226.414 90.8861 224.577 89.1366 223.118C88.897 222.916 88.5135 223.042 88.5135 223.394C88.5615 232.478 90.8142 241.435 95.0561 249.361C95.2478 249.21 95.4395 249.059 95.6312 248.908C95.1999 248.33 94.7685 247.751 94.3131 247.147C94.1214 246.895 93.6661 247.097 93.69 247.424C94.2412 252.456 95.9188 257.212 98.6269 261.389C98.8665 261.741 99.3458 261.514 99.274 261.087C99.1541 260.382 98.3633 260.131 97.8121 260.558C96.8055 261.313 97.7881 263.1 98.1476 263.955C99.5136 267.151 101.551 269.944 104.067 272.233C104.57 272.51 105.074 271.982 104.714 271.68Z" fill="#E8E8E8"/>
<path d="M79.6464 215.242C79.3349 210.512 87.507 213.229 89.7837 213.682C93.5223 214.412 97.2369 215.141 100.975 215.871C108.429 217.33 115.906 218.79 123.359 220.249C123.814 220.35 124.006 219.62 123.551 219.519C114.995 217.834 106.464 216.173 97.9079 214.487C93.714 213.657 89.5201 212.826 85.3262 212.021C83.8164 211.719 82.0669 211.392 80.653 212.223C79.5745 212.826 78.8556 213.934 78.9514 215.242C78.9514 215.72 79.6944 215.72 79.6464 215.242Z" fill="#E8E8E8"/>
<path d="M118.398 219.419C120.891 219.696 122.424 217.205 124.366 215.997C126.019 214.99 127.457 215.77 129.159 216.123C131.052 216.525 132.993 216.576 134.91 216.324C135.366 216.274 135.366 215.519 134.91 215.569C132.753 215.846 130.597 215.745 128.488 215.192C127.217 214.839 126.067 214.412 124.797 214.94C122.544 215.846 121.01 218.966 118.398 218.664C117.943 218.614 117.943 219.369 118.398 219.419Z" fill="#E8E8E8"/>
<path d="M164.1 267.805C169.852 265.691 175.651 263.578 181.595 262.068C187.802 260.508 194.056 259.879 200.431 260.08C206.734 260.282 212.989 261.036 219.268 261.64C225.571 262.269 231.874 262.873 238.176 263.502C245.414 264.207 252.675 264.911 259.913 265.641C260.368 265.691 260.368 264.936 259.913 264.886C246.996 263.628 234.078 262.37 221.137 261.087C208.699 259.879 196.189 258.092 183.799 260.785C176.993 262.269 170.427 264.685 163.884 267.075C163.477 267.226 163.669 267.956 164.1 267.805Z" fill="#E8E8E8"/>
<path d="M189.431 243.046C193.721 242.09 197.747 240.202 201.797 238.491C206.135 236.68 210.521 235.422 215.17 234.994C219.867 234.566 224.588 234.818 229.261 235.12C233.959 235.422 238.656 235.774 243.377 236.126C248.865 236.554 254.377 237.032 259.865 237.535C260.32 237.586 260.32 236.831 259.865 236.78C250.135 235.875 240.405 235.095 230.651 234.44C221.377 233.811 212.246 233.56 203.403 237.007C198.706 238.844 194.152 241.184 189.215 242.291C188.808 242.417 188.976 243.146 189.431 243.046Z" fill="#E8E8E8"/>
<path d="M244.671 214.034C248.098 211.291 251.717 208.599 255.551 206.536C257.421 205.529 259.434 204.724 261.543 204.548C263.819 204.347 266.096 204.825 268.325 205.127C272.854 205.706 277.408 206.058 281.961 206.36C284.981 206.561 288.815 207.014 290.948 204.246C291.235 203.869 290.732 203.34 290.445 203.718C288.024 206.863 282.92 205.68 279.612 205.454C275.059 205.127 270.553 204.674 266.024 204.07C264.083 203.818 262.166 203.617 260.224 203.995C258.307 204.347 256.51 205.152 254.808 206.108C251.118 208.171 247.619 210.738 244.288 213.405C243.952 213.682 244.312 214.336 244.671 214.034Z" fill="#E8E8E8"/>
<path d="M112.742 209.882C116.145 207.19 119.573 204.523 122.976 201.831C126.235 199.264 129.278 196.572 133.544 196.345C137.57 196.144 141.692 196.622 145.695 196.974C150.008 197.352 154.298 197.855 158.564 198.484C162.159 199.013 166.449 200.422 169.852 198.459C170.259 198.233 169.9 197.578 169.492 197.805C167.743 198.811 165.802 198.811 163.86 198.56C161.775 198.283 159.69 197.905 157.605 197.603C153.579 197.025 149.529 196.547 145.455 196.194C141.453 195.842 137.307 195.339 133.305 195.591C129.59 195.817 126.834 197.83 123.934 200.12C120.076 203.139 116.241 206.184 112.383 209.203C112.023 209.53 112.383 210.184 112.742 209.882Z" fill="#E8E8E8"/>
<path d="M247.571 236.478C247.787 234.818 248.098 233.207 248.553 231.597C248.769 230.842 248.985 230.087 249.272 229.333C249.44 228.88 249.895 228.125 250.519 228.301C250.83 228.402 250.974 229.534 250.998 229.76C251.046 230.163 251.573 230.289 251.693 229.861C252.819 226.011 254.113 221.784 257.564 219.545C257.373 219.444 257.205 219.318 257.013 219.218C257.013 219.847 256.989 220.501 256.989 221.13C256.989 221.482 257.492 221.658 257.66 221.331C259.793 216.676 262.118 211.795 266.431 208.977C266.264 208.826 266.072 208.7 265.904 208.549C263.747 214.412 261.231 220.123 258.379 225.659C258.187 226.011 258.667 226.464 258.954 226.112C260.56 224.099 262.19 222.086 264.299 220.627C264.131 220.45 263.963 220.274 263.795 220.098C261.135 225.986 258.235 231.723 255.048 237.309C254.808 237.737 255.431 238.114 255.671 237.686C258.835 232.1 261.758 226.363 264.418 220.476C264.562 220.174 264.251 219.721 263.915 219.947C261.758 221.457 260.081 223.495 258.427 225.558C258.619 225.709 258.811 225.86 259.002 226.011C261.878 220.425 264.418 214.663 266.599 208.725C266.719 208.423 266.312 208.146 266.072 208.297C261.638 211.191 259.242 216.148 257.037 220.929C257.253 221.004 257.492 221.054 257.708 221.13C257.708 220.501 257.732 219.847 257.732 219.218C257.732 218.941 257.421 218.739 257.181 218.89C253.586 221.23 252.172 225.609 250.998 229.66C251.238 229.685 251.477 229.735 251.693 229.76C251.573 228.477 250.471 226.288 249.129 227.923C248.458 228.754 248.194 230.113 247.906 231.144C247.427 232.805 247.092 234.516 246.852 236.252C246.828 236.755 247.499 236.957 247.571 236.478Z" fill="#E8E8E8"/>
<path d="M80.1258 194.005C81.9951 192.949 83.8883 191.892 85.9493 191.313C88.1302 190.709 90.287 190.91 92.4679 191.212C96.8056 191.816 101.143 192.42 105.457 193.024C105.912 193.1 105.912 192.345 105.457 192.269C100.832 191.615 96.1825 190.91 91.5572 190.332C89.4243 190.055 87.3872 190.055 85.3262 190.684C83.3611 191.288 81.5397 192.32 79.7423 193.326C79.3349 193.603 79.7184 194.232 80.1258 194.005Z" fill="#E8E8E8"/>
<path d="M225.906 23.3331C227.632 21.7982 230.052 22.1002 231.945 23.0815C233.383 23.8112 234.558 25.2957 236.235 25.3712C237.793 25.4215 239.087 24.3144 240.405 23.5847C241.292 23.1066 242.203 22.7795 243.209 23.006C244.288 23.2325 245.222 23.8867 246.205 24.3396C249.44 25.8241 251.597 23.7609 254.329 22.1253C255.096 21.6724 255.911 21.2698 256.797 21.1944C257.924 21.0937 258.93 21.6221 259.937 22.075C261.519 22.7795 262.717 23.0563 264.323 22.377C265.976 21.6976 267.318 21.7982 268.972 22.4273C270.026 22.8299 271.033 23.3331 272.135 23.5847C273.789 23.9873 275.562 23.8867 276.808 22.5531C277.144 22.2008 276.617 21.6724 276.305 22.0247C274.7 23.7357 272.255 22.9305 270.41 22.1757C268.54 21.4208 266.623 20.6156 264.634 21.3956C263.388 21.8989 262.549 22.2511 261.207 21.7731C260.296 21.446 259.458 20.9176 258.523 20.6408C257.109 20.1879 255.791 20.4395 254.497 21.1189C253.011 21.8989 251.717 23.1318 250.159 23.786C248.098 24.6415 246.492 23.5092 244.623 22.6789C243.257 22.075 241.963 21.9744 240.597 22.6034C238.943 23.3834 237.338 25.0944 235.396 24.3647C234.366 23.9873 233.551 23.1066 232.617 22.5531C231.826 22.1002 230.963 21.7731 230.076 21.5969C228.375 21.2698 226.721 21.5718 225.379 22.7544C225.043 23.1318 225.571 23.6602 225.906 23.3331Z" fill="#E8E8E8"/>
<path d="M234.534 40.5185C234.989 40.5185 234.989 39.7637 234.534 39.7637C234.078 39.7637 234.078 40.5185 234.534 40.5185Z" fill="#E8E8E8"/>
<path d="M239.327 43.2611C240.453 41.1224 243.113 42.154 244.767 42.8586C246.42 43.5631 247.906 43.9908 249.656 43.3618C251.094 42.8334 252.388 41.8269 253.874 41.4747C255.935 40.9714 257.109 42.8082 258.978 43.236C261.902 43.9153 264.85 40.4933 267.606 41.9276C268.373 42.3302 268.9 42.8586 269.811 42.7831C270.649 42.7327 271.416 42.305 272.231 42.1037C274.508 41.5501 276.88 41.9779 278.917 43.1605C279.325 43.387 279.684 42.7327 279.277 42.5063C277.983 41.7514 276.593 41.2985 275.131 41.1476C274.388 41.0721 273.621 41.0972 272.878 41.223C271.991 41.3488 271.177 41.7514 270.314 41.9276C269.14 42.154 268.636 41.5501 267.678 41.1224C267.198 40.9211 266.671 40.8205 266.168 40.8456C264.97 40.8959 263.819 41.4243 262.717 41.8521C261.303 42.4056 259.793 42.934 258.355 42.1792C257.133 41.5501 256.174 40.594 254.736 40.594C251.765 40.6192 249.68 43.6134 246.54 42.7076C244.216 42.0282 240.477 39.6378 238.752 42.8586C238.488 43.3115 239.111 43.6889 239.327 43.2611Z" fill="#E8E8E8"/>
<path d="M216.081 73.3798C217.782 71.9708 219.723 72.0462 221.593 72.9521C222.623 73.4553 223.725 73.9334 224.804 73.254C225.427 72.8514 225.834 72.2224 226.577 71.9959C227.368 71.7443 228.207 71.9204 228.974 72.1217C230.34 72.474 231.658 73.103 233.072 73.2037C234.749 73.3295 236.283 72.5746 237.913 72.3985C239.662 72.2224 240.885 73.3295 242.514 73.5811C244.096 73.8076 245.318 72.474 246.9 72.7256C248.817 73.0276 250.71 73.7069 252.604 74.2102C253.059 74.336 253.251 73.6063 252.795 73.4805C250.806 72.9521 248.745 72.1469 246.708 71.9204C244.983 71.7191 243.736 73.2037 242.011 72.6501C240.405 72.1469 239.255 71.4172 237.529 71.6688C235.684 71.9456 234.007 72.7004 232.113 72.2727C230.651 71.9456 229.237 71.2159 227.728 71.1153C227.176 71.0901 226.601 71.1404 226.074 71.3669C225.403 71.6437 225.044 72.2224 224.42 72.5998C222.983 73.4805 221.041 71.6185 219.508 71.4927C218.046 71.3669 216.704 71.8953 215.553 72.8263C215.194 73.1534 215.721 73.6818 216.081 73.3798Z" fill="#E8E8E8"/>
<path d="M78.6878 18.4769C79.1432 18.4769 79.1432 17.722 78.6878 17.722C78.2325 17.722 78.2325 18.4769 78.6878 18.4769Z" fill="#E8E8E8"/>
<path d="M80.7967 19.0556C81.2281 16.8162 84.056 18.2504 85.0865 18.9298C86.2608 19.7098 87.507 20.4143 88.9449 19.9866C90.5027 19.5085 91.5571 18.0994 93.2826 17.9988C94.9123 17.9233 96.494 18.7033 98.0278 19.2065C99.3458 19.6343 100.736 19.9362 102.102 19.584C103.708 19.1814 105.074 17.9988 106.703 17.6968C109.915 17.1181 112.814 19.8607 116.074 18.8039C116.505 18.653 116.337 17.9233 115.882 18.0743C112.479 19.2065 109.243 16.0361 105.792 17.1684C104.019 17.7472 102.533 19.0556 100.592 18.9801C98.7946 18.9046 97.165 17.9988 95.4635 17.5459C94.1214 17.1936 92.7554 17.0929 91.4613 17.722C90.7184 18.0743 90.0713 18.653 89.3284 19.0304C88.1062 19.6343 87.0756 19.282 85.9732 18.6278C84.775 17.8981 83.7445 17.0426 82.2826 17.1684C81.2521 17.2439 80.3414 17.7975 80.1497 18.9046C80.0299 19.3323 80.7249 19.5336 80.7967 19.0556Z" fill="#E8E8E8"/>
<path d="M82.9776 165.975C85.8295 164.717 88.7053 166.956 91.5811 167.107C93.067 167.183 94.5049 166.805 95.9667 166.504C97.8121 166.126 99.3938 166.101 101.167 166.881C102.246 167.359 103.228 167.661 104.331 167.208C104.954 166.956 105.481 166.529 106.104 166.302C106.799 166.051 107.518 166 108.261 166C110.825 166.051 113.389 166.982 115.834 165.774C116.241 165.573 115.882 164.918 115.474 165.12C112.862 166.403 109.962 164.994 107.206 165.296C105.888 165.447 105.026 166.252 103.803 166.629C102.341 167.082 100.904 165.774 99.4657 165.547C96.3742 165.044 93.4504 166.856 90.3349 166.202C87.8425 165.673 85.3262 164.138 82.7859 165.271C82.3785 165.447 82.5702 166.176 82.9776 165.975Z" fill="#E8E8E8"/>
<path d="M31.1648 128.912C33.256 128.912 34.9513 127.132 34.9513 124.936C34.9513 122.741 33.256 120.961 31.1648 120.961C29.0735 120.961 27.3783 122.741 27.3783 124.936C27.3783 127.132 29.0735 128.912 31.1648 128.912Z" fill="#0A3871"/>
<path d="M251.573 101.586C253.042 101.586 254.233 100.336 254.233 98.7932C254.233 97.2507 253.042 96.0002 251.573 96.0002C250.104 96.0002 248.913 97.2507 248.913 98.7932C248.913 100.336 250.104 101.586 251.573 101.586Z" fill="#0A3871"/>
<path d="M227.632 4.28559C228.717 4.28559 229.597 3.36183 229.597 2.22232C229.597 1.08281 228.717 0.159058 227.632 0.159058C226.547 0.159058 225.667 1.08281 225.667 2.22232C225.667 3.36183 226.547 4.28559 227.632 4.28559Z" fill="#0A3871"/>
<path d="M141.069 183.211C142.419 183.211 143.514 182.062 143.514 180.644C143.514 179.227 142.419 178.078 141.069 178.078C139.719 178.078 138.625 179.227 138.625 180.644C138.625 182.062 139.719 183.211 141.069 183.211Z" fill="#0A3871"/>
<path d="M28.3848 37.4488C29.9334 37.4488 31.1887 36.1308 31.1887 34.5049C31.1887 32.879 29.9334 31.561 28.3848 31.561C26.8362 31.561 25.5808 32.879 25.5808 34.5049C25.5808 36.1308 26.8362 37.4488 28.3848 37.4488Z" fill="#0A3871"/>
<path d="M125.061 140.738C125.947 140.738 126.666 139.983 126.666 139.052C126.666 138.121 125.947 137.366 125.061 137.366C124.174 137.366 123.455 138.121 123.455 139.052C123.455 139.983 124.174 140.738 125.061 140.738Z" fill="#0A3871"/>
<path d="M276.617 155.08C277.967 155.08 279.061 153.931 279.061 152.514C279.061 151.096 277.967 149.947 276.617 149.947C275.267 149.947 274.172 151.096 274.172 152.514C274.172 153.931 275.267 155.08 276.617 155.08Z" fill="#0A3871"/>
<path d="M10.1712 197.503C11.1771 197.503 11.9926 196.647 11.9926 195.591C11.9926 194.534 11.1771 193.678 10.1712 193.678C9.16531 193.678 8.34985 194.534 8.34985 195.591C8.34985 196.647 9.16531 197.503 10.1712 197.503Z" fill="#0A3871"/>
<path d="M84.6551 48.8975C82.5702 53.3511 80.4612 57.8047 78.3763 62.2584C87.0037 74.4115 95.6312 86.5395 104.259 98.6926C106.487 95.1448 108.692 91.5215 110.921 87.873C116.169 79.2174 121.178 70.6624 125.971 62.1829C124.342 57.8299 122.688 53.4517 121.058 49.0988C120.004 48.52 118.949 47.9665 117.895 47.3878C107.686 47.4129 97.4765 47.4381 87.2913 47.4632C86.3806 47.9665 85.5179 48.4446 84.6551 48.8975Z" fill="white"/>
<path d="M78.6639 62.4596C80.4852 58.2576 82.3545 54.0808 84.2717 49.9291C84.4635 49.5013 83.8643 49.0988 83.6486 49.5517C81.7314 53.7034 79.8621 57.8802 78.0407 62.0822C77.849 62.51 78.4721 62.9126 78.6639 62.4596Z" fill="black"/>
<path d="M78.1845 62.9125C86.6203 75.0657 95.2238 87.0679 103.995 98.9694C104.283 99.3468 104.786 98.8184 104.498 98.441C95.775 86.5898 87.2194 74.6379 78.8076 62.5351C78.544 62.1577 77.9209 62.5351 78.1845 62.9125Z" fill="black"/>
<path d="M84.4394 49.5014C85.446 48.9478 86.4286 48.3691 87.4351 47.8155C87.8425 47.5891 87.483 46.9349 87.0756 47.1613C86.0691 47.7149 85.0865 48.2936 84.08 48.8472C83.6486 49.0988 84.032 49.7278 84.4394 49.5014Z" fill="black"/>
<path d="M88.0343 47.8658C95.5114 47.8658 103.013 47.8658 110.49 47.8658C110.945 47.8658 110.945 47.111 110.49 47.111C103.013 47.111 95.5114 47.111 88.0343 47.111C87.5789 47.111 87.5789 47.8658 88.0343 47.8658Z" fill="black"/>
<path d="M126.307 62.1074C124.797 57.9054 123.239 53.7537 121.633 49.5768C121.466 49.1239 120.771 49.3252 120.938 49.7781C122.544 53.9298 124.102 58.1067 125.612 62.3087C125.779 62.7616 126.474 62.5603 126.307 62.1074Z" fill="black"/>
<path d="M125.516 62.4849C118.494 74.5625 111.328 86.5647 104.019 98.4662C103.755 98.8688 104.379 99.2462 104.642 98.8436C111.952 86.9421 119.117 74.9651 126.139 62.8623C126.379 62.4597 125.756 62.0571 125.516 62.4849Z" fill="black"/>
<path d="M121.202 48.7969C120.363 48.2433 119.525 47.6646 118.686 47.1111C118.302 46.8594 117.943 47.4885 118.326 47.7653C119.165 48.3188 120.004 48.8975 120.843 49.4511C121.25 49.7279 121.61 49.0737 121.202 48.7969Z" fill="black"/>
<path d="M117.871 47.0355C111.616 47.0355 105.361 47.0355 99.1302 47.0355C98.6748 47.0355 98.6748 47.7904 99.1302 47.7904C105.385 47.7904 111.64 47.7904 117.871 47.7904C118.326 47.7904 118.326 47.0355 117.871 47.0355Z" fill="black"/>
<path d="M78.9515 62.8371C83.2413 60.8997 87.531 58.9622 91.8208 57.0247C92.2522 56.8235 91.8687 56.1944 91.4613 56.3705C87.1716 58.308 82.8818 60.2455 78.592 62.1829C78.1846 62.3842 78.5441 63.0384 78.9515 62.8371Z" fill="black"/>
<path d="M84.5593 49.2749C87.1955 49.7026 89.7837 50.3065 92.348 51.0614C92.8033 51.1872 92.9951 50.4575 92.5397 50.3317C89.9754 49.5517 87.3872 48.973 84.751 48.5452C84.2957 48.4697 84.08 49.1994 84.5593 49.2749Z" fill="black"/>
<path d="M92.1563 50.9356C92.7314 52.8227 93.2347 54.7099 93.6661 56.6473C93.7619 57.1254 94.4569 56.9241 94.3611 56.446C93.9297 54.5086 93.4264 52.6214 92.8512 50.7343C92.7074 50.2814 92.0125 50.4575 92.1563 50.9356Z" fill="black"/>
<path d="M93.2587 51.0111C99.6814 51.0111 106.08 51.0111 112.503 51.0111C112.958 51.0111 112.958 50.2562 112.503 50.2562C106.08 50.2562 99.6814 50.2562 93.2587 50.2562C92.8033 50.2562 92.8033 51.0111 93.2587 51.0111Z" fill="black"/>
<path d="M112.191 51.1621C111.952 52.546 111.712 53.955 111.472 55.3389C111.4 55.817 112.095 56.0183 112.167 55.5402C112.407 54.1563 112.647 52.7473 112.886 51.3634C112.958 50.8853 112.263 50.684 112.191 51.1621Z" fill="black"/>
<path d="M94.0495 56.6976C99.6574 56.6976 105.265 56.6976 110.897 56.6976C111.352 56.6976 111.352 55.9427 110.897 55.9427C105.289 55.9427 99.6814 55.9427 94.0495 55.9427C93.5942 55.9427 93.5942 56.6976 94.0495 56.6976Z" fill="black"/>
<path d="M113.198 51.0111C115.81 50.4324 118.398 49.8537 121.01 49.275C121.466 49.1743 121.274 48.4446 120.819 48.5453C118.206 49.124 115.618 49.7027 113.006 50.2814C112.551 50.3821 112.742 51.1118 113.198 51.0111Z" fill="black"/>
<path d="M112 56.4712C114.42 56.8738 116.673 58.308 118.878 59.3899C121.226 60.5474 123.551 61.7048 125.899 62.8623C126.307 63.0636 126.69 62.4094 126.259 62.2081C123.766 60.9751 121.298 59.7674 118.806 58.5344C116.697 57.4777 114.516 56.1441 112.191 55.7415C111.736 55.666 111.544 56.3957 112 56.4712Z" fill="black"/>
<path d="M94.2652 57.8551C97.3807 71.3418 100.472 84.8537 103.588 98.3404C103.708 98.8185 104.379 98.6172 104.283 98.1391C101.167 84.6524 98.0757 71.1405 94.9602 57.6538C94.8404 57.1757 94.1454 57.377 94.2652 57.8551Z" fill="black"/>
<path d="M110.993 58.7608C108.069 71.7443 105.649 84.8788 103.779 98.0887C103.708 98.5668 104.402 98.7681 104.474 98.29C106.344 85.0801 108.764 71.9708 111.688 58.9621C111.808 58.4841 111.113 58.2828 110.993 58.7608Z" fill="black"/>
<path d="M111.233 33.574C112.311 30.6804 112.91 27.6358 113.006 24.5158C113.03 24.0377 112.311 24.0377 112.287 24.5158C112.191 27.5604 111.592 30.5294 110.538 33.3727C110.37 33.8256 111.065 34.0018 111.233 33.574Z" fill="black"/>
<path d="M116.145 34.0772C118.446 31.3346 121.034 28.919 123.934 26.8809C124.318 26.6041 123.958 25.9499 123.575 26.2267C120.627 28.29 117.967 30.7558 115.642 33.5488C115.331 33.9011 115.834 34.4295 116.145 34.0772Z" fill="black"/>
<path d="M120.867 38.7321C123.838 37.8011 126.906 37.4489 129.997 37.7005C130.453 37.7256 130.453 36.9708 129.997 36.9456C126.834 36.694 123.718 37.0463 120.675 38.0024C120.244 38.1534 120.411 38.8831 120.867 38.7321Z" fill="black"/>
<path d="M70.3719 21.0937C70.6595 26.0758 67.9993 30.8313 63.7335 32.9952C63.4938 33.1211 63.5178 33.4985 63.7335 33.6495C67.6398 36.1153 69.4372 40.6444 70.4677 45.0981C70.5876 45.5761 71.2586 45.3748 71.1627 44.8968C70.0843 40.2418 68.1671 35.5366 64.093 32.9952C64.093 33.2217 64.093 33.423 64.093 33.6495C68.5745 31.3597 71.4024 26.3022 71.0908 21.0937C71.0669 20.6157 70.3479 20.6157 70.3719 21.0937Z" fill="#E8E8E8"/>
<path d="M70.6355 21.0937C70.3239 26.3274 73.1518 31.3849 77.6333 33.6494C77.6333 33.423 77.6333 33.2217 77.6333 32.9952C73.5353 35.5617 71.6181 40.267 70.5396 44.9471C70.4198 45.4251 71.1148 45.6264 71.2346 45.1484C72.2651 40.6696 74.0625 36.1153 77.9928 33.6494C78.2085 33.5236 78.2325 33.121 77.9928 32.9952C73.727 30.8313 71.0429 26.0758 71.3305 21.0937C71.3784 20.6157 70.6594 20.6157 70.6355 21.0937Z" fill="#E8E8E8"/>
<path d="M187.322 209.983C188.161 209.606 189.311 209.052 190.629 208.272C192.834 206.989 193.937 206.335 194.608 205.303C195.47 203.944 195.135 203.215 196.261 201.856C196.429 201.629 197.22 200.749 198.25 200.271C200.024 199.491 201.677 200.422 204.433 201.453C206.974 202.409 208.963 202.862 212.941 203.793C214.523 204.171 216.44 204.548 219.22 205.454C220.011 205.706 220.634 205.932 221.065 206.083C221.113 206.611 221.137 207.97 220.298 209.203C219.915 209.757 219.388 210.21 218.549 210.612C216.608 211.568 214.762 211.392 213.205 211.317C209.85 211.166 211.24 211.669 203.331 211.82C201.605 211.845 200.192 211.845 199.209 211.845C197.987 212.726 196.765 213.632 195.518 214.563C193.409 216.173 191.396 217.783 189.479 219.368C188.76 216.248 188.041 213.103 187.322 209.983Z" fill="black"/>
<path d="M177.329 177.776C175.603 178.732 175.412 179.085 168.989 184.821C158.971 193.754 157.869 194.232 148.786 202.56C140.087 210.512 138.457 212.499 136.804 215.116C132.682 221.734 131.771 227.269 131.507 229.962C131.148 233.585 130.668 238.617 133.712 242.593C135.629 245.084 138.122 246.115 138.96 246.443C141.477 247.449 143.538 247.323 147.252 247.046C152.189 246.669 155.952 245.663 157.438 245.235C159.067 244.757 162.854 243.574 167.599 241.108C172.056 238.793 173.974 237.082 180.061 232.78C182.769 230.867 186.771 228.074 191.804 224.854C192.115 222.338 191.852 220.375 191.588 219.142C190.965 216.223 189.695 214.21 188.281 211.996C187.131 210.184 186.028 208.801 185.261 207.895C187.059 206.461 189.407 204.397 191.876 201.629C193.529 199.767 196.141 196.798 198.322 192.622C201.006 187.489 203.691 182.305 201.965 178.732C199.257 173.121 186.364 172.87 177.329 177.776Z" fill="white"/>
<path opacity="0.18" d="M198.802 180.519C197.436 183.84 195.183 188.545 191.588 193.578C186.364 200.849 181.091 204.875 173.135 210.839C150.631 227.697 144.592 231.547 145.263 233.157C146.174 235.346 158.852 231.421 160.697 230.842C174.165 226.665 184.087 220.224 190.294 215.519C188.712 212.977 187.131 210.436 185.549 207.92C187.49 206.461 190.174 204.146 192.69 200.698C194.08 198.811 196.189 195.893 197.555 191.489C198.945 187.111 198.993 183.211 198.802 180.519Z" fill="#9B9797"/>
<path d="M177.233 177.751C168.701 184.419 160.385 191.414 152.381 198.736C148.547 202.233 144.712 205.731 141.117 209.48C137.93 212.801 134.958 216.475 133.161 220.853C131.292 225.382 130.764 230.616 131.22 235.522C131.603 239.573 133.017 243.65 136.54 245.763C140.231 247.952 144.88 247.726 148.954 247.273C153.963 246.745 158.899 245.461 163.573 243.474C173.998 239.02 182.17 230.691 192.019 225.181C192.427 224.954 192.067 224.3 191.66 224.527C183.44 229.131 176.442 235.774 168.198 240.379C163.884 242.794 159.235 244.556 154.442 245.637C150.008 246.619 145.024 247.374 140.518 246.468C138.409 246.04 136.372 245.134 134.862 243.474C133.4 241.838 132.61 239.699 132.202 237.51C131.316 232.755 131.723 227.37 133.209 222.791C134.695 218.211 137.594 214.361 140.758 210.939C144.041 207.392 147.636 204.121 151.159 200.875C159.666 193.024 168.486 185.526 177.592 178.43C177.952 178.128 177.616 177.474 177.233 177.751Z" fill="black"/>
<path d="M153.747 229.333C161.608 226.137 168.725 221.356 175.483 216.123C178.815 213.556 182.098 210.889 185.357 208.222C188.568 205.58 191.636 202.787 194.128 199.39C194.416 199.013 193.793 198.635 193.505 199.013C190.965 202.485 187.778 205.278 184.518 207.97C181.307 210.612 178.072 213.229 174.764 215.77C168.15 220.853 161.224 225.533 153.555 228.628C153.124 228.779 153.316 229.509 153.747 229.333Z" fill="black"/>
<path d="M184.998 208.146C189.623 212.223 192.067 218.538 191.42 224.854C191.372 225.332 192.091 225.332 192.139 224.854C192.786 218.362 190.246 211.82 185.501 207.618C185.165 207.291 184.662 207.819 184.998 208.146Z" fill="black"/>
<path d="M191.372 217.834C192.738 217.406 193.937 216.198 195.087 215.343C196.525 214.286 197.939 213.229 199.377 212.172C199.76 211.895 199.401 211.241 199.017 211.518C197.723 212.474 196.405 213.455 195.111 214.412C193.913 215.292 192.595 216.651 191.181 217.104C190.725 217.23 190.917 217.959 191.372 217.834Z" fill="black"/>
<path d="M187.418 210.335C190.126 209.153 192.619 207.542 194.871 205.555C195.231 205.228 194.703 204.699 194.368 205.026C192.235 206.939 189.839 208.473 187.25 209.606C186.819 209.807 187.011 210.537 187.418 210.335Z" fill="black"/>
<path d="M194.608 205.228C195.063 205.228 195.063 204.473 194.608 204.473C194.152 204.473 194.152 205.228 194.608 205.228Z" fill="black"/>
<path d="M195.47 204.322C195.878 203.315 196.309 202.208 197.076 201.428C198.107 200.371 199.353 200.522 200.671 200.824C203.115 201.403 205.512 202.208 207.908 202.938C210.137 203.592 212.366 204.171 214.667 204.448C216.009 204.599 217.135 204.775 218.333 205.404C219.22 205.857 219.987 206.31 220.969 206.41C221.425 206.461 221.425 205.706 220.969 205.655C219.651 205.53 218.621 204.573 217.375 204.146C216.128 203.718 214.739 203.743 213.444 203.517C210.616 203.039 207.86 202.133 205.128 201.277C203.786 200.875 202.444 200.472 201.078 200.145C200.072 199.918 199.017 199.642 198.011 199.969C196.261 200.522 195.422 202.485 194.775 204.12C194.608 204.573 195.303 204.775 195.47 204.322Z" fill="black"/>
<path d="M199.281 212.726C204.409 211.921 209.49 211.795 214.667 211.694C216.464 211.669 218.381 211.443 219.819 210.21C221.041 209.153 221.736 207.618 221.401 205.982C221.305 205.504 220.61 205.706 220.706 206.184C221.161 208.473 219.196 210.159 217.255 210.663C215.266 211.166 213.109 210.914 211.072 210.965C207.046 211.04 203.067 211.392 199.089 212.021C198.634 212.072 198.85 212.801 199.281 212.726Z" fill="black"/>
<path d="M217.47 207.718C219.244 206.385 221.041 205.051 222.815 203.718C222.935 202.862 223.318 201 224.78 199.415C225.211 198.937 226.218 197.83 227.728 197.528C229.309 197.201 230.532 197.956 231.898 198.61C234.102 199.667 236.235 200.069 240.453 200.925C243.784 201.579 245.462 201.906 247.858 201.78C251.118 201.579 253.442 200.673 254.832 202.107C254.976 202.258 255.575 202.938 255.527 203.768C255.455 204.825 254.377 205.504 253.514 206.033C249.752 208.297 247.643 208.951 247.643 208.951C242.322 210.587 239.638 211.417 237.338 211.619C235.468 211.77 232.808 211.845 229.597 211.317C228.662 214.688 225.834 216.852 223.174 216.676C219.747 216.45 216.584 212.399 217.47 207.718Z" fill="black"/>
<path d="M183.056 185.476C183.584 183.79 184.566 181.651 186.411 180.946C187.61 180.493 188.712 180.795 189.072 180.896C191.3 181.475 195.878 180.644 205.008 179.009C209.538 178.204 215.266 177.021 221.856 175.26C221.88 176.543 221.856 178.229 221.784 180.192C221.616 184.595 221.185 187.916 221.089 188.696C220.682 191.816 219.963 197 217.782 203.29C217.231 204.9 216.68 206.234 216.296 207.14C217.231 207.593 218.237 208.197 219.22 209.052C223.27 212.449 224.444 217.255 224.828 219.293C224.253 220.023 223.39 221.105 222.287 222.338C217.83 227.32 213.708 230.113 205.847 235.22C201.006 238.366 197.459 240.655 191.78 244.178C184.878 248.455 179.294 251.777 172.344 253.865C170.618 254.394 167.886 255.098 164.435 254.721C162.758 254.545 159.738 254.217 156.838 252.003C153.124 249.185 151.949 245.059 151.47 243.247C150.392 239.196 150.799 235.396 151.806 231.446C152.501 228.678 155.017 219.494 163.764 209.153C165.514 207.089 170.499 202.435 180.42 193.125C182.817 190.885 184.782 189.048 186.1 187.841C185.093 187.036 184.087 186.256 183.056 185.476Z" fill="white"/>
<path opacity="0.18" d="M215.649 178.506C215.098 180.72 214.211 183.916 212.869 187.665C200.623 221.734 173.255 236.453 175.483 240.127C177.113 242.844 192.738 236.076 204.002 228.955C212.438 223.621 218.717 217.909 222.911 213.606C222.24 212.575 221.209 211.166 219.651 209.832C218.142 208.549 216.704 207.769 215.625 207.291C216.368 206.159 217.351 204.448 218.189 202.258C218.741 200.849 219.22 199.34 219.843 196.27C220.85 191.414 221.257 187.564 221.377 186.356C221.664 183.463 221.928 179.714 221.88 175.285C219.795 176.342 217.734 177.424 215.649 178.506Z" fill="#9B9797"/>
<path d="M221.521 175.26C221.545 180.015 221.257 184.771 220.634 189.501C220.059 193.754 219.34 198.132 217.854 202.158C216.248 206.511 213.492 209.681 210.161 212.675C206.758 215.72 203.331 218.714 199.904 221.709C195.974 225.156 192.019 228.578 188.089 232.025C187.73 232.327 188.233 232.855 188.592 232.553C195.806 226.263 203.019 219.998 210.185 213.632C213.348 210.813 216.224 207.895 217.95 203.844C219.627 199.918 220.442 195.616 221.089 191.389C221.904 186.054 222.288 180.67 222.24 175.26C222.24 174.757 221.521 174.757 221.521 175.26Z" fill="black"/>
<path d="M183.464 186.18C184.446 186.734 185.429 187.287 186.436 187.841C186.843 188.067 187.202 187.413 186.795 187.187C185.812 186.633 184.83 186.079 183.823 185.526C183.416 185.299 183.056 185.954 183.464 186.18Z" fill="black"/>
<path d="M186.435 187.539C177.904 194.836 168.941 202.057 161.823 210.914C155.688 218.538 150.631 228.2 150.655 238.441C150.655 242.945 151.83 247.65 154.993 250.846C158.157 254.067 162.734 255.325 167.048 255.098C172.32 254.821 177.329 252.632 182.026 250.217C187.059 247.625 191.828 244.555 196.621 241.511C206.494 235.22 217.518 229.358 224.924 219.771C225.211 219.394 224.708 218.865 224.42 219.243C218.213 227.295 209.49 232.453 201.174 237.737C196.597 240.655 192.067 243.625 187.394 246.392C182.817 249.11 178.048 251.701 172.991 253.236C168.246 254.671 162.95 254.972 158.468 252.481C154.154 250.116 151.95 245.537 151.494 240.555C150.607 230.49 155.424 220.476 161.248 212.826C168.509 203.29 178 195.691 186.963 188.042C187.298 187.765 186.795 187.237 186.435 187.539Z" fill="black"/>
<path d="M216.128 207.442C220.634 209.706 223.773 214.185 224.516 219.368C224.588 219.847 225.283 219.645 225.211 219.167C224.468 213.808 221.161 209.102 216.512 206.788C216.08 206.586 215.721 207.24 216.128 207.442Z" fill="black"/>
<path d="M217.566 208.096C218.525 207.693 219.292 207.014 220.107 206.36C221.065 205.58 222.048 204.825 223.006 204.045C223.366 203.743 223.006 203.089 222.647 203.391C221.784 204.07 220.921 204.75 220.059 205.454C219.22 206.133 218.381 206.964 217.375 207.366C216.967 207.542 217.135 208.272 217.566 208.096Z" fill="black"/>
<path d="M223.366 203.743C223.845 202.258 224.42 200.799 225.187 199.44C226.242 197.578 227.823 197.78 229.597 198.258C232.353 198.987 234.989 200.094 237.769 200.749C243.161 202.007 248.697 202.434 254.209 202.057C254.665 202.032 254.665 201.277 254.209 201.302C247.715 201.755 241.172 201.051 234.893 199.189C233.383 198.736 231.922 198.157 230.412 197.704C229.261 197.352 227.895 196.949 226.697 197.201C225.619 197.427 224.996 198.283 224.468 199.239C223.725 200.598 223.15 202.057 222.671 203.542C222.527 203.995 223.222 204.196 223.366 203.743Z" fill="black"/>
<path d="M224.396 215.896C226.194 214.462 227.967 213.028 229.765 211.593C230.124 211.291 229.765 210.637 229.405 210.939C227.608 212.373 225.834 213.808 224.037 215.242C223.677 215.544 224.037 216.198 224.396 215.896Z" fill="black"/>
<path d="M229.741 211.417C235.588 212.751 241.556 211.744 247.091 209.53C249.608 208.524 252.484 207.391 254.641 205.68C256.15 204.498 256.366 202.233 254.377 201.428C253.946 201.252 253.754 201.982 254.185 202.158C255.264 202.586 255.383 203.818 254.641 204.674C254.281 205.102 253.778 205.378 253.298 205.68C252.316 206.259 251.309 206.788 250.303 207.291C248.17 208.348 245.965 209.253 243.688 209.958C239.207 211.317 234.51 211.77 229.908 210.713C229.477 210.587 229.285 211.317 229.741 211.417Z" fill="black"/>
<path d="M167.287 102.744C170.93 99.5734 176.37 95.7489 183.632 93.4843C187.035 92.4275 191.3 91.1191 196.956 91.6223C205.632 92.4023 211.599 96.8811 213.708 98.5166C217.015 101.058 219.268 103.75 220.658 105.637C220.921 123.276 221.281 140.939 221.736 158.578C221.88 164.013 222.024 169.473 222.192 174.908C218.789 177.122 214.019 179.613 207.98 181.072C193.841 184.469 182.074 179.94 177.305 177.751C177.281 173.297 177.017 166.604 175.723 158.578C173.614 145.393 170.331 140.084 168.27 128.736C167.239 122.873 166.257 114.067 167.287 102.744Z" fill="#0A3871"/>
<path d="M210.616 107.097C209.442 108.455 209.226 109.99 209.298 115.878C209.346 122.068 209.658 126.295 209.85 131.202C209.993 134.749 210.113 137.568 210.041 141.241C209.969 145.871 209.682 149.67 209.418 152.212C207.07 154.979 204.985 157.143 203.427 158.703C199.928 162.201 196.117 165.975 190.486 169.523C188.257 170.907 186.34 171.913 185.046 172.542C183.871 172.341 182.553 172.039 181.115 171.662C177.712 170.756 176.298 169.951 173.734 169.951C172.967 169.951 170.547 169.951 170.307 170.857C170.091 171.611 171.433 172.794 172.488 173.373C173.47 173.901 173.902 173.75 174.884 174.228C175.987 174.782 176.706 175.587 177.137 176.191C176.682 176.87 175.987 177.902 175.22 179.235C174.333 180.795 174.141 181.399 173.111 183.261C172.032 185.224 171.481 186.205 171.002 186.708C170.259 187.438 169.804 187.589 166.472 189.149C163.165 190.709 162.59 191.061 162.59 191.489C162.59 191.917 163.237 192.018 165.801 193.175C167.886 194.106 168.078 194.307 169.157 194.634C170.499 195.037 171.313 195.289 172.296 195.062C173.854 194.735 174.86 193.502 175.292 192.848C175.507 193.049 176.035 193.477 176.73 193.502C177.281 193.502 177.736 193.276 178.096 192.974C179.605 191.841 180.348 189.753 181.834 187.413C182.098 187.01 183.032 185.526 184.542 183.865C185.477 182.808 186.34 182.028 186.963 181.5C187.802 181.299 189.048 180.997 190.534 180.544C196.309 178.808 200.479 176.719 203.978 174.958C206.015 173.926 208.316 172.568 212.893 169.875C216.871 167.535 218.932 166.227 220.754 163.66C220.945 163.383 221.928 162 222.791 159.961C223.054 159.332 223.989 157.093 224.492 153.168C224.732 151.432 224.732 150.475 224.756 145.041C224.804 138.121 224.804 138.951 224.804 138.247C224.78 128.107 224.277 129.012 224.109 119.703C224.085 118.822 224.061 116.432 223.366 113.412C222.623 110.141 221.688 108.682 221.161 107.952C220.49 107.021 219.675 105.914 218.285 105.285C215.745 104.102 212.366 105.059 210.616 107.097Z" fill="white"/>
<path opacity="0.25" d="M218.309 105.26C218.884 107.248 219.579 110.116 220.059 113.588C220.634 117.79 220.85 122.42 219.555 134.523C218.477 144.638 217.95 149.696 216.56 154.426C214.571 161.169 213.133 166.076 208.747 169.951C205.919 172.442 202.828 173.599 196.621 175.889C192.067 177.575 188.161 178.581 185.477 179.21C183.56 181.928 180.708 185.375 176.658 188.646C173.494 191.212 170.451 192.974 167.934 194.182C168.294 194.433 169.78 195.44 171.793 195.163C174.141 194.836 175.411 193.074 175.627 192.747C176.083 193.1 176.754 193.477 177.496 193.351C179.03 193.1 179.845 190.81 180.252 189.778C181.139 187.639 182.913 184.696 186.891 181.475C189.527 180.745 193.098 179.638 197.244 177.977C203.019 175.637 206.902 173.373 211.072 170.932C217.758 167.007 219.268 165.396 220.37 163.836C222.383 160.993 223.222 158.074 223.582 156.791C224.229 154.501 224.349 151.935 224.588 146.928C224.756 143.204 224.756 140.335 224.756 138.171C224.756 134.447 224.684 131.68 224.612 129.289C224.516 125.817 224.325 121.741 223.845 116.859C223.486 113.312 223.222 111.903 222.455 110.317C221.281 107.801 219.531 106.191 218.309 105.26Z" fill="#9B9797"/>
<path d="M210.257 106.996C209.011 110.267 208.867 113.79 208.939 117.287C209.011 121.137 209.202 124.961 209.37 128.811C209.706 136.611 209.945 144.437 209.059 152.212C209.011 152.69 209.73 152.69 209.778 152.212C210.64 144.613 210.449 136.938 210.113 129.314C209.945 125.54 209.754 121.766 209.658 117.966C209.562 114.318 209.634 110.644 210.952 107.197C211.12 106.744 210.425 106.543 210.257 106.996Z" fill="black"/>
<path d="M210.449 151.558C208.244 152.841 206.47 154.703 204.769 156.64C202.924 158.729 201.078 160.767 199.017 162.629C194.799 166.478 190.054 169.649 184.974 172.115C184.542 172.316 184.926 172.97 185.333 172.769C190.222 170.404 194.799 167.384 198.897 163.736C200.934 161.949 202.804 159.987 204.601 157.949C206.47 155.81 208.34 153.646 210.784 152.237C211.216 151.96 210.856 151.306 210.449 151.558Z" fill="black"/>
<path d="M185.141 172.165C182.505 171.586 179.845 170.982 177.209 170.353C175.891 170.051 174.549 169.674 173.207 169.422C172.368 169.271 171.481 169.196 170.738 169.699C169.588 170.479 169.588 171.913 170.618 172.769C171.361 173.398 172.32 173.675 173.207 173.977C174.645 174.455 175.867 175.059 176.802 176.342C177.089 176.719 177.712 176.342 177.425 175.964C176.586 174.832 175.579 174.027 174.285 173.549C173.398 173.222 172.416 173.02 171.601 172.542C171.026 172.215 170.283 171.712 170.714 170.806C171.122 169.951 172.152 170.026 172.895 170.152C174.884 170.454 176.873 171.058 178.863 171.536C180.9 172.014 182.937 172.467 184.974 172.92C185.405 172.995 185.597 172.266 185.141 172.165Z" fill="black"/>
<path d="M176.226 176.468C175.172 178.506 174.093 180.519 173.039 182.557C172.512 183.538 172.056 184.595 171.433 185.551C170.786 186.532 169.923 187.036 168.917 187.539C167.024 188.47 164.987 189.225 163.165 190.307C162.35 190.81 161.823 191.716 162.518 192.596C163.381 193.678 165.082 193.251 166.233 193.049C167.814 192.772 169.324 192.219 170.762 191.514C173.758 190.005 176.298 187.639 178.12 184.721C178.383 184.318 177.76 183.941 177.496 184.343C175.891 186.96 173.662 189.074 171.05 190.533C169.804 191.212 168.462 191.766 167.096 192.093C166.329 192.294 165.514 192.471 164.699 192.496C163.956 192.546 163.764 192.647 163.405 191.867C162.95 191.414 162.997 191.112 163.525 190.961C163.692 190.885 163.836 190.81 164.004 190.734C165.538 189.98 167.096 189.25 168.629 188.495C169.828 187.916 171.002 187.413 171.817 186.281C172.775 184.947 173.446 183.362 174.213 181.903C175.1 180.217 175.987 178.531 176.849 176.87C177.065 176.417 176.442 176.04 176.226 176.468Z" fill="black"/>
<path d="M187.178 181.978C193.577 180.091 199.784 177.575 205.728 174.455C208.675 172.895 211.551 171.209 214.355 169.347C216.871 167.686 219.531 166 221.329 163.459C221.593 163.056 220.969 162.679 220.706 163.082C218.837 165.749 215.913 167.485 213.277 169.196C210.592 170.932 207.813 172.542 204.985 174.027C199.209 177.021 193.194 179.437 186.987 181.274C186.555 181.374 186.747 182.104 187.178 181.978Z" fill="black"/>
<path d="M210.736 107.675C212.725 103.574 217.83 104.505 220.346 107.424C223.366 110.946 223.51 116.105 223.845 120.583C224.564 130.371 224.708 140.235 224.133 150.023C223.845 154.778 223.174 159.811 220.155 163.585C219.867 163.962 220.37 164.491 220.658 164.113C223.366 160.691 224.301 156.363 224.684 152.036C225.187 146.5 225.187 140.889 225.139 135.328C225.091 129.516 224.828 123.678 224.325 117.891C223.941 113.538 223.198 108.732 219.771 105.839C216.847 103.373 211.958 103.448 210.089 107.298C209.897 107.726 210.521 108.103 210.736 107.675Z" fill="black"/>
<path d="M165.586 193.477C167.335 194.307 169.444 195.565 171.433 195.565C173.35 195.54 174.764 193.88 176.059 192.621C179.773 188.998 183.488 185.375 187.202 181.777C187.538 181.45 187.035 180.921 186.699 181.248C183.56 184.318 180.42 187.363 177.281 190.432C175.891 191.766 174.453 193.678 172.703 194.509C170.642 195.49 167.814 193.729 165.969 192.848C165.538 192.621 165.178 193.276 165.586 193.477Z" fill="black"/>
<path d="M175.34 192.949C176.13 194.509 177.88 193.88 178.767 192.798C180.516 190.634 181.882 188.017 183.368 185.677C183.632 185.274 183.009 184.897 182.745 185.3C181.81 186.759 180.876 188.218 179.941 189.678C179.414 190.483 177.089 194.836 175.963 192.571C175.747 192.144 175.124 192.521 175.34 192.949Z" fill="black"/>
<path d="M169.78 191.716C170.499 192.118 171.385 192.521 172.176 192.118C172.584 191.892 172.751 191.54 172.943 191.137C173.279 190.458 173.614 189.929 174.237 189.502C174.621 189.225 174.261 188.571 173.878 188.847C173.303 189.25 172.823 189.753 172.488 190.407C172.248 190.885 172.104 191.464 171.481 191.514C171.026 191.565 170.523 191.263 170.139 191.062C169.756 190.86 169.372 191.489 169.78 191.716Z" fill="black"/>
<path d="M164.867 47.9413C164.028 49.7278 163.189 52.722 162.926 53.7034C162.542 55.1124 161.679 58.4086 161.2 62.7868C160.936 65.2023 160.649 67.8443 160.889 71.3418C161.008 73.0024 161.176 75.6193 162.111 78.8651C162.734 81.0794 163.645 84.2749 166.113 87.5459C168.27 90.3892 170.738 92.1757 172.703 93.2577C173.95 93.2828 175.459 93.2074 177.137 92.8802C180.157 92.2764 182.505 91.0938 184.087 90.1376C184.303 91.4209 184.59 92.7796 184.95 94.1887C185.693 97.1074 186.603 99.6739 187.514 101.888C188.496 101.712 189.671 101.41 190.917 100.806C194.871 98.8688 196.764 95.2958 197.436 93.8112C197.076 92.3518 196.788 90.7667 196.525 89.1311C195.614 83.0168 195.854 77.5567 196.429 73.1283C196.932 73.3044 197.747 73.5308 198.754 73.4805C200.719 73.3547 202.061 72.2224 202.732 71.6185C203.307 71.1153 205.919 68.6746 205.823 65.0513C205.799 64.1958 205.751 62.1074 204.338 60.9751C203.019 59.9435 201.246 60.3209 199.952 60.5977C198.466 60.9248 197.364 61.579 196.693 62.0319C197.196 60.2957 198.25 55.8421 196.693 50.6588C196.357 49.5517 194.128 42.5064 187.562 39.4618C178.647 35.2849 167.934 41.4747 164.867 47.9413Z" fill="white"/>
<path opacity="0.24" d="M191.948 48.0923C192.139 50.4323 192.283 53.8292 191.948 57.855C190.917 70.0585 186.316 78.538 185.117 80.6516C183.296 83.8723 180.181 88.5524 175.196 93.157C176.682 92.9557 178.383 92.6035 180.205 91.9241C185.213 90.0621 188.568 86.8666 190.39 84.7782C190.534 87.5711 190.989 90.9679 192.067 94.6919C192.547 96.2771 193.074 97.7365 193.625 99.0449C194.895 97.3087 196.141 95.5726 197.412 93.8112C197.148 92.1757 196.908 90.4395 196.741 88.6531C196.189 83.2433 196.189 78.2612 196.477 73.8328C197.555 73.8579 199.113 73.7573 200.767 73.0779C208.004 70.0585 212.126 58.0563 208.22 51.5143C208.052 51.2375 207.189 49.8284 205.416 48.5703C199.928 44.6954 192.954 47.6394 191.948 48.0923Z" fill="#9B9797"/>
<path d="M163.117 52.9485C162.638 51.2124 161.967 47.891 162.662 43.8148C162.878 42.5567 163.621 38.5057 166.257 35.3101C170.115 30.6552 174.956 31.5359 181.235 29.1707C185.213 27.6861 190.677 24.5661 196.213 17.2188C195.71 19.9363 195.207 22.6789 194.703 25.3964C195.566 25.648 198.466 26.3022 201.438 24.7673C206.375 22.226 206.806 16.0865 206.83 15.8098C207.429 17.2188 208.507 20.3389 208.028 24.3144C207.693 27.0319 206.758 29.07 206.087 30.3029C206.375 30.63 207.908 32.2907 209.682 32.0391C211.839 31.7372 213.852 28.6423 213.277 24.6415C213.756 26.1261 214.331 28.5668 214.187 31.561C213.995 35.2095 212.845 37.9521 212.078 39.4367C212.27 39.6128 213.492 40.7702 215.218 40.5438C216.728 40.3425 218.022 39.185 218.525 37.5495C218.405 39.2354 218.118 41.6761 217.183 44.469C215.913 48.2433 214.858 48.5452 214.331 51.2375C213.492 55.4647 215.649 56.8989 215.074 60.6732C214.595 63.8436 212.629 65.8314 210.137 68.3727C205.608 72.9773 200.407 75.4683 196.046 76.8522C196.237 75.4432 196.453 74.0341 196.645 72.625C197.196 72.9773 198.154 73.4554 199.353 73.4051C201.797 73.3044 203.331 71.0147 204.146 69.7818C205.08 68.3979 206.638 66.0327 205.799 63.4913C205.104 61.4281 203.259 60.5726 203.091 60.4971C200.934 59.5409 198.154 60.3964 196.357 62.7113C195.351 58.5596 194.368 54.4331 193.361 50.2814C189.958 48.0168 186.579 45.7774 183.176 43.5129C181.499 43.1858 176.921 42.5316 171.793 44.9219C166.616 47.3375 163.98 51.4388 163.117 52.9485Z" fill="#0A3871"/>
<path d="M162.758 52.8479C160.721 60.8493 159.499 69.354 161.368 77.5316C162.902 84.1743 166.784 91.748 173.398 93.9119C173.83 94.0629 174.022 93.3332 173.59 93.1822C166.952 91.0183 163.237 83.1427 161.871 76.5C160.265 68.6998 161.488 60.648 163.429 53.0492C163.573 52.5963 162.878 52.395 162.758 52.8479Z" fill="black"/>
<path d="M173.926 93.7861C184.974 92.6035 194.2 84.2246 196.788 72.8515C196.884 72.3734 196.213 72.1721 196.093 72.6502C193.577 83.6459 184.686 91.8738 173.926 93.0312C173.47 93.0816 173.446 93.8364 173.926 93.7861Z" fill="black"/>
<path d="M196.165 73.0527C201.102 76.2231 205.919 69.5804 206.231 64.9255C206.399 62.4596 205.32 60.5725 202.995 59.868C200.839 59.2138 198.49 59.8931 196.956 61.6041C196.645 61.9564 197.148 62.4848 197.46 62.1325C198.73 60.6983 200.647 60.0693 202.492 60.497C203.451 60.7235 204.505 61.277 205.056 62.1829C205.656 63.1642 205.584 64.5229 205.44 65.6049C204.865 69.5049 200.743 75.0908 196.525 72.3734C196.141 72.1469 195.758 72.8011 196.165 73.0527Z" fill="black"/>
<path d="M196.117 73.0024C195.183 79.9722 195.518 87.0427 197.1 93.8867C197.22 94.3648 197.915 94.1635 197.795 93.6854C196.237 86.9672 195.902 80.0226 196.812 73.2037C196.86 72.7256 196.165 72.5244 196.117 73.0024Z" fill="black"/>
<path d="M183.727 90.2383C184.47 94.3145 185.621 98.2649 187.202 102.089C187.394 102.542 188.017 102.14 187.825 101.712C186.268 97.9629 185.141 94.0629 184.422 90.037C184.327 89.5589 183.655 89.7602 183.727 90.2383Z" fill="black"/>
<path d="M187.706 102.19C192.331 101.41 196.237 98.0636 197.987 93.5093C198.155 93.0564 197.46 92.8551 197.292 93.308C195.638 97.6359 191.876 100.731 187.514 101.46C187.059 101.536 187.25 102.266 187.706 102.19Z" fill="black"/>
<path d="M184.303 91.1188C185.285 91.1692 185.956 90.4646 186.699 89.8607C187.682 89.0556 188.616 88.2001 189.479 87.2942C191.085 85.6084 192.379 83.6709 193.218 81.4567C193.385 81.0038 192.69 80.8025 192.523 81.2554C191.78 83.218 190.629 84.9542 189.239 86.4639C188.616 87.1684 187.945 87.7975 187.25 88.4265C186.483 89.1059 185.381 90.4143 184.303 90.364C183.847 90.3388 183.847 91.0937 184.303 91.1188Z" fill="black"/>
<path d="M184.351 90.7165C186.388 89.3326 188.281 87.7474 190.054 86.0113C190.39 85.6842 189.886 85.1306 189.551 85.4829C187.825 87.1939 185.98 88.7287 183.991 90.0875C183.584 90.3139 183.967 90.9681 184.351 90.7165Z" fill="black"/>
<path d="M170.259 54.3073C168.917 60.7236 168.15 67.2405 167.982 73.8077C167.982 74.1851 168.462 74.3109 168.653 74.009C169.588 72.449 170.523 70.8638 171.457 69.3037C171.697 68.9011 171.074 68.4986 170.834 68.9263C169.899 70.4863 168.965 72.0715 168.03 73.6316C168.246 73.707 168.486 73.7574 168.701 73.8329C168.869 67.3411 169.636 60.8745 170.954 54.5338C171.05 54.0305 170.355 53.8292 170.259 54.3073Z" fill="black"/>
<path d="M171.218 83.2685C170.642 82.1362 170.259 80.9284 170.163 79.6452C170.091 78.7393 170.283 75.0657 171.913 76.5251C172.775 77.3051 172.655 79.0161 172.679 80.1484C172.679 80.6768 172.679 81.2304 172.632 81.7588C172.608 82.1362 172.56 82.5136 172.488 82.8659C171.865 83.3188 171.385 83.2936 171.074 82.8156C170.762 82.4633 170.235 82.9917 170.571 83.3439C171.601 84.4511 172.943 84.5014 173.231 82.7652C173.446 81.5323 173.446 80.2239 173.35 78.991C173.279 78.0096 173.279 76.6006 172.584 75.8457C171.553 74.7386 170.091 75.7702 169.684 76.9528C168.941 79.0664 169.66 81.7336 170.618 83.6459C170.81 84.0736 171.433 83.6962 171.218 83.2685Z" fill="black"/>
<path d="M176.178 60.6228C176.897 64.1707 181.331 64.4474 182.649 61.1764C182.817 60.7235 182.122 60.5222 181.954 60.9751C180.876 63.6423 177.425 63.139 176.873 60.4216C176.778 59.9686 176.083 60.1448 176.178 60.6228Z" fill="black"/>
<path d="M174.764 51.8918C175.675 49.753 178.024 48.7214 180.181 49.1995C182.409 49.7027 184.111 51.5144 185.213 53.5021C185.453 53.9299 186.076 53.5525 185.836 53.1247C184.566 50.835 182.553 48.7969 179.965 48.3943C177.64 48.042 175.148 49.1995 174.141 51.4892C173.95 51.9673 174.573 52.3447 174.764 51.8918Z" fill="black"/>
<path d="M160.721 52.7221C161.368 51.3131 162.494 49.7782 164.148 49.8034C165.73 49.8285 166.88 51.2879 167.671 52.5712C167.91 52.9737 168.533 52.5963 168.294 52.1937C167.383 50.6589 166.017 49.0737 164.148 49.0485C162.231 49.0233 160.889 50.684 160.122 52.3447C159.906 52.7725 160.529 53.1499 160.721 52.7221Z" fill="black"/>
<path d="M164.963 64.1204C165.386 64.1204 165.73 62.4644 165.73 60.4216C165.73 58.3788 165.386 56.7228 164.963 56.7228C164.539 56.7228 164.196 58.3788 164.196 60.4216C164.196 62.4644 164.539 64.1204 164.963 64.1204Z" fill="black"/>
<path d="M167.167 103.926C167.096 104.857 167 106.141 166.952 107.625C166.736 112.708 166.928 116.558 167 117.589C167.191 120.936 167.623 125.314 168.629 130.396C167.671 131.554 166.233 133.265 164.387 135.278C160.889 139.128 159.091 141.09 156.215 143.128C153.004 145.393 150.775 146.097 149.577 146.425C148.067 146.802 146.629 147.154 144.88 146.752C142.028 146.072 140.326 143.858 139.703 143.003C138.122 140.889 137.762 138.826 137.115 134.8C136.636 131.856 136.54 129.616 136.396 125.289C136.324 123.225 136.228 120.709 136.276 117.338C136.324 113.538 136.516 109.034 137.043 104.002C137.283 101.737 137.618 98.9443 138.146 95.7739C137.738 95.17 137.307 94.5661 136.851 93.9371C136.372 93.2829 135.917 92.6538 135.437 92.0248C134.215 93.1067 133.017 94.2139 131.795 95.2958C131.483 95.4216 130.932 95.6229 130.261 95.5474C128.991 95.4216 128.248 94.4906 127.984 94.1887C126.81 92.7796 126.978 90.9932 127.026 90.6409C128.679 88.7538 130.333 86.8918 132.01 85.0047C132.034 83.9227 132.178 82.5136 132.586 80.9536C132.897 79.7962 133.281 78.84 133.64 78.0348C133.952 77.3806 134.383 76.6509 134.934 75.9213C135.917 74.5625 136.971 73.6064 137.834 72.9522C137.139 73.2793 136.971 73.2793 136.923 73.2289C136.803 73.0277 137.93 71.5431 139.512 71.3921C140.398 71.2915 141.093 71.6438 141.573 71.8702C142.315 72.2476 142.819 72.7257 143.13 73.078C144.616 71.7444 146.102 70.4108 147.588 69.1024C148.115 69.4295 148.642 69.8069 149.17 70.1844C150.392 71.065 151.494 71.9457 152.477 72.8012C152.117 73.2793 151.662 73.8077 151.087 74.3361C150.128 75.2167 149.17 75.7451 148.427 76.0974C148.882 76.2484 149.697 76.6006 150.104 77.431C150.512 78.2361 150.344 79.1168 150.104 80.2239C149.936 80.9788 149.721 81.5827 149.553 81.9852C149.649 83.042 149.697 84.4763 149.409 86.0866C148.954 88.7286 147.899 90.6912 147.18 91.8235C147.156 92.8048 147.132 94.3397 147.18 96.2268C147.372 104.002 148.451 108.556 149.146 114.293C149.553 117.564 149.96 122.42 149.841 128.535C150.392 128.157 151.183 127.553 152.069 126.773C154.322 124.785 155.76 122.798 157.653 119.879C159.523 117.036 160.745 114.922 162.398 112.104C163.429 110.267 165.082 107.474 167.167 103.926Z" fill="white"/>
<path opacity="0.24" d="M145.383 80.9536C144.88 82.111 144.376 83.2936 143.873 84.5014C142.411 88.1247 141.213 91.597 140.231 94.9183C140.015 100.152 139.895 104.53 139.799 107.701C139.679 112.506 139.967 118.243 140.494 129.717C140.71 134.447 140.902 137.316 143.01 139.404C145.215 141.568 148.283 141.619 150.008 141.619C159.211 141.593 166.089 133.366 167.982 130.975C165.418 135.555 162.494 138.549 160.505 140.31C158.252 142.298 155.353 144.789 150.847 146.022C147.037 147.079 145.311 146.852 144.856 146.752C141.573 145.921 139.751 143.053 139.104 142.072C137.546 139.631 137.043 137.089 136.756 131.629C136.468 126.018 136.78 124.534 136.875 116.809C136.947 109.437 136.684 107.348 137.211 102.24C137.522 99.2462 137.906 96.7803 138.217 95.1196C137.283 94.088 136.348 93.0564 135.414 92.0499C134.623 92.7796 133.808 93.4841 132.993 94.2138C132.466 94.6919 131.915 95.17 131.387 95.6229C130.908 95.6732 130.213 95.648 129.47 95.3209C127.553 94.4654 126.355 91.9744 126.954 91.1189C127.337 90.5402 128.344 90.9931 129.734 90.9931C132.13 91.0183 133.736 89.735 136.923 87.3195C139.176 85.5833 141.764 83.6459 145.383 80.9536Z" fill="#9B9797"/>
<path d="M166.856 103.725C161.32 111.752 157.222 120.961 150.224 127.805C149.889 128.132 150.392 128.66 150.727 128.333C157.773 121.439 161.895 112.179 167.479 104.102C167.767 103.725 167.143 103.348 166.856 103.725Z" fill="black"/>
<path d="M146.246 147.33C155.736 146.676 162.542 138.322 168.246 131.227C168.533 130.849 168.03 130.321 167.743 130.698C162.207 137.643 155.496 145.946 146.27 146.601C145.79 146.601 145.79 147.356 146.246 147.33Z" fill="black"/>
<path d="M141.74 76.4497C141.788 78.4375 143.034 80.1484 144.856 80.702C145.311 80.8278 145.503 80.0981 145.048 79.9723C143.538 79.5194 142.507 78.0852 142.459 76.4497C142.435 75.9716 141.716 75.9716 141.74 76.4497Z" fill="black"/>
<path d="M142.483 76.2232C142.723 74.0341 146.438 75.6193 147.444 76.1729C148.427 76.7013 149.409 77.2297 149.625 78.4877C149.793 79.4439 149.505 80.4504 149.265 81.3813C149.146 81.8594 149.841 82.0607 149.96 81.5826C150.296 80.3245 150.655 78.8903 150.152 77.6574C149.673 76.3993 148.355 75.8206 147.276 75.267C146.174 74.7135 144.976 74.3109 143.729 74.4619C143.226 74.5373 142.579 74.6632 142.172 75.0154C141.74 75.3677 141.836 75.6193 141.764 76.2483C141.716 76.7013 142.435 76.7013 142.483 76.2232Z" fill="black"/>
<path d="M149.026 81.2303C148.954 83.1426 149.361 85.0046 148.93 86.9169C148.522 88.6782 147.708 90.3137 146.893 91.8989C146.677 92.3267 147.3 92.7041 147.516 92.2763C148.355 90.6157 149.194 88.9298 149.625 87.1182C150.08 85.1556 149.673 83.2181 149.745 81.2303C149.769 80.7271 149.05 80.7271 149.026 81.2303Z" fill="black"/>
<path d="M146.893 91.924C146.342 105.184 149.96 118.168 149.385 131.428C149.361 131.906 150.08 131.906 150.104 131.428C150.679 118.168 147.061 105.184 147.612 91.924C147.636 91.446 146.917 91.446 146.893 91.924Z" fill="black"/>
<path d="M135.126 92.2008C135.845 93.2576 136.612 94.2641 137.475 95.195C137.786 95.5473 138.289 95.0189 137.978 94.6666C137.163 93.7608 136.42 92.8298 135.749 91.8234C135.461 91.4208 134.838 91.7982 135.126 92.2008Z" fill="black"/>
<path d="M137.882 94.9938C136.516 103.171 135.845 111.475 135.869 119.778C135.893 123.905 136.085 128.056 136.468 132.158C136.78 135.655 137.163 139.329 138.912 142.399C140.494 145.192 143.274 147.305 146.438 147.23C146.893 147.204 146.893 146.45 146.438 146.475C142.004 146.601 139.152 142.449 138.122 138.373C136.971 133.894 136.875 129.013 136.708 124.408C136.348 114.645 136.995 104.832 138.601 95.2203C138.649 94.717 137.954 94.5158 137.882 94.9938Z" fill="black"/>
<path d="M133.353 83.6962C131.1 85.684 128.919 87.7724 126.858 89.9615C126.522 90.3137 127.05 90.8421 127.361 90.4899C129.446 88.3008 131.603 86.2123 133.856 84.2246C134.215 83.9226 133.712 83.3942 133.353 83.6962Z" fill="black"/>
<path d="M126.642 90.6408C126.283 93.5596 128.392 96.0255 131.196 96.0003C131.651 96.0003 131.651 95.2454 131.196 95.2454C128.775 95.2706 127.05 93.1319 127.361 90.6408C127.433 90.1628 126.714 90.1628 126.642 90.6408Z" fill="black"/>
<path d="M127.313 90.4648C129.83 90.5402 131.579 92.9055 131.052 95.472C130.956 95.95 131.651 96.1513 131.747 95.6732C132.394 92.5783 130.333 89.8105 127.313 89.7099C126.858 89.7099 126.858 90.4648 127.313 90.4648Z" fill="black"/>
<path d="M132.034 95.5474C134.766 92.9306 137.546 90.3389 140.207 87.6466C141.429 86.4137 142.603 85.1556 143.706 83.7968C144.305 83.0671 145.814 81.6329 145.838 80.6265C145.838 80.5006 145.767 80.3497 145.671 80.2994C145.623 80.2742 145.575 80.249 145.551 80.249C145.407 80.1735 145.215 80.1735 145.119 80.2994C145.095 80.3245 145.072 80.3497 145.048 80.4C144.76 80.7774 145.263 81.3058 145.551 80.9284C145.575 80.9032 145.599 80.8781 145.623 80.8277C145.479 80.8529 145.335 80.8781 145.191 80.8781C145.143 80.6516 145.072 80.6516 144.976 80.9032C144.856 81.0794 144.736 81.2555 144.592 81.4316C144.305 81.8091 144.041 82.1865 143.729 82.5639C143.25 83.193 142.723 83.7968 142.22 84.4007C141.165 85.6085 140.063 86.7408 138.936 87.8479C136.492 90.2634 134 92.6035 131.531 94.9938C131.172 95.3461 131.699 95.8745 132.034 95.5474Z" fill="black"/>
<path d="M132.346 85.1052C132.514 83.8975 132.681 82.6897 132.849 81.482C132.969 80.5761 133.065 79.5697 133.544 78.7645C134.647 76.9025 136.204 78.2361 137.043 79.4942C137.403 80.0226 137.738 80.6013 138.098 81.1297C138.289 81.4316 139.224 82.5136 139.104 82.891C139.224 82.7904 139.344 82.7149 139.44 82.6142C139.392 82.6142 139.368 82.6142 139.32 82.6142C138.865 82.5891 138.865 83.3439 139.32 83.3691C139.368 83.3691 139.392 83.3691 139.44 83.3691C139.607 83.3691 139.751 83.2433 139.775 83.0923C139.943 82.4633 139.536 82.0858 139.224 81.5826C138.625 80.6516 138.05 79.6955 137.427 78.7896C136.78 77.8587 135.941 76.9528 134.742 77.0786C133.592 77.2044 132.897 78.1354 132.538 79.2174C131.939 81.0039 131.891 83.042 131.627 84.904C131.579 85.382 132.274 85.5833 132.346 85.1052Z" fill="black"/>
<path d="M133.472 82.2621C134.119 83.5957 135.198 84.9544 136.732 85.055C138.002 85.1557 139.2 84.4008 139.536 83.0924C139.655 82.6143 138.96 82.413 138.841 82.8911C138.529 84.0989 137.259 84.5518 136.204 84.1744C135.198 83.7969 134.551 82.866 134.095 81.9098C133.88 81.4569 133.257 81.8343 133.472 82.2621Z" fill="black"/>
<path d="M134.359 77.3555C134.479 76.1226 135.821 75.7955 136.732 76.1226C137.69 76.4497 138.433 77.3555 139.104 78.0852C139.631 78.6639 140.662 79.4691 140.806 80.2743C140.997 81.3562 139.703 82.0859 138.841 82.3627C138.409 82.4885 138.577 83.2182 139.032 83.0924C140.087 82.7653 141.621 81.784 141.788 80.4756C141.86 79.9472 141.549 79.6704 141.213 79.293C140.542 78.5381 139.895 77.8084 139.2 77.0787C138.265 76.0722 137.067 74.9903 135.629 75.2419C134.551 75.418 133.76 76.1729 133.64 77.3303C133.592 77.8336 134.311 77.8336 134.359 77.3555Z" fill="black"/>
<path d="M135.653 75.4935C135.989 75.0909 136.156 74.5625 136.468 74.1599C137.235 73.1534 138.433 74.0844 139.224 74.6883C140.758 75.8206 142.387 77.8838 140.997 79.8465C140.734 80.2491 141.357 80.6265 141.621 80.2239C143.106 78.1103 141.644 75.6696 139.943 74.3109C139.152 73.6818 137.954 72.5496 136.875 72.8767C135.917 73.1534 135.749 74.3109 135.15 74.9902C134.838 75.3174 135.342 75.8457 135.653 75.4935Z" fill="black"/>
<path d="M138.074 73.2037C138.912 72.1218 140.015 70.9895 141.309 72.1218C142.172 72.8515 142.723 73.8831 143.034 74.9651C143.178 75.418 143.849 75.2418 143.729 74.7638C143.322 73.3044 142.387 71.6185 140.997 71.0147C139.583 70.4108 138.409 71.5934 137.57 72.6753C137.283 73.0276 137.786 73.5812 138.074 73.2037Z" fill="black"/>
<path d="M143.37 73.3044C144.856 71.9708 146.342 70.6372 147.827 69.3288C148.187 69.0017 147.66 68.4733 147.324 68.8004C145.838 70.134 144.353 71.4676 142.867 72.776C142.507 73.1031 143.034 73.6315 143.37 73.3044Z" fill="black"/>
<path d="M148.666 76.5251C150.08 75.4431 151.446 74.2857 152.716 73.0276C153.052 72.7005 152.549 72.1721 152.213 72.4992C150.967 73.707 149.673 74.8393 148.307 75.8709C147.923 76.1477 148.283 76.8019 148.666 76.5251Z" fill="black"/>
<path d="M159.427 74.638C167.421 74.638 173.902 67.8337 173.902 59.4403C173.902 51.0468 167.421 44.2426 159.427 44.2426C151.432 44.2426 144.952 51.0468 144.952 59.4403C144.952 67.8337 151.432 74.638 159.427 74.638Z" stroke="black" stroke-width="3" stroke-miterlimit="10"/>
<path d="M150.655 61.3022C155.976 57.7292 161.416 54.3576 166.976 51.1872C167.383 50.9607 167.024 50.3065 166.616 50.533C161.056 53.6782 155.616 57.0499 150.296 60.648C149.913 60.9248 150.272 61.579 150.655 61.3022Z" fill="black"/>
<path d="M151.254 67.8946C155.64 64.5229 160.074 61.277 164.603 58.1066C164.987 57.8299 164.627 57.1757 164.244 57.4524C159.738 60.6228 155.281 63.8939 150.895 67.2404C150.512 67.5171 150.871 68.1714 151.254 67.8946Z" fill="black"/>
</g>
<defs>
<clipPath id="clip0_31_25">
<rect width="291" height="277" fill="white"/>
</clipPath>
</defs>
</svg>
