<svg width="533" height="533" viewBox="0 0 533 533" fill="none" xmlns="http://www.w3.org/2000/svg">
<path fill-rule="evenodd" clip-rule="evenodd" d="M266.5 0C413.688 0 533 122.321 533 273.24C533 393.938 456.728 496.328 350.901 532.492C337.389 535.184 332.592 526.651 332.592 519.375C332.592 510.367 332.912 480.947 332.912 444.383C332.912 418.906 324.384 402.277 314.817 393.803C374.166 387.034 436.527 363.926 436.527 258.978C436.527 229.13 426.187 204.774 409.077 185.639C411.849 178.737 420.99 150.944 406.466 113.314C406.466 113.314 384.133 105.993 333.258 141.331C311.965 135.281 289.152 132.237 266.5 132.131C243.847 132.237 221.062 135.281 199.795 141.331C148.867 105.993 126.481 113.314 126.481 113.314C112.01 150.944 121.151 178.737 123.896 185.639C106.867 204.774 96.4464 229.13 96.4464 258.978C96.4464 363.659 158.674 387.122 217.864 394.024C210.242 400.846 203.34 412.882 200.941 430.551C185.751 437.533 147.161 449.617 123.389 407.856C123.389 407.856 109.292 381.603 82.5351 379.684C82.5351 379.684 56.5513 379.339 80.7228 396.288C80.7228 396.288 98.1786 404.683 110.304 436.263C110.304 436.263 125.948 485.032 200.088 468.509C200.222 491.348 200.461 512.873 200.461 519.375C200.461 526.597 195.558 535.05 182.259 532.518C76.3522 496.407 0 393.965 0 273.24C0 122.321 119.339 0 266.5 0Z" fill="white"/>
</svg>
