<svg width="533" height="533" viewBox="0 0 533 533" fill="none" xmlns="http://www.w3.org/2000/svg">
<path d="M533 458.972C533 499.865 499.865 533 458.972 533H74.0278C33.1496 533 0 499.865 0 458.972V74.0278C0 33.1348 33.1496 0 74.0278 0H458.972C499.865 0 533 33.1348 533 74.0278V458.972Z" fill="#0288D1"/>
<path d="M89 198.5H162.958V428H89V198.5ZM125.757 171.5H125.343C103.274 171.5 89 156.488 89 137.736C89 118.58 103.718 104 126.186 104C148.684 104 162.544 118.58 162.958 137.736C162.958 156.474 148.684 171.5 125.757 171.5ZM444 428H370.042V305.163C370.042 275.49 351.922 255.24 322.827 255.24C300.624 255.24 288.614 268.903 282.786 282.106C280.656 286.831 281.292 299.899 281.292 306.5V428H207.333V198.5H281.292V233.816C291.956 218.75 308.656 198.5 351.375 198.5C404.299 198.5 443.985 228.875 443.985 296.699L444 428Z" fill="white"/>
</svg>
