<svg width="333" height="120" viewBox="0 0 333 120" fill="none" xmlns="http://www.w3.org/2000/svg">
<path d="M65.9915 5.54545V23H62.804L55.2102 12.0142H55.0824V23H51.392V5.54545H54.6307L62.1648 16.5227H62.3182V5.54545H65.9915ZM68.9723 23V9.90909H72.603V23H68.9723ZM70.7962 8.22159C70.2564 8.22159 69.7933 8.04261 69.407 7.68466C69.0263 7.32102 68.8359 6.88636 68.8359 6.38068C68.8359 5.88068 69.0263 5.4517 69.407 5.09375C69.7933 4.73011 70.2564 4.54829 70.7962 4.54829C71.3359 4.54829 71.7962 4.73011 72.1768 5.09375C72.5632 5.4517 72.7564 5.88068 72.7564 6.38068C72.7564 6.88636 72.5632 7.32102 72.1768 7.68466C71.7962 8.04261 71.3359 8.22159 70.7962 8.22159ZM79.142 15.4318V23H75.5114V9.90909H78.9716V12.2188H79.125C79.4148 11.4574 79.9006 10.8551 80.5824 10.4119C81.2642 9.96307 82.0909 9.73864 83.0625 9.73864C83.9716 9.73864 84.7642 9.9375 85.4403 10.3352C86.1165 10.733 86.642 11.3011 87.017 12.0398C87.392 12.7727 87.5795 13.6477 87.5795 14.6648V23H83.9489V15.3125C83.9545 14.5114 83.75 13.8864 83.3352 13.4375C82.9205 12.983 82.3494 12.7557 81.6222 12.7557C81.1335 12.7557 80.7017 12.8608 80.3267 13.071C79.9574 13.2812 79.6676 13.5881 79.4574 13.9915C79.2528 14.3892 79.1477 14.8693 79.142 15.4318ZM96.3388 28.1818C95.1626 28.1818 94.1541 28.0199 93.3132 27.696C92.478 27.3778 91.8132 26.9432 91.3189 26.392C90.8246 25.8409 90.5036 25.2216 90.3558 24.5341L93.7138 24.0824C93.8161 24.3438 93.978 24.5881 94.1996 24.8153C94.4212 25.0426 94.7138 25.2244 95.0774 25.3608C95.4467 25.5028 95.8956 25.5739 96.424 25.5739C97.2138 25.5739 97.8643 25.3807 98.3757 24.9943C98.8928 24.6136 99.1513 23.9744 99.1513 23.0767V20.6818H98.9979C98.8388 21.0455 98.6001 21.3892 98.282 21.7131C97.9638 22.0369 97.5547 22.3011 97.0547 22.5057C96.5547 22.7102 95.9581 22.8125 95.2649 22.8125C94.282 22.8125 93.3871 22.5852 92.5803 22.1307C91.7791 21.6705 91.1399 20.9687 90.6626 20.0256C90.1911 19.0767 89.9553 17.8778 89.9553 16.429C89.9553 14.946 90.1967 13.7074 90.6797 12.7131C91.1626 11.7187 91.8047 10.9744 92.6058 10.4801C93.4126 9.9858 94.2962 9.73864 95.2564 9.73864C95.9893 9.73864 96.603 9.86364 97.0973 10.1136C97.5916 10.358 97.9893 10.6648 98.2905 11.0341C98.5973 11.3977 98.8331 11.7557 98.9979 12.108H99.1342V9.90909H102.739V23.1278C102.739 24.2415 102.467 25.1733 101.921 25.9233C101.376 26.6733 100.62 27.2358 99.6541 27.6108C98.6939 27.9915 97.5888 28.1818 96.3388 28.1818ZM96.4155 20.0852C97.0007 20.0852 97.495 19.9403 97.8984 19.6506C98.3075 19.3551 98.62 18.9347 98.8359 18.3892C99.0575 17.8381 99.1683 17.179 99.1683 16.4119C99.1683 15.6449 99.0604 14.9801 98.8445 14.4176C98.6286 13.8494 98.3161 13.4091 97.907 13.0966C97.4979 12.7841 97.0007 12.6278 96.4155 12.6278C95.8189 12.6278 95.3161 12.7898 94.907 13.1136C94.4979 13.4318 94.1882 13.875 93.978 14.4432C93.7678 15.0114 93.6626 15.6676 93.6626 16.4119C93.6626 17.1676 93.7678 17.821 93.978 18.3722C94.1939 18.9176 94.5036 19.3409 94.907 19.642C95.3161 19.9375 95.8189 20.0852 96.4155 20.0852ZM114.023 17.4261V9.90909H117.654V23H114.168V20.6222H114.032C113.737 21.3892 113.245 22.0057 112.558 22.4716C111.876 22.9375 111.043 23.1705 110.06 23.1705C109.185 23.1705 108.415 22.9716 107.751 22.5739C107.086 22.1761 106.566 21.6108 106.191 20.8778C105.822 20.1449 105.634 19.267 105.629 18.2443V9.90909H109.259V17.5966C109.265 18.3693 109.472 18.9801 109.881 19.429C110.29 19.8778 110.839 20.1023 111.526 20.1023C111.964 20.1023 112.373 20.0028 112.754 19.804C113.134 19.5994 113.441 19.2983 113.674 18.9006C113.913 18.5028 114.029 18.0114 114.023 17.4261ZM110.35 8.22159L112.157 4.34375H115.515L112.915 8.22159H110.35ZM124.189 15.4318V23H120.558V9.90909H124.018V12.2188H124.172C124.462 11.4574 124.947 10.8551 125.629 10.4119C126.311 9.96307 127.138 9.73864 128.109 9.73864C129.018 9.73864 129.811 9.9375 130.487 10.3352C131.163 10.733 131.689 11.3011 132.064 12.0398C132.439 12.7727 132.626 13.6477 132.626 14.6648V23H128.996V15.3125C129.001 14.5114 128.797 13.8864 128.382 13.4375C127.967 12.983 127.396 12.7557 126.669 12.7557C126.18 12.7557 125.749 12.8608 125.374 13.071C125.004 13.2812 124.714 13.5881 124.504 13.9915C124.3 14.3892 124.195 14.8693 124.189 15.4318ZM141.043 23V9.90909H144.503V12.2188H144.656C144.929 11.4517 145.384 10.8466 146.02 10.4034C146.656 9.96023 147.418 9.73864 148.304 9.73864C149.202 9.73864 149.966 9.96307 150.597 10.4119C151.227 10.8551 151.648 11.4574 151.858 12.2188H151.994C152.261 11.4688 152.744 10.8693 153.443 10.4205C154.148 9.96591 154.98 9.73864 155.94 9.73864C157.162 9.73864 158.153 10.1278 158.915 10.9062C159.682 11.679 160.065 12.7756 160.065 14.196V23H156.443V14.9119C156.443 14.1847 156.25 13.6392 155.864 13.2756C155.477 12.9119 154.994 12.7301 154.415 12.7301C153.756 12.7301 153.241 12.9403 152.872 13.3608C152.503 13.7756 152.318 14.3239 152.318 15.0057V23H148.798V14.8352C148.798 14.1932 148.614 13.6818 148.244 13.3011C147.881 12.9205 147.401 12.7301 146.804 12.7301C146.401 12.7301 146.037 12.8324 145.713 13.0369C145.395 13.2358 145.142 13.517 144.955 13.8807C144.767 14.2386 144.673 14.6591 144.673 15.142V23H141.043ZM168.899 23.2557C167.553 23.2557 166.393 22.983 165.422 22.4375C164.456 21.8864 163.712 21.108 163.189 20.1023C162.666 19.0909 162.405 17.8949 162.405 16.5142C162.405 15.1676 162.666 13.9858 163.189 12.9688C163.712 11.9517 164.447 11.1591 165.396 10.5909C166.351 10.0227 167.47 9.73864 168.754 9.73864C169.618 9.73864 170.422 9.87784 171.166 10.1562C171.916 10.429 172.57 10.8409 173.126 11.392C173.689 11.9432 174.126 12.6364 174.439 13.4716C174.751 14.3011 174.908 15.2727 174.908 16.3864V17.3835H163.854V15.1335H171.49C171.49 14.6108 171.376 14.1477 171.149 13.7443C170.922 13.3409 170.607 13.0256 170.203 12.7983C169.805 12.5653 169.342 12.4489 168.814 12.4489C168.263 12.4489 167.774 12.5767 167.348 12.8324C166.928 13.0824 166.598 13.4205 166.359 13.8466C166.121 14.267 165.999 14.7358 165.993 15.2528V17.392C165.993 18.0398 166.112 18.5994 166.351 19.071C166.595 19.5426 166.939 19.9062 167.382 20.1619C167.825 20.4176 168.351 20.5455 168.959 20.5455C169.362 20.5455 169.732 20.4886 170.067 20.375C170.402 20.2614 170.689 20.0909 170.928 19.8636C171.166 19.6364 171.348 19.358 171.473 19.0284L174.831 19.25C174.661 20.0568 174.311 20.7614 173.783 21.3636C173.26 21.9602 172.584 22.4261 171.754 22.7614C170.93 23.0909 169.979 23.2557 168.899 23.2557ZM180.908 15.4318V23H177.277V9.90909H180.737V12.2188H180.891C181.18 11.4574 181.666 10.8551 182.348 10.4119C183.03 9.96307 183.857 9.73864 184.828 9.73864C185.737 9.73864 186.53 9.9375 187.206 10.3352C187.882 10.733 188.408 11.3011 188.783 12.0398C189.158 12.7727 189.345 13.6477 189.345 14.6648V23H185.714V15.3125C185.72 14.5114 185.516 13.8864 185.101 13.4375C184.686 12.983 184.115 12.7557 183.388 12.7557C182.899 12.7557 182.467 12.8608 182.092 13.071C181.723 13.2812 181.433 13.5881 181.223 13.9915C181.018 14.3892 180.913 14.8693 180.908 15.4318ZM203.099 13.642L199.775 13.8466C199.718 13.5625 199.596 13.3068 199.408 13.0795C199.221 12.8466 198.974 12.6619 198.667 12.5256C198.366 12.3835 198.005 12.3125 197.585 12.3125C197.022 12.3125 196.548 12.4318 196.161 12.6705C195.775 12.9034 195.582 13.2159 195.582 13.608C195.582 13.9205 195.707 14.1847 195.957 14.4006C196.207 14.6165 196.636 14.7898 197.244 14.9205L199.613 15.3977C200.886 15.6591 201.835 16.0795 202.46 16.6591C203.085 17.2386 203.397 18 203.397 18.9432C203.397 19.8011 203.144 20.554 202.638 21.2017C202.138 21.8494 201.451 22.3551 200.576 22.7188C199.707 23.0767 198.704 23.2557 197.567 23.2557C195.835 23.2557 194.454 22.8949 193.425 22.1733C192.403 21.446 191.803 20.4574 191.627 19.2074L195.198 19.0199C195.306 19.5483 195.567 19.9517 195.982 20.2301C196.397 20.5028 196.928 20.6392 197.576 20.6392C198.212 20.6392 198.724 20.517 199.11 20.2727C199.502 20.0227 199.701 19.7017 199.707 19.3097C199.701 18.9801 199.562 18.7102 199.289 18.5C199.016 18.2841 198.596 18.1193 198.028 18.0057L195.761 17.554C194.482 17.2983 193.531 16.8551 192.906 16.2244C192.286 15.5937 191.977 14.7898 191.977 13.8125C191.977 12.9716 192.204 12.2472 192.658 11.6392C193.119 11.0312 193.763 10.5625 194.593 10.233C195.428 9.90341 196.406 9.73864 197.525 9.73864C199.178 9.73864 200.479 10.0881 201.428 10.7869C202.383 11.4858 202.94 12.4375 203.099 13.642ZM209.416 23.2472C208.581 23.2472 207.837 23.1023 207.183 22.8125C206.53 22.517 206.013 22.0824 205.632 21.5085C205.257 20.929 205.07 20.2074 205.07 19.3438C205.07 18.6165 205.203 18.0057 205.47 17.5114C205.737 17.017 206.101 16.6193 206.561 16.3182C207.021 16.017 207.544 15.7898 208.129 15.6364C208.72 15.483 209.339 15.375 209.987 15.3125C210.749 15.233 211.362 15.1591 211.828 15.0909C212.294 15.017 212.632 14.9091 212.842 14.767C213.053 14.625 213.158 14.4148 213.158 14.1364V14.0852C213.158 13.5455 212.987 13.1278 212.646 12.8324C212.311 12.5369 211.834 12.3892 211.214 12.3892C210.561 12.3892 210.041 12.5341 209.655 12.8239C209.268 13.108 209.013 13.4659 208.888 13.8977L205.53 13.625C205.7 12.8295 206.036 12.142 206.536 11.5625C207.036 10.9773 207.68 10.5284 208.47 10.2159C209.266 9.89773 210.186 9.73864 211.232 9.73864C211.959 9.73864 212.655 9.82386 213.32 9.99432C213.99 10.1648 214.584 10.429 215.101 10.7869C215.624 11.1449 216.036 11.6051 216.337 12.1676C216.638 12.7244 216.788 13.392 216.788 14.1705V23H213.345V21.1847H213.243C213.033 21.5938 212.751 21.9545 212.399 22.267C212.047 22.5739 211.624 22.8153 211.129 22.9915C210.635 23.1619 210.064 23.2472 209.416 23.2472ZM210.456 20.7415C210.99 20.7415 211.462 20.6364 211.871 20.4261C212.28 20.2102 212.601 19.9205 212.834 19.5568C213.067 19.1932 213.183 18.7812 213.183 18.321V16.9318C213.07 17.0057 212.913 17.0739 212.714 17.1364C212.521 17.1932 212.303 17.2472 212.058 17.2983C211.814 17.3437 211.57 17.3864 211.325 17.4261C211.081 17.4602 210.859 17.4915 210.661 17.5199C210.234 17.5824 209.862 17.6818 209.544 17.8182C209.226 17.9545 208.979 18.1392 208.803 18.3722C208.626 18.5994 208.538 18.8835 208.538 19.2244C208.538 19.7188 208.717 20.0966 209.075 20.358C209.439 20.6136 209.899 20.7415 210.456 20.7415ZM219.605 9.90909H223.236V23.6477C223.236 24.6591 223.037 25.4773 222.639 26.1023C222.241 26.7273 221.67 27.1847 220.926 27.4744C220.188 27.7642 219.304 27.9091 218.276 27.9091C218.151 27.9091 218.031 27.9063 217.918 27.9006C217.798 27.9006 217.673 27.8977 217.543 27.892V25.054C217.639 25.0597 217.724 25.0625 217.798 25.0625C217.866 25.0682 217.94 25.071 218.02 25.071C218.605 25.071 219.014 24.946 219.247 24.696C219.486 24.4517 219.605 24.0824 219.605 23.5881V9.90909ZM221.412 8.22159C220.878 8.22159 220.418 8.04261 220.031 7.68466C219.645 7.32102 219.452 6.88636 219.452 6.38068C219.452 5.88068 219.645 5.4517 220.031 5.09375C220.418 4.73011 220.878 4.54829 221.412 4.54829C221.957 4.54829 222.42 4.73011 222.801 5.09375C223.188 5.4517 223.381 5.88068 223.381 6.38068C223.381 6.88636 223.188 7.32102 222.801 7.68466C222.42 8.04261 221.957 8.22159 221.412 8.22159ZM232.11 23.2557C230.763 23.2557 229.604 22.983 228.633 22.4375C227.667 21.8864 226.923 21.108 226.4 20.1023C225.877 19.0909 225.616 17.8949 225.616 16.5142C225.616 15.1676 225.877 13.9858 226.4 12.9688C226.923 11.9517 227.658 11.1591 228.607 10.5909C229.562 10.0227 230.681 9.73864 231.965 9.73864C232.829 9.73864 233.633 9.87784 234.377 10.1562C235.127 10.429 235.781 10.8409 236.337 11.392C236.9 11.9432 237.337 12.6364 237.65 13.4716C237.962 14.3011 238.119 15.2727 238.119 16.3864V17.3835H227.065V15.1335H234.701C234.701 14.6108 234.587 14.1477 234.36 13.7443C234.133 13.3409 233.817 13.0256 233.414 12.7983C233.016 12.5653 232.553 12.4489 232.025 12.4489C231.474 12.4489 230.985 12.5767 230.559 12.8324C230.138 13.0824 229.809 13.4205 229.57 13.8466C229.332 14.267 229.21 14.7358 229.204 15.2528V17.392C229.204 18.0398 229.323 18.5994 229.562 19.071C229.806 19.5426 230.15 19.9062 230.593 20.1619C231.036 20.4176 231.562 20.5455 232.17 20.5455C232.573 20.5455 232.942 20.4886 233.278 20.375C233.613 20.2614 233.9 20.0909 234.138 19.8636C234.377 19.6364 234.559 19.358 234.684 19.0284L238.042 19.25C237.871 20.0568 237.522 20.7614 236.994 21.3636C236.471 21.9602 235.795 22.4261 234.965 22.7614C234.141 23.0909 233.19 23.2557 232.11 23.2557ZM253.082 9.90909V12.6364H245.003V9.90909H253.082ZM246.852 23V8.96307C246.852 8.0142 247.037 7.22727 247.406 6.60227C247.781 5.97727 248.293 5.50852 248.94 5.19602C249.588 4.88352 250.324 4.72727 251.148 4.72727C251.705 4.72727 252.213 4.76989 252.673 4.85511C253.139 4.94034 253.486 5.01705 253.713 5.08523L253.065 7.8125C252.923 7.76705 252.747 7.72443 252.537 7.68466C252.332 7.64489 252.122 7.625 251.906 7.625C251.372 7.625 251 7.75 250.79 8C250.58 8.24432 250.474 8.58807 250.474 9.03125V23H246.852ZM263.695 17.4261V9.90909H267.326V23H263.84V20.6222H263.704C263.408 21.3892 262.917 22.0057 262.229 22.4716C261.548 22.9375 260.715 23.1705 259.732 23.1705C258.857 23.1705 258.087 22.9716 257.423 22.5739C256.758 22.1761 256.238 21.6108 255.863 20.8778C255.494 20.1449 255.306 19.267 255.3 18.2443V9.90909H258.931V17.5966C258.937 18.3693 259.144 18.9801 259.553 19.429C259.962 19.8778 260.511 20.1023 261.198 20.1023C261.636 20.1023 262.045 20.0028 262.425 19.804C262.806 19.5994 263.113 19.2983 263.346 18.9006C263.585 18.5028 263.701 18.0114 263.695 17.4261ZM276.196 23.2557C274.849 23.2557 273.69 22.983 272.719 22.4375C271.753 21.8864 271.009 21.108 270.486 20.1023C269.963 19.0909 269.702 17.8949 269.702 16.5142C269.702 15.1676 269.963 13.9858 270.486 12.9688C271.009 11.9517 271.744 11.1591 272.693 10.5909C273.648 10.0227 274.767 9.73864 276.051 9.73864C276.915 9.73864 277.719 9.87784 278.463 10.1562C279.213 10.429 279.866 10.8409 280.423 11.392C280.986 11.9432 281.423 12.6364 281.736 13.4716C282.048 14.3011 282.205 15.2727 282.205 16.3864V17.3835H271.151V15.1335H278.787C278.787 14.6108 278.673 14.1477 278.446 13.7443C278.219 13.3409 277.903 13.0256 277.5 12.7983C277.102 12.5653 276.639 12.4489 276.111 12.4489C275.56 12.4489 275.071 12.5767 274.645 12.8324C274.224 13.0824 273.895 13.4205 273.656 13.8466C273.418 14.267 273.295 14.7358 273.29 15.2528V17.392C273.29 18.0398 273.409 18.5994 273.648 19.071C273.892 19.5426 274.236 19.9062 274.679 20.1619C275.122 20.4176 275.648 20.5455 276.256 20.5455C276.659 20.5455 277.028 20.4886 277.364 20.375C277.699 20.2614 277.986 20.0909 278.224 19.8636C278.463 19.6364 278.645 19.358 278.77 19.0284L282.128 19.25C281.957 20.0568 281.608 20.7614 281.08 21.3636C280.557 21.9602 279.881 22.4261 279.051 22.7614C278.227 23.0909 277.276 23.2557 276.196 23.2557ZM106.075 52.2557C104.728 52.2557 103.569 51.983 102.598 51.4375C101.632 50.8864 100.887 50.108 100.365 49.1023C99.842 48.0909 99.5806 46.8949 99.5806 45.5142C99.5806 44.1676 99.842 42.9858 100.365 41.9688C100.887 40.9517 101.623 40.1591 102.572 39.5909C103.527 39.0227 104.646 38.7386 105.93 38.7386C106.794 38.7386 107.598 38.8778 108.342 39.1562C109.092 39.429 109.745 39.8409 110.302 40.392C110.865 40.9432 111.302 41.6364 111.615 42.4716C111.927 43.3011 112.083 44.2727 112.083 45.3864V46.3835H101.029V44.1335H108.666C108.666 43.6108 108.552 43.1477 108.325 42.7443C108.098 42.3409 107.782 42.0256 107.379 41.7983C106.981 41.5653 106.518 41.4489 105.99 41.4489C105.439 41.4489 104.95 41.5767 104.524 41.8324C104.103 42.0824 103.774 42.4205 103.535 42.8466C103.297 43.267 103.174 43.7358 103.169 44.2528V46.392C103.169 47.0398 103.288 47.5994 103.527 48.071C103.771 48.5426 104.115 48.9062 104.558 49.1619C105.001 49.4176 105.527 49.5455 106.135 49.5455C106.538 49.5455 106.907 49.4886 107.243 49.375C107.578 49.2614 107.865 49.0909 108.103 48.8636C108.342 48.6364 108.524 48.358 108.649 48.0284L112.007 48.25C111.836 49.0568 111.487 49.7614 110.958 50.3636C110.436 50.9602 109.76 51.4261 108.93 51.7614C108.106 52.0909 107.154 52.2557 106.075 52.2557ZM118.083 44.4318V52H114.453V38.9091H117.913V41.2188H118.066C118.356 40.4574 118.842 39.8551 119.524 39.4119C120.206 38.9631 121.032 38.7386 122.004 38.7386C122.913 38.7386 123.706 38.9375 124.382 39.3352C125.058 39.733 125.583 40.3011 125.958 41.0398C126.333 41.7727 126.521 42.6477 126.521 43.6648V52H122.89V44.3125C122.896 43.5114 122.691 42.8864 122.277 42.4375C121.862 41.983 121.291 41.7557 120.564 41.7557C120.075 41.7557 119.643 41.8608 119.268 42.071C118.899 42.2812 118.609 42.5881 118.399 42.9915C118.194 43.3892 118.089 43.8693 118.083 44.4318ZM135.297 52.2557C133.956 52.2557 132.803 51.9716 131.837 51.4034C130.877 50.8295 130.138 50.0341 129.621 49.017C129.11 48 128.854 46.8295 128.854 45.5057C128.854 44.1648 129.113 42.9886 129.63 41.9773C130.152 40.9602 130.894 40.1676 131.854 39.5994C132.814 39.0256 133.956 38.7386 135.28 38.7386C136.422 38.7386 137.422 38.946 138.28 39.3608C139.138 39.7756 139.817 40.358 140.317 41.108C140.817 41.858 141.093 42.7386 141.144 43.75H137.718C137.621 43.0966 137.365 42.571 136.951 42.1733C136.542 41.7699 136.005 41.5682 135.34 41.5682C134.777 41.5682 134.286 41.7216 133.865 42.0284C133.451 42.3295 133.127 42.7699 132.894 43.3494C132.661 43.929 132.544 44.6307 132.544 45.4545C132.544 46.2898 132.658 47 132.885 47.5852C133.118 48.1705 133.445 48.6165 133.865 48.9233C134.286 49.2301 134.777 49.3835 135.34 49.3835C135.755 49.3835 136.127 49.2983 136.456 49.1278C136.792 48.9574 137.067 48.7102 137.283 48.3864C137.505 48.0568 137.65 47.6619 137.718 47.2017H141.144C141.087 48.2017 140.814 49.0824 140.326 49.8438C139.843 50.5994 139.175 51.1903 138.323 51.6165C137.471 52.0426 136.462 52.2557 135.297 52.2557ZM149.383 52.2557C148.059 52.2557 146.914 51.9744 145.949 51.4119C144.988 50.8437 144.247 50.054 143.724 49.0426C143.201 48.0256 142.94 46.8466 142.94 45.5057C142.94 44.1534 143.201 42.9716 143.724 41.9602C144.247 40.9432 144.988 40.1534 145.949 39.5909C146.914 39.0227 148.059 38.7386 149.383 38.7386C150.707 38.7386 151.849 39.0227 152.809 39.5909C153.775 40.1534 154.52 40.9432 155.042 41.9602C155.565 42.9716 155.826 44.1534 155.826 45.5057C155.826 46.8466 155.565 48.0256 155.042 49.0426C154.52 50.054 153.775 50.8437 152.809 51.4119C151.849 51.9744 150.707 52.2557 149.383 52.2557ZM149.4 49.4432C150.002 49.4432 150.505 49.2727 150.909 48.9318C151.312 48.5852 151.616 48.1136 151.821 47.517C152.031 46.9205 152.136 46.2415 152.136 45.4801C152.136 44.7188 152.031 44.0398 151.821 43.4432C151.616 42.8466 151.312 42.375 150.909 42.0284C150.505 41.6818 150.002 41.5085 149.4 41.5085C148.792 41.5085 148.281 41.6818 147.866 42.0284C147.457 42.375 147.147 42.8466 146.937 43.4432C146.733 44.0398 146.63 44.7188 146.63 45.4801C146.63 46.2415 146.733 46.9205 146.937 47.517C147.147 48.1136 147.457 48.5852 147.866 48.9318C148.281 49.2727 148.792 49.4432 149.4 49.4432ZM161.818 44.4318V52H158.187V38.9091H161.647V41.2188H161.801C162.091 40.4574 162.576 39.8551 163.258 39.4119C163.94 38.9631 164.767 38.7386 165.738 38.7386C166.647 38.7386 167.44 38.9375 168.116 39.3352C168.792 39.733 169.318 40.3011 169.693 41.0398C170.068 41.7727 170.255 42.6477 170.255 43.6648V52H166.625V44.3125C166.63 43.5114 166.426 42.8864 166.011 42.4375C165.596 41.983 165.025 41.7557 164.298 41.7557C163.809 41.7557 163.377 41.8608 163.002 42.071C162.633 42.2812 162.343 42.5881 162.133 42.9915C161.929 43.3892 161.824 43.8693 161.818 44.4318ZM180.08 38.9091V41.6364H172.196V38.9091H180.08ZM173.986 35.7727H177.617V47.9773C177.617 48.3125 177.668 48.5739 177.77 48.7614C177.873 48.9432 178.015 49.071 178.196 49.1449C178.384 49.2187 178.6 49.2557 178.844 49.2557C179.015 49.2557 179.185 49.2415 179.355 49.2131C179.526 49.179 179.657 49.1534 179.748 49.1364L180.319 51.8381C180.137 51.8949 179.881 51.9602 179.551 52.0341C179.222 52.1136 178.821 52.1619 178.35 52.179C177.475 52.2131 176.708 52.0966 176.049 51.8295C175.395 51.5625 174.887 51.1477 174.523 50.5852C174.159 50.0227 173.98 49.3125 173.986 48.4545V35.7727ZM182.445 52V38.9091H185.965V41.1932H186.101C186.34 40.3807 186.74 39.767 187.303 39.3523C187.865 38.9318 188.513 38.7216 189.246 38.7216C189.428 38.7216 189.624 38.733 189.834 38.7557C190.044 38.7784 190.229 38.8097 190.388 38.8494V42.071C190.218 42.0199 189.982 41.9744 189.681 41.9347C189.38 41.8949 189.104 41.875 188.854 41.875C188.32 41.875 187.843 41.9915 187.422 42.2244C187.007 42.4517 186.678 42.7699 186.434 43.179C186.195 43.5881 186.076 44.0597 186.076 44.5938V52H182.445ZM195.623 52.2472C194.788 52.2472 194.044 52.1023 193.39 51.8125C192.737 51.517 192.22 51.0824 191.839 50.5085C191.464 49.929 191.277 49.2074 191.277 48.3438C191.277 47.6165 191.41 47.0057 191.677 46.5114C191.944 46.017 192.308 45.6193 192.768 45.3182C193.228 45.017 193.751 44.7898 194.336 44.6364C194.927 44.483 195.547 44.375 196.194 44.3125C196.956 44.233 197.569 44.1591 198.035 44.0909C198.501 44.017 198.839 43.9091 199.049 43.767C199.26 43.625 199.365 43.4148 199.365 43.1364V43.0852C199.365 42.5455 199.194 42.1278 198.853 41.8324C198.518 41.5369 198.041 41.3892 197.422 41.3892C196.768 41.3892 196.248 41.5341 195.862 41.8239C195.475 42.108 195.22 42.4659 195.095 42.8977L191.737 42.625C191.907 41.8295 192.243 41.142 192.743 40.5625C193.243 39.9773 193.887 39.5284 194.677 39.2159C195.473 38.8977 196.393 38.7386 197.439 38.7386C198.166 38.7386 198.862 38.8239 199.527 38.9943C200.197 39.1648 200.791 39.429 201.308 39.7869C201.831 40.1449 202.243 40.6051 202.544 41.1676C202.845 41.7244 202.995 42.392 202.995 43.1705V52H199.552V50.1847H199.45C199.24 50.5938 198.958 50.9545 198.606 51.267C198.254 51.5739 197.831 51.8153 197.336 51.9915C196.842 52.1619 196.271 52.2472 195.623 52.2472ZM196.663 49.7415C197.197 49.7415 197.669 49.6364 198.078 49.4261C198.487 49.2102 198.808 48.9205 199.041 48.5568C199.274 48.1932 199.39 47.7812 199.39 47.321V45.9318C199.277 46.0057 199.12 46.0739 198.922 46.1364C198.728 46.1932 198.51 46.2472 198.265 46.2983C198.021 46.3437 197.777 46.3864 197.532 46.4261C197.288 46.4602 197.066 46.4915 196.868 46.5199C196.441 46.5824 196.069 46.6818 195.751 46.8182C195.433 46.9545 195.186 47.1392 195.01 47.3722C194.833 47.5994 194.745 47.8835 194.745 48.2244C194.745 48.7188 194.924 49.0966 195.282 49.358C195.646 49.6136 196.106 49.7415 196.663 49.7415ZM210.636 52.2131C209.642 52.2131 208.741 51.9574 207.934 51.446C207.133 50.929 206.497 50.1705 206.025 49.1705C205.559 48.1648 205.326 46.9318 205.326 45.4716C205.326 43.9716 205.568 42.7244 206.051 41.7301C206.534 40.7301 207.176 39.983 207.977 39.4886C208.784 38.9886 209.667 38.7386 210.627 38.7386C211.36 38.7386 211.971 38.8636 212.46 39.1136C212.954 39.358 213.352 39.6648 213.653 40.0341C213.96 40.3977 214.193 40.7557 214.352 41.108H214.463V34.5455H218.085V52H214.505V49.9034H214.352C214.181 50.267 213.94 50.6278 213.627 50.9858C213.321 51.3381 212.92 51.6307 212.426 51.8636C211.937 52.0966 211.341 52.2131 210.636 52.2131ZM211.787 49.3239C212.372 49.3239 212.866 49.1648 213.27 48.8466C213.679 48.5227 213.991 48.071 214.207 47.4915C214.429 46.9119 214.539 46.233 214.539 45.4545C214.539 44.6761 214.431 44 214.216 43.4261C214 42.8523 213.687 42.4091 213.278 42.0966C212.869 41.7841 212.372 41.6278 211.787 41.6278C211.19 41.6278 210.687 41.7898 210.278 42.1136C209.869 42.4375 209.559 42.8864 209.349 43.4602C209.139 44.0341 209.034 44.6989 209.034 45.4545C209.034 46.2159 209.139 46.8892 209.349 47.4744C209.565 48.054 209.875 48.5085 210.278 48.8381C210.687 49.1619 211.19 49.3239 211.787 49.3239ZM226.985 52.2557C225.661 52.2557 224.516 51.9744 223.55 51.4119C222.59 50.8437 221.848 50.054 221.326 49.0426C220.803 48.0256 220.542 46.8466 220.542 45.5057C220.542 44.1534 220.803 42.9716 221.326 41.9602C221.848 40.9432 222.59 40.1534 223.55 39.5909C224.516 39.0227 225.661 38.7386 226.985 38.7386C228.309 38.7386 229.451 39.0227 230.411 39.5909C231.377 40.1534 232.121 40.9432 232.644 41.9602C233.167 42.9716 233.428 44.1534 233.428 45.5057C233.428 46.8466 233.167 48.0256 232.644 49.0426C232.121 50.054 231.377 50.8437 230.411 51.4119C229.451 51.9744 228.309 52.2557 226.985 52.2557ZM227.002 49.4432C227.604 49.4432 228.107 49.2727 228.51 48.9318C228.914 48.5852 229.218 48.1136 229.422 47.517C229.632 46.9205 229.738 46.2415 229.738 45.4801C229.738 44.7188 229.632 44.0398 229.422 43.4432C229.218 42.8466 228.914 42.375 228.51 42.0284C228.107 41.6818 227.604 41.5085 227.002 41.5085C226.394 41.5085 225.882 41.6818 225.468 42.0284C225.059 42.375 224.749 42.8466 224.539 43.4432C224.334 44.0398 224.232 44.7188 224.232 45.4801C224.232 46.2415 224.334 46.9205 224.539 47.517C224.749 48.1136 225.059 48.5852 225.468 48.9318C225.882 49.2727 226.394 49.4432 227.002 49.4432Z" fill="#343A40"/>
<path d="M21.8572 80.3636V92H20.4482V80.3636H21.8572ZM25.8416 86.75V92H24.5007V83.2727H25.7962V84.6364H25.9098C26.1143 84.1932 26.425 83.8371 26.8416 83.5682C27.2583 83.2955 27.7962 83.1591 28.4553 83.1591C29.0462 83.1591 29.5632 83.2803 30.0064 83.5227C30.4496 83.7614 30.7943 84.125 31.0405 84.6136C31.2867 85.0985 31.4098 85.7121 31.4098 86.4545V92H30.0689V86.5455C30.0689 85.8598 29.8909 85.3258 29.5348 84.9432C29.1787 84.5568 28.6901 84.3636 28.0689 84.3636C27.6409 84.3636 27.2583 84.4564 26.9212 84.642C26.5878 84.8277 26.3246 85.0985 26.1314 85.4545C25.9382 85.8106 25.8416 86.2424 25.8416 86.75ZM37.3828 95.4545C36.7351 95.4545 36.1783 95.3712 35.7124 95.2045C35.2464 95.0417 34.8582 94.8258 34.5476 94.5568C34.2408 94.2917 33.9964 94.0076 33.8146 93.7045L34.8828 92.9545C35.004 93.1136 35.1574 93.2955 35.343 93.5C35.5286 93.7083 35.7824 93.8883 36.1044 94.0398C36.4302 94.1951 36.8563 94.2727 37.3828 94.2727C38.0874 94.2727 38.6688 94.1023 39.1271 93.7614C39.5855 93.4205 39.8146 92.8864 39.8146 92.1591V90.3864H39.701C39.6025 90.5455 39.4624 90.7424 39.2805 90.9773C39.1025 91.2083 38.8449 91.4148 38.5078 91.5966C38.1745 91.7746 37.7237 91.8636 37.1555 91.8636C36.451 91.8636 35.8184 91.697 35.2578 91.3636C34.701 91.0303 34.2597 90.5455 33.9339 89.9091C33.612 89.2727 33.451 88.5 33.451 87.5909C33.451 86.697 33.6082 85.9186 33.9226 85.2557C34.237 84.589 34.6745 84.0739 35.2351 83.7102C35.7957 83.3428 36.4434 83.1591 37.1783 83.1591C37.7464 83.1591 38.1972 83.2538 38.5305 83.4432C38.8677 83.6288 39.1252 83.8409 39.3033 84.0795C39.4851 84.3144 39.6252 84.5076 39.7237 84.6591H39.8601V83.2727H41.1555V92.25C41.1555 93 40.9851 93.6098 40.6442 94.0795C40.3071 94.553 39.8525 94.8996 39.2805 95.1193C38.7124 95.3428 38.0798 95.4545 37.3828 95.4545ZM37.3374 90.6591C37.8752 90.6591 38.3298 90.536 38.701 90.2898C39.0722 90.0436 39.3544 89.6894 39.5476 89.2273C39.7408 88.7652 39.8374 88.2121 39.8374 87.5682C39.8374 86.9394 39.7427 86.3845 39.5533 85.9034C39.3639 85.4223 39.0836 85.0455 38.7124 84.7727C38.3411 84.5 37.8828 84.3636 37.3374 84.3636C36.7692 84.3636 36.2957 84.5076 35.9169 84.7955C35.5419 85.0833 35.2597 85.4697 35.0703 85.9545C34.8847 86.4394 34.7919 86.9773 34.7919 87.5682C34.7919 88.1742 34.8866 88.7102 35.076 89.1761C35.2692 89.6383 35.5533 90.0019 35.9283 90.267C36.3071 90.5284 36.7768 90.6591 37.3374 90.6591ZM43.6101 92V83.2727H44.9055V84.5909H44.9964C45.1555 84.1591 45.4434 83.8087 45.8601 83.5398C46.2768 83.2708 46.7464 83.1364 47.2692 83.1364C47.3677 83.1364 47.4908 83.1383 47.6385 83.142C47.7862 83.1458 47.898 83.1515 47.9737 83.1591V84.5227C47.9283 84.5114 47.8241 84.4943 47.6612 84.4716C47.5021 84.4451 47.3336 84.4318 47.1555 84.4318C46.7313 84.4318 46.3525 84.5208 46.0192 84.6989C45.6896 84.8731 45.4283 85.1155 45.2351 85.4261C45.0457 85.733 44.951 86.0833 44.951 86.4773V92H43.6101ZM52.9567 92.1818C52.1158 92.1818 51.3904 91.9962 50.7805 91.625C50.1745 91.25 49.7067 90.7273 49.3771 90.0568C49.0514 89.3826 48.8885 88.5985 48.8885 87.7045C48.8885 86.8106 49.0514 86.0227 49.3771 85.3409C49.7067 84.6553 50.165 84.1212 50.7521 83.7386C51.343 83.3523 52.0324 83.1591 52.8203 83.1591C53.2749 83.1591 53.7237 83.2348 54.1669 83.3864C54.6101 83.5379 55.0135 83.7841 55.3771 84.125C55.7408 84.4621 56.0305 84.9091 56.2464 85.4659C56.4624 86.0227 56.5703 86.7083 56.5703 87.5227V88.0909H49.843V86.9318H55.2067C55.2067 86.4394 55.1082 86 54.9112 85.6136C54.718 85.2273 54.4415 84.9223 54.0817 84.6989C53.7256 84.4754 53.3052 84.3636 52.8203 84.3636C52.2862 84.3636 51.8241 84.4962 51.4339 84.7614C51.0476 85.0227 50.7502 85.3636 50.5419 85.7841C50.3336 86.2045 50.2294 86.6553 50.2294 87.1364V87.9091C50.2294 88.5682 50.343 89.1269 50.5703 89.5852C50.8014 90.0398 51.1214 90.3864 51.5305 90.625C51.9396 90.8598 52.415 90.9773 52.9567 90.9773C53.3089 90.9773 53.6271 90.928 53.9112 90.8295C54.1991 90.7273 54.4472 90.5758 54.6555 90.375C54.8639 90.1705 55.0249 89.9167 55.1385 89.6136L56.4339 89.9773C56.2976 90.4167 56.0684 90.803 55.7464 91.1364C55.4245 91.4659 55.0268 91.7235 54.5533 91.9091C54.0798 92.0909 53.5476 92.1818 52.9567 92.1818ZM64.7919 85.2273L63.5874 85.5682C63.5116 85.3674 63.3999 85.1723 63.2521 84.983C63.1082 84.7898 62.9112 84.6307 62.6612 84.5057C62.4112 84.3807 62.0911 84.3182 61.701 84.3182C61.1669 84.3182 60.7218 84.4413 60.3658 84.6875C60.0135 84.9299 59.8374 85.2386 59.8374 85.6136C59.8374 85.947 59.9586 86.2102 60.201 86.4034C60.4434 86.5966 60.8222 86.7576 61.3374 86.8864L62.6328 87.2045C63.4131 87.3939 63.9946 87.6837 64.3771 88.0739C64.7597 88.4602 64.951 88.9583 64.951 89.5682C64.951 90.0682 64.8071 90.5152 64.5192 90.9091C64.2351 91.303 63.8374 91.6136 63.326 91.8409C62.8146 92.0682 62.2199 92.1818 61.5419 92.1818C60.6518 92.1818 59.915 91.9886 59.3317 91.6023C58.7483 91.2159 58.379 90.6515 58.2237 89.9091L59.4964 89.5909C59.6177 90.0606 59.8468 90.4129 60.1839 90.6477C60.5249 90.8826 60.9699 91 61.5192 91C62.1442 91 62.6404 90.8674 63.0078 90.6023C63.379 90.3333 63.5646 90.0114 63.5646 89.6364C63.5646 89.3333 63.4586 89.0795 63.2464 88.875C63.0343 88.6667 62.7086 88.5114 62.2692 88.4091L60.8146 88.0682C60.0154 87.8788 59.4283 87.5852 59.0533 87.1875C58.6821 86.786 58.4964 86.2841 58.4964 85.6818C58.4964 85.1894 58.6347 84.7538 58.9112 84.375C59.1915 83.9962 59.5722 83.6989 60.0533 83.483C60.5381 83.267 61.0874 83.1591 61.701 83.1591C62.5646 83.1591 63.2427 83.3485 63.7351 83.7273C64.2313 84.1061 64.5836 84.6061 64.7919 85.2273ZM69.5376 92.2045C68.9846 92.2045 68.4827 92.1004 68.032 91.892C67.5812 91.6799 67.2232 91.375 66.9581 90.9773C66.6929 90.5758 66.5604 90.0909 66.5604 89.5227C66.5604 89.0227 66.6589 88.6174 66.8558 88.3068C67.0528 87.9924 67.3161 87.7462 67.6456 87.5682C67.9751 87.3902 68.3388 87.2576 68.7365 87.1705C69.138 87.0795 69.5414 87.0076 69.9467 86.9545C70.477 86.8864 70.907 86.8352 71.2365 86.8011C71.5698 86.7633 71.8123 86.7008 71.9638 86.6136C72.1191 86.5265 72.1967 86.375 72.1967 86.1591V86.1136C72.1967 85.553 72.0433 85.1174 71.7365 84.8068C71.4335 84.4962 70.9732 84.3409 70.3558 84.3409C69.7157 84.3409 69.2138 84.4811 68.8501 84.7614C68.4865 85.0417 68.2308 85.3409 68.0831 85.6591L66.8104 85.2045C67.0376 84.6742 67.3407 84.2614 67.7195 83.9659C68.102 83.6667 68.5187 83.4583 68.9695 83.3409C69.424 83.2197 69.871 83.1591 70.3104 83.1591C70.5907 83.1591 70.9126 83.1932 71.2763 83.2614C71.6437 83.3258 71.9979 83.4602 72.3388 83.6648C72.6835 83.8693 72.9695 84.178 73.1967 84.5909C73.424 85.0038 73.5376 85.5568 73.5376 86.25V92H72.1967V90.8182H72.1286C72.0376 91.0076 71.8861 91.2102 71.674 91.4261C71.4619 91.642 71.1797 91.8258 70.8274 91.9773C70.4751 92.1288 70.0452 92.2045 69.5376 92.2045ZM69.7422 91C70.2725 91 70.7195 90.8958 71.0831 90.6875C71.4505 90.4792 71.727 90.2102 71.9126 89.8807C72.102 89.5511 72.1967 89.2045 72.1967 88.8409V87.6136C72.1399 87.6818 72.0149 87.7443 71.8217 87.8011C71.6323 87.8542 71.4126 87.9015 71.1626 87.9432C70.9164 87.9811 70.6759 88.0152 70.4411 88.0455C70.21 88.072 70.0225 88.0947 69.8786 88.1136C69.5301 88.1591 69.2043 88.233 68.9013 88.3352C68.602 88.4337 68.3596 88.5833 68.174 88.7841C67.9922 88.9811 67.9013 89.25 67.9013 89.5909C67.9013 90.0568 68.0736 90.4091 68.4183 90.6477C68.7668 90.8826 69.2081 91 69.7422 91ZM84.1442 92.1818C83.3033 92.1818 82.5779 91.9962 81.968 91.625C81.362 91.25 80.8942 90.7273 80.5646 90.0568C80.2389 89.3826 80.076 88.5985 80.076 87.7045C80.076 86.8106 80.2389 86.0227 80.5646 85.3409C80.8942 84.6553 81.3525 84.1212 81.9396 83.7386C82.5305 83.3523 83.2199 83.1591 84.0078 83.1591C84.4624 83.1591 84.9112 83.2348 85.3544 83.3864C85.7976 83.5379 86.201 83.7841 86.5646 84.125C86.9283 84.4621 87.218 84.9091 87.4339 85.4659C87.6499 86.0227 87.7578 86.7083 87.7578 87.5227V88.0909H81.0305V86.9318H86.3942C86.3942 86.4394 86.2957 86 86.0987 85.6136C85.9055 85.2273 85.629 84.9223 85.2692 84.6989C84.9131 84.4754 84.4927 84.3636 84.0078 84.3636C83.4737 84.3636 83.0116 84.4962 82.6214 84.7614C82.2351 85.0227 81.9377 85.3636 81.7294 85.7841C81.5211 86.2045 81.4169 86.6553 81.4169 87.1364V87.9091C81.4169 88.5682 81.5305 89.1269 81.7578 89.5852C81.9889 90.0398 82.3089 90.3864 82.718 90.625C83.1271 90.8598 83.6025 90.9773 84.1442 90.9773C84.4964 90.9773 84.8146 90.928 85.0987 90.8295C85.3866 90.7273 85.6347 90.5758 85.843 90.375C86.0514 90.1705 86.2124 89.9167 86.326 89.6136L87.6214 89.9773C87.4851 90.4167 87.2559 90.803 86.9339 91.1364C86.612 91.4659 86.2143 91.7235 85.7408 91.9091C85.2673 92.0909 84.7351 92.1818 84.1442 92.1818ZM91.1385 80.3636V92H89.7976V80.3636H91.1385ZM101.89 83.2727V84.4091H97.3672V83.2727H101.89ZM98.6854 81.1818H100.026V89.5C100.026 89.8788 100.081 90.1629 100.191 90.3523C100.305 90.5379 100.449 90.6629 100.623 90.7273C100.801 90.7879 100.988 90.8182 101.185 90.8182C101.333 90.8182 101.454 90.8106 101.549 90.7955C101.644 90.7765 101.719 90.7614 101.776 90.75L102.049 91.9545C101.958 91.9886 101.831 92.0227 101.668 92.0568C101.505 92.0947 101.299 92.1136 101.049 92.1136C100.67 92.1136 100.299 92.0322 99.9354 91.8693C99.5755 91.7064 99.2763 91.4583 99.0376 91.125C98.8028 90.7917 98.6854 90.3712 98.6854 89.8636V81.1818ZM107.472 92.1818C106.631 92.1818 105.906 91.9962 105.296 91.625C104.69 91.25 104.222 90.7273 103.893 90.0568C103.567 89.3826 103.404 88.5985 103.404 87.7045C103.404 86.8106 103.567 86.0227 103.893 85.3409C104.222 84.6553 104.681 84.1212 105.268 83.7386C105.859 83.3523 106.548 83.1591 107.336 83.1591C107.79 83.1591 108.239 83.2348 108.683 83.3864C109.126 83.5379 109.529 83.7841 109.893 84.125C110.256 84.4621 110.546 84.9091 110.762 85.4659C110.978 86.0227 111.086 86.7083 111.086 87.5227V88.0909H104.359V86.9318H109.722C109.722 86.4394 109.624 86 109.427 85.6136C109.234 85.2273 108.957 84.9223 108.597 84.6989C108.241 84.4754 107.821 84.3636 107.336 84.3636C106.802 84.3636 106.34 84.4962 105.95 84.7614C105.563 85.0227 105.266 85.3636 105.058 85.7841C104.849 86.2045 104.745 86.6553 104.745 87.1364V87.9091C104.745 88.5682 104.859 89.1269 105.086 89.5852C105.317 90.0398 105.637 90.3864 106.046 90.625C106.455 90.8598 106.931 90.9773 107.472 90.9773C107.825 90.9773 108.143 90.928 108.427 90.8295C108.715 90.7273 108.963 90.5758 109.171 90.375C109.379 90.1705 109.54 89.9167 109.654 89.6136L110.95 89.9773C110.813 90.4167 110.584 90.803 110.262 91.1364C109.94 91.4659 109.542 91.7235 109.069 91.9091C108.595 92.0909 108.063 92.1818 107.472 92.1818ZM113.891 83.2727L115.982 86.8409L118.073 83.2727H119.619L116.8 87.6364L119.619 92H118.073L115.982 88.6136L113.891 92H112.346L115.119 87.6364L112.346 83.2727H113.891ZM125.327 83.2727V84.4091H120.805V83.2727H125.327ZM122.123 81.1818H123.464V89.5C123.464 89.8788 123.519 90.1629 123.629 90.3523C123.742 90.5379 123.886 90.6629 124.06 90.7273C124.238 90.7879 124.426 90.8182 124.623 90.8182C124.771 90.8182 124.892 90.8106 124.987 90.7955C125.081 90.7765 125.157 90.7614 125.214 90.75L125.487 91.9545C125.396 91.9886 125.269 92.0227 125.106 92.0568C124.943 92.0947 124.737 92.1136 124.487 92.1136C124.108 92.1136 123.737 92.0322 123.373 91.8693C123.013 91.7064 122.714 91.4583 122.475 91.125C122.24 90.7917 122.123 90.3712 122.123 89.8636V81.1818ZM130.796 92.1818C130.008 92.1818 129.317 91.9943 128.722 91.6193C128.131 91.2443 127.669 90.7197 127.336 90.0455C127.006 89.3712 126.842 88.5833 126.842 87.6818C126.842 86.7727 127.006 85.9792 127.336 85.3011C127.669 84.6231 128.131 84.0966 128.722 83.7216C129.317 83.3466 130.008 83.1591 130.796 83.1591C131.584 83.1591 132.273 83.3466 132.864 83.7216C133.459 84.0966 133.921 84.6231 134.251 85.3011C134.584 85.9792 134.751 86.7727 134.751 87.6818C134.751 88.5833 134.584 89.3712 134.251 90.0455C133.921 90.7197 133.459 91.2443 132.864 91.6193C132.273 91.9943 131.584 92.1818 130.796 92.1818ZM130.796 90.9773C131.395 90.9773 131.887 90.8239 132.273 90.517C132.66 90.2102 132.946 89.8068 133.131 89.3068C133.317 88.8068 133.41 88.2652 133.41 87.6818C133.41 87.0985 133.317 86.5549 133.131 86.0511C132.946 85.5473 132.66 85.1402 132.273 84.8295C131.887 84.5189 131.395 84.3636 130.796 84.3636C130.198 84.3636 129.705 84.5189 129.319 84.8295C128.933 85.1402 128.647 85.5473 128.461 86.0511C128.275 86.5549 128.183 87.0985 128.183 87.6818C128.183 88.2652 128.275 88.8068 128.461 89.3068C128.647 89.8068 128.933 90.2102 129.319 90.517C129.705 90.8239 130.198 90.9773 130.796 90.9773ZM147.252 95.2727V90.6591H147.138C147.04 90.8182 146.9 91.0189 146.718 91.2614C146.536 91.5 146.277 91.714 145.94 91.9034C145.603 92.089 145.154 92.1818 144.593 92.1818C143.866 92.1818 143.224 91.9981 142.667 91.6307C142.11 91.2595 141.674 90.7367 141.36 90.0625C141.046 89.3845 140.888 88.5833 140.888 87.6591C140.888 86.7424 141.046 85.947 141.36 85.2727C141.674 84.5985 142.112 84.0777 142.673 83.7102C143.233 83.3428 143.881 83.1591 144.616 83.1591C145.184 83.1591 145.633 83.2538 145.962 83.4432C146.296 83.6288 146.549 83.8409 146.724 84.0795C146.902 84.3144 147.04 84.5076 147.138 84.6591H147.298V83.2727H148.593V95.2727H147.252ZM144.775 90.9773C145.313 90.9773 145.767 90.8371 146.138 90.5568C146.51 90.2727 146.792 89.8807 146.985 89.3807C147.178 88.8769 147.275 88.2955 147.275 87.6364C147.275 86.9848 147.18 86.4148 146.991 85.9261C146.801 85.4337 146.521 85.0511 146.15 84.7784C145.779 84.5019 145.32 84.3636 144.775 84.3636C144.207 84.3636 143.733 84.5095 143.354 84.8011C142.979 85.089 142.697 85.4811 142.508 85.9773C142.322 86.4697 142.229 87.0227 142.229 87.6364C142.229 88.2576 142.324 88.822 142.513 89.3295C142.707 89.8333 142.991 90.2348 143.366 90.5341C143.745 90.8295 144.214 90.9773 144.775 90.9773ZM156.548 88.4318V83.2727H157.888V92H156.548V90.5227H156.457C156.252 90.9659 155.934 91.3428 155.502 91.6534C155.07 91.9602 154.525 92.1136 153.866 92.1136C153.32 92.1136 152.835 91.9943 152.411 91.7557C151.987 91.5133 151.654 91.1496 151.411 90.6648C151.169 90.1761 151.048 89.5606 151.048 88.8182V83.2727H152.388V88.7273C152.388 89.3636 152.567 89.8712 152.923 90.25C153.282 90.6288 153.741 90.8182 154.298 90.8182C154.631 90.8182 154.97 90.733 155.315 90.5625C155.663 90.392 155.955 90.1307 156.19 89.7784C156.428 89.4261 156.548 88.9773 156.548 88.4318ZM164.004 92.1818C163.163 92.1818 162.437 91.9962 161.827 91.625C161.221 91.25 160.754 90.7273 160.424 90.0568C160.098 89.3826 159.935 88.5985 159.935 87.7045C159.935 86.8106 160.098 86.0227 160.424 85.3409C160.754 84.6553 161.212 84.1212 161.799 83.7386C162.39 83.3523 163.079 83.1591 163.867 83.1591C164.322 83.1591 164.771 83.2348 165.214 83.3864C165.657 83.5379 166.06 83.7841 166.424 84.125C166.788 84.4621 167.077 84.9091 167.293 85.4659C167.509 86.0227 167.617 86.7083 167.617 87.5227V88.0909H160.89V86.9318H166.254C166.254 86.4394 166.155 86 165.958 85.6136C165.765 85.2273 165.488 84.9223 165.129 84.6989C164.772 84.4754 164.352 84.3636 163.867 84.3636C163.333 84.3636 162.871 84.4962 162.481 84.7614C162.094 85.0227 161.797 85.3636 161.589 85.7841C161.38 86.2045 161.276 86.6553 161.276 87.1364V87.9091C161.276 88.5682 161.39 89.1269 161.617 89.5852C161.848 90.0398 162.168 90.3864 162.577 90.625C162.987 90.8598 163.462 90.9773 164.004 90.9773C164.356 90.9773 164.674 90.928 164.958 90.8295C165.246 90.7273 165.494 90.5758 165.702 90.375C165.911 90.1705 166.072 89.9167 166.185 89.6136L167.481 89.9773C167.344 90.4167 167.115 90.803 166.793 91.1364C166.471 91.4659 166.074 91.7235 165.6 91.9091C165.127 92.0909 164.594 92.1818 164.004 92.1818ZM177.452 92.1818C176.725 92.1818 176.083 91.9981 175.526 91.6307C174.969 91.2595 174.534 90.7367 174.219 90.0625C173.905 89.3845 173.748 88.5833 173.748 87.6591C173.748 86.7424 173.905 85.947 174.219 85.2727C174.534 84.5985 174.971 84.0777 175.532 83.7102C176.093 83.3428 176.74 83.1591 177.475 83.1591C178.043 83.1591 178.492 83.2538 178.822 83.4432C179.155 83.6288 179.409 83.8409 179.583 84.0795C179.761 84.3144 179.899 84.5076 179.998 84.6591H180.112V80.3636H181.452V92H180.157V90.6591H179.998C179.899 90.8182 179.759 91.0189 179.577 91.2614C179.396 91.5 179.136 91.714 178.799 91.9034C178.462 92.089 178.013 92.1818 177.452 92.1818ZM177.634 90.9773C178.172 90.9773 178.627 90.8371 178.998 90.5568C179.369 90.2727 179.651 89.8807 179.844 89.3807C180.038 88.8769 180.134 88.2955 180.134 87.6364C180.134 86.9848 180.04 86.4148 179.85 85.9261C179.661 85.4337 179.38 85.0511 179.009 84.7784C178.638 84.5019 178.18 84.3636 177.634 84.3636C177.066 84.3636 176.593 84.5095 176.214 84.8011C175.839 85.089 175.557 85.4811 175.367 85.9773C175.182 86.4697 175.089 87.0227 175.089 87.6364C175.089 88.2576 175.183 88.822 175.373 89.3295C175.566 89.8333 175.85 90.2348 176.225 90.5341C176.604 90.8295 177.074 90.9773 177.634 90.9773ZM187.754 92.1818C186.913 92.1818 186.187 91.9962 185.577 91.625C184.971 91.25 184.504 90.7273 184.174 90.0568C183.848 89.3826 183.685 88.5985 183.685 87.7045C183.685 86.8106 183.848 86.0227 184.174 85.3409C184.504 84.6553 184.962 84.1212 185.549 83.7386C186.14 83.3523 186.829 83.1591 187.617 83.1591C188.072 83.1591 188.521 83.2348 188.964 83.3864C189.407 83.5379 189.81 83.7841 190.174 84.125C190.538 84.4621 190.827 84.9091 191.043 85.4659C191.259 86.0227 191.367 86.7083 191.367 87.5227V88.0909H184.64V86.9318H190.004C190.004 86.4394 189.905 86 189.708 85.6136C189.515 85.2273 189.238 84.9223 188.879 84.6989C188.522 84.4754 188.102 84.3636 187.617 84.3636C187.083 84.3636 186.621 84.4962 186.231 84.7614C185.844 85.0227 185.547 85.3636 185.339 85.7841C185.13 86.2045 185.026 86.6553 185.026 87.1364V87.9091C185.026 88.5682 185.14 89.1269 185.367 89.5852C185.598 90.0398 185.918 90.3864 186.327 90.625C186.737 90.8598 187.212 90.9773 187.754 90.9773C188.106 90.9773 188.424 90.928 188.708 90.8295C188.996 90.7273 189.244 90.5758 189.452 90.375C189.661 90.1705 189.822 89.9167 189.935 89.6136L191.231 89.9773C191.094 90.4167 190.865 90.803 190.543 91.1364C190.221 91.4659 189.824 91.7235 189.35 91.9091C188.877 92.0909 188.344 92.1818 187.754 92.1818ZM199.589 85.2273L198.384 85.5682C198.308 85.3674 198.197 85.1723 198.049 84.983C197.905 84.7898 197.708 84.6307 197.458 84.5057C197.208 84.3807 196.888 84.3182 196.498 84.3182C195.964 84.3182 195.519 84.4413 195.163 84.6875C194.81 84.9299 194.634 85.2386 194.634 85.6136C194.634 85.947 194.755 86.2102 194.998 86.4034C195.24 86.5966 195.619 86.7576 196.134 86.8864L197.43 87.2045C198.21 87.3939 198.791 87.6837 199.174 88.0739C199.557 88.4602 199.748 88.9583 199.748 89.5682C199.748 90.0682 199.604 90.5152 199.316 90.9091C199.032 91.303 198.634 91.6136 198.123 91.8409C197.612 92.0682 197.017 92.1818 196.339 92.1818C195.449 92.1818 194.712 91.9886 194.129 91.6023C193.545 91.2159 193.176 90.6515 193.021 89.9091L194.293 89.5909C194.415 90.0606 194.644 90.4129 194.981 90.6477C195.322 90.8826 195.767 91 196.316 91C196.941 91 197.437 90.8674 197.805 90.6023C198.176 90.3333 198.362 90.0114 198.362 89.6364C198.362 89.3333 198.255 89.0795 198.043 88.875C197.831 88.6667 197.505 88.5114 197.066 88.4091L195.612 88.0682C194.812 87.8788 194.225 87.5852 193.85 87.1875C193.479 86.786 193.293 86.2841 193.293 85.6818C193.293 85.1894 193.432 84.7538 193.708 84.375C193.988 83.9962 194.369 83.6989 194.85 83.483C195.335 83.267 195.884 83.1591 196.498 83.1591C197.362 83.1591 198.04 83.3485 198.532 83.7273C199.028 84.1061 199.38 84.6061 199.589 85.2273ZM205.425 92.1818C204.585 92.1818 203.859 91.9962 203.249 91.625C202.643 91.25 202.175 90.7273 201.846 90.0568C201.52 89.3826 201.357 88.5985 201.357 87.7045C201.357 86.8106 201.52 86.0227 201.846 85.3409C202.175 84.6553 202.634 84.1212 203.221 83.7386C203.812 83.3523 204.501 83.1591 205.289 83.1591C205.744 83.1591 206.192 83.2348 206.636 83.3864C207.079 83.5379 207.482 83.7841 207.846 84.125C208.21 84.4621 208.499 84.9091 208.715 85.4659C208.931 86.0227 209.039 86.7083 209.039 87.5227V88.0909H202.312V86.9318H207.675C207.675 86.4394 207.577 86 207.38 85.6136C207.187 85.2273 206.91 84.9223 206.55 84.6989C206.194 84.4754 205.774 84.3636 205.289 84.3636C204.755 84.3636 204.293 84.4962 203.903 84.7614C203.516 85.0227 203.219 85.3636 203.011 85.7841C202.802 86.2045 202.698 86.6553 202.698 87.1364V87.9091C202.698 88.5682 202.812 89.1269 203.039 89.5852C203.27 90.0398 203.59 90.3864 203.999 90.625C204.408 90.8598 204.884 90.9773 205.425 90.9773C205.778 90.9773 206.096 90.928 206.38 90.8295C206.668 90.7273 206.916 90.5758 207.124 90.375C207.333 90.1705 207.494 89.9167 207.607 89.6136L208.903 89.9773C208.766 90.4167 208.537 90.803 208.215 91.1364C207.893 91.4659 207.496 91.7235 207.022 91.9091C206.549 92.0909 206.016 92.1818 205.425 92.1818ZM214.738 92.1818C213.897 92.1818 213.172 91.9962 212.562 91.625C211.956 91.25 211.488 90.7273 211.158 90.0568C210.833 89.3826 210.67 88.5985 210.67 87.7045C210.67 86.8106 210.833 86.0227 211.158 85.3409C211.488 84.6553 211.946 84.1212 212.533 83.7386C213.124 83.3523 213.814 83.1591 214.602 83.1591C215.056 83.1591 215.505 83.2348 215.948 83.3864C216.391 83.5379 216.795 83.7841 217.158 84.125C217.522 84.4621 217.812 84.9091 218.028 85.4659C218.244 86.0227 218.352 86.7083 218.352 87.5227V88.0909H211.624V86.9318H216.988C216.988 86.4394 216.889 86 216.692 85.6136C216.499 85.2273 216.223 84.9223 215.863 84.6989C215.507 84.4754 215.086 84.3636 214.602 84.3636C214.067 84.3636 213.605 84.4962 213.215 84.7614C212.829 85.0227 212.531 85.3636 212.323 85.7841C212.115 86.2045 212.011 86.6553 212.011 87.1364V87.9091C212.011 88.5682 212.124 89.1269 212.352 89.5852C212.583 90.0398 212.903 90.3864 213.312 90.625C213.721 90.8598 214.196 90.9773 214.738 90.9773C215.09 90.9773 215.408 90.928 215.692 90.8295C215.98 90.7273 216.228 90.5758 216.437 90.375C216.645 90.1705 216.806 89.9167 216.92 89.6136L218.215 89.9773C218.079 90.4167 217.85 90.803 217.528 91.1364C217.206 91.4659 216.808 91.7235 216.335 91.9091C215.861 92.0909 215.329 92.1818 214.738 92.1818ZM226.573 85.2273L225.369 85.5682C225.293 85.3674 225.181 85.1723 225.033 84.983C224.889 84.7898 224.692 84.6307 224.442 84.5057C224.192 84.3807 223.872 84.3182 223.482 84.3182C222.948 84.3182 222.503 84.4413 222.147 84.6875C221.795 84.9299 221.619 85.2386 221.619 85.6136C221.619 85.947 221.74 86.2102 221.982 86.4034C222.225 86.5966 222.603 86.7576 223.119 86.8864L224.414 87.2045C225.194 87.3939 225.776 87.6837 226.158 88.0739C226.541 88.4602 226.732 88.9583 226.732 89.5682C226.732 90.0682 226.588 90.5152 226.3 90.9091C226.016 91.303 225.619 91.6136 225.107 91.8409C224.596 92.0682 224.001 92.1818 223.323 92.1818C222.433 92.1818 221.696 91.9886 221.113 91.6023C220.53 91.2159 220.16 90.6515 220.005 89.9091L221.278 89.5909C221.399 90.0606 221.628 90.4129 221.965 90.6477C222.306 90.8826 222.751 91 223.3 91C223.925 91 224.422 90.8674 224.789 90.6023C225.16 90.3333 225.346 90.0114 225.346 89.6364C225.346 89.3333 225.24 89.0795 225.028 88.875C224.816 88.6667 224.49 88.5114 224.05 88.4091L222.596 88.0682C221.797 87.8788 221.21 87.5852 220.835 87.1875C220.463 86.786 220.278 86.2841 220.278 85.6818C220.278 85.1894 220.416 84.7538 220.692 84.375C220.973 83.9962 221.353 83.6989 221.835 83.483C222.319 83.267 222.869 83.1591 223.482 83.1591C224.346 83.1591 225.024 83.3485 225.516 83.7273C226.013 84.1061 226.365 84.6061 226.573 85.2273ZM236.91 92.1818C236.069 92.1818 235.344 91.9962 234.734 91.625C234.128 91.25 233.66 90.7273 233.33 90.0568C233.004 89.3826 232.842 88.5985 232.842 87.7045C232.842 86.8106 233.004 86.0227 233.33 85.3409C233.66 84.6553 234.118 84.1212 234.705 83.7386C235.296 83.3523 235.986 83.1591 236.773 83.1591C237.228 83.1591 237.677 83.2348 238.12 83.3864C238.563 83.5379 238.967 83.7841 239.33 84.125C239.694 84.4621 239.984 84.9091 240.2 85.4659C240.415 86.0227 240.523 86.7083 240.523 87.5227V88.0909H233.796V86.9318H239.16C239.16 86.4394 239.061 86 238.864 85.6136C238.671 85.2273 238.395 84.9223 238.035 84.6989C237.679 84.4754 237.258 84.3636 236.773 84.3636C236.239 84.3636 235.777 84.4962 235.387 84.7614C235.001 85.0227 234.703 85.3636 234.495 85.7841C234.287 86.2045 234.183 86.6553 234.183 87.1364V87.9091C234.183 88.5682 234.296 89.1269 234.523 89.5852C234.754 90.0398 235.075 90.3864 235.484 90.625C235.893 90.8598 236.368 90.9773 236.91 90.9773C237.262 90.9773 237.58 90.928 237.864 90.8295C238.152 90.7273 238.4 90.5758 238.609 90.375C238.817 90.1705 238.978 89.9167 239.092 89.6136L240.387 89.9773C240.251 90.4167 240.022 90.803 239.7 91.1364C239.378 91.4659 238.98 91.7235 238.506 91.9091C238.033 92.0909 237.501 92.1818 236.91 92.1818ZM243.904 86.75V92H242.563V83.2727H243.859V84.6364H243.972C244.177 84.1932 244.487 83.8371 244.904 83.5682C245.321 83.2955 245.859 83.1591 246.518 83.1591C247.109 83.1591 247.626 83.2803 248.069 83.5227C248.512 83.7614 248.857 84.125 249.103 84.6136C249.349 85.0985 249.472 85.7121 249.472 86.4545V92H248.131V86.5455C248.131 85.8598 247.953 85.3258 247.597 84.9432C247.241 84.5568 246.753 84.3636 246.131 84.3636C245.703 84.3636 245.321 84.4564 244.984 84.642C244.65 84.8277 244.387 85.0985 244.194 85.4545C244.001 85.8106 243.904 86.2424 243.904 86.75ZM255.468 92.1818C254.65 92.1818 253.945 91.9886 253.354 91.6023C252.763 91.2159 252.309 90.6837 251.991 90.0057C251.673 89.3277 251.513 88.553 251.513 87.6818C251.513 86.7955 251.676 86.0133 252.002 85.3352C252.332 84.6534 252.79 84.1212 253.377 83.7386C253.968 83.3523 254.657 83.1591 255.445 83.1591C256.059 83.1591 256.612 83.2727 257.104 83.5C257.597 83.7273 258 84.0455 258.315 84.4545C258.629 84.8636 258.824 85.3409 258.9 85.8864H257.559C257.457 85.4886 257.229 85.1364 256.877 84.8295C256.529 84.5189 256.059 84.3636 255.468 84.3636C254.945 84.3636 254.487 84.5 254.093 84.7727C253.703 85.0417 253.398 85.4223 253.178 85.9148C252.962 86.4034 252.854 86.9773 252.854 87.6364C252.854 88.3106 252.96 88.8977 253.173 89.3977C253.388 89.8977 253.692 90.286 254.082 90.5625C254.476 90.839 254.938 90.9773 255.468 90.9773C255.817 90.9773 256.133 90.9167 256.417 90.7955C256.701 90.6742 256.942 90.5 257.138 90.2727C257.335 90.0455 257.476 89.7727 257.559 89.4545H258.9C258.824 89.9697 258.637 90.4337 258.337 90.8466C258.042 91.2557 257.65 91.5814 257.161 91.8239C256.676 92.0625 256.112 92.1818 255.468 92.1818ZM260.86 92V83.2727H262.156V84.5909H262.246C262.406 84.1591 262.693 83.8087 263.11 83.5398C263.527 83.2708 263.996 83.1364 264.519 83.1364C264.618 83.1364 264.741 83.1383 264.888 83.142C265.036 83.1458 265.148 83.1515 265.224 83.1591V84.5227C265.178 84.5114 265.074 84.4943 264.911 84.4716C264.752 84.4451 264.584 84.4318 264.406 84.4318C263.981 84.4318 263.603 84.5208 263.269 84.6989C262.94 84.8731 262.678 85.1155 262.485 85.4261C262.296 85.733 262.201 86.0833 262.201 86.4773V92H260.86ZM266.813 92V83.2727H268.154V92H266.813ZM267.495 81.8182C267.234 81.8182 267.008 81.7292 266.819 81.5511C266.633 81.3731 266.54 81.1591 266.54 80.9091C266.54 80.6591 266.633 80.4451 266.819 80.267C267.008 80.089 267.234 80 267.495 80C267.756 80 267.98 80.089 268.165 80.267C268.355 80.4451 268.45 80.6591 268.45 80.9091C268.45 81.1591 268.355 81.3731 268.165 81.5511C267.98 81.7292 267.756 81.8182 267.495 81.8182ZM270.61 95.2727V83.2727H271.906V84.6591H272.065C272.163 84.5076 272.299 84.3144 272.474 84.0795C272.652 83.8409 272.906 83.6288 273.235 83.4432C273.568 83.2538 274.019 83.1591 274.587 83.1591C275.322 83.1591 275.97 83.3428 276.531 83.7102C277.091 84.0777 277.529 84.5985 277.843 85.2727C278.157 85.947 278.315 86.7424 278.315 87.6591C278.315 88.5833 278.157 89.3845 277.843 90.0625C277.529 90.7367 277.093 91.2595 276.536 91.6307C275.979 91.9981 275.337 92.1818 274.61 92.1818C274.049 92.1818 273.601 92.089 273.263 91.9034C272.926 91.714 272.667 91.5 272.485 91.2614C272.303 91.0189 272.163 90.8182 272.065 90.6591H271.951V95.2727H270.61ZM271.928 87.6364C271.928 88.2955 272.025 88.8769 272.218 89.3807C272.411 89.8807 272.693 90.2727 273.065 90.5568C273.436 90.8371 273.89 90.9773 274.428 90.9773C274.989 90.9773 275.457 90.8295 275.832 90.5341C276.21 90.2348 276.495 89.8333 276.684 89.3295C276.877 88.822 276.974 88.2576 276.974 87.6364C276.974 87.0227 276.879 86.4697 276.69 85.9773C276.504 85.4811 276.222 85.089 275.843 84.8011C275.468 84.5095 274.996 84.3636 274.428 84.3636C273.883 84.3636 273.424 84.5019 273.053 84.7784C272.682 85.0511 272.402 85.4337 272.212 85.9261C272.023 86.4148 271.928 86.9848 271.928 87.6364ZM284.156 83.2727V84.4091H279.633V83.2727H284.156ZM280.951 81.1818H282.292V89.5C282.292 89.8788 282.347 90.1629 282.457 90.3523C282.57 90.5379 282.714 90.6629 282.888 90.7273C283.067 90.7879 283.254 90.8182 283.451 90.8182C283.599 90.8182 283.72 90.8106 283.815 90.7955C283.909 90.7765 283.985 90.7614 284.042 90.75L284.315 91.9545C284.224 91.9886 284.097 92.0227 283.934 92.0568C283.771 92.0947 283.565 92.1136 283.315 92.1136C282.936 92.1136 282.565 92.0322 282.201 91.8693C281.841 91.7064 281.542 91.4583 281.303 91.125C281.068 90.7917 280.951 90.3712 280.951 89.8636V81.1818ZM288.741 92.2045C288.188 92.2045 287.686 92.1004 287.235 91.892C286.784 91.6799 286.426 91.375 286.161 90.9773C285.896 90.5758 285.763 90.0909 285.763 89.5227C285.763 89.0227 285.862 88.6174 286.059 88.3068C286.256 87.9924 286.519 87.7462 286.849 87.5682C287.178 87.3902 287.542 87.2576 287.94 87.1705C288.341 87.0795 288.745 87.0076 289.15 86.9545C289.68 86.8864 290.11 86.8352 290.44 86.8011C290.773 86.7633 291.015 86.7008 291.167 86.6136C291.322 86.5265 291.4 86.375 291.4 86.1591V86.1136C291.4 85.553 291.246 85.1174 290.94 84.8068C290.637 84.4962 290.176 84.3409 289.559 84.3409C288.919 84.3409 288.417 84.4811 288.053 84.7614C287.69 85.0417 287.434 85.3409 287.286 85.6591L286.013 85.2045C286.241 84.6742 286.544 84.2614 286.923 83.9659C287.305 83.6667 287.722 83.4583 288.173 83.3409C288.627 83.2197 289.074 83.1591 289.513 83.1591C289.794 83.1591 290.116 83.1932 290.479 83.2614C290.847 83.3258 291.201 83.4602 291.542 83.6648C291.887 83.8693 292.173 84.178 292.4 84.5909C292.627 85.0038 292.741 85.5568 292.741 86.25V92H291.4V90.8182H291.332C291.241 91.0076 291.089 91.2102 290.877 91.4261C290.665 91.642 290.383 91.8258 290.031 91.9773C289.678 92.1288 289.248 92.2045 288.741 92.2045ZM288.945 91C289.476 91 289.923 90.8958 290.286 90.6875C290.654 90.4792 290.93 90.2102 291.116 89.8807C291.305 89.5511 291.4 89.2045 291.4 88.8409V87.6136C291.343 87.6818 291.218 87.7443 291.025 87.8011C290.835 87.8542 290.616 87.9015 290.366 87.9432C290.12 87.9811 289.879 88.0152 289.644 88.0455C289.413 88.072 289.226 88.0947 289.082 88.1136C288.733 88.1591 288.407 88.233 288.104 88.3352C287.805 88.4337 287.563 88.5833 287.377 88.7841C287.195 88.9811 287.104 89.25 287.104 89.5909C287.104 90.0568 287.277 90.4091 287.621 90.6477C287.97 90.8826 288.411 91 288.945 91ZM295.188 92V83.2727H296.484V84.5909H296.575C296.734 84.1591 297.022 83.8087 297.438 83.5398C297.855 83.2708 298.325 83.1364 298.847 83.1364C298.946 83.1364 299.069 83.1383 299.217 83.142C299.364 83.1458 299.476 83.1515 299.552 83.1591V84.5227C299.506 84.5114 299.402 84.4943 299.239 84.4716C299.08 84.4451 298.912 84.4318 298.734 84.4318C298.309 84.4318 297.931 84.5208 297.597 84.6989C297.268 84.8731 297.006 85.1155 296.813 85.4261C296.624 85.733 296.529 86.0833 296.529 86.4773V92H295.188ZM309.187 92.1818C308.399 92.1818 307.708 91.9943 307.113 91.6193C306.522 91.2443 306.06 90.7197 305.727 90.0455C305.397 89.3712 305.232 88.5833 305.232 87.6818C305.232 86.7727 305.397 85.9792 305.727 85.3011C306.06 84.6231 306.522 84.0966 307.113 83.7216C307.708 83.3466 308.399 83.1591 309.187 83.1591C309.975 83.1591 310.664 83.3466 311.255 83.7216C311.85 84.0966 312.312 84.6231 312.641 85.3011C312.975 85.9792 313.141 86.7727 313.141 87.6818C313.141 88.5833 312.975 89.3712 312.641 90.0455C312.312 90.7197 311.85 91.2443 311.255 91.6193C310.664 91.9943 309.975 92.1818 309.187 92.1818ZM309.187 90.9773C309.785 90.9773 310.278 90.8239 310.664 90.517C311.05 90.2102 311.336 89.8068 311.522 89.3068C311.708 88.8068 311.8 88.2652 311.8 87.6818C311.8 87.0985 311.708 86.5549 311.522 86.0511C311.336 85.5473 311.05 85.1402 310.664 84.8295C310.278 84.5189 309.785 84.3636 309.187 84.3636C308.588 84.3636 308.096 84.5189 307.71 84.8295C307.323 85.1402 307.037 85.5473 306.852 86.0511C306.666 86.5549 306.573 87.0985 306.573 87.6818C306.573 88.2652 306.666 88.8068 306.852 89.3068C307.037 89.8068 307.323 90.2102 307.71 90.517C308.096 90.8239 308.588 90.9773 309.187 90.9773ZM121.57 116.182C120.842 116.182 120.2 115.998 119.643 115.631C119.087 115.259 118.651 114.737 118.337 114.062C118.022 113.384 117.865 112.583 117.865 111.659C117.865 110.742 118.022 109.947 118.337 109.273C118.651 108.598 119.089 108.078 119.649 107.71C120.21 107.343 120.857 107.159 121.592 107.159C122.161 107.159 122.609 107.254 122.939 107.443C123.272 107.629 123.526 107.841 123.7 108.08C123.878 108.314 124.017 108.508 124.115 108.659H124.229V104.364H125.57V116H124.274V114.659H124.115C124.017 114.818 123.876 115.019 123.695 115.261C123.513 115.5 123.253 115.714 122.916 115.903C122.579 116.089 122.13 116.182 121.57 116.182ZM121.751 114.977C122.289 114.977 122.744 114.837 123.115 114.557C123.486 114.273 123.768 113.881 123.962 113.381C124.155 112.877 124.251 112.295 124.251 111.636C124.251 110.985 124.157 110.415 123.967 109.926C123.778 109.434 123.498 109.051 123.126 108.778C122.755 108.502 122.297 108.364 121.751 108.364C121.183 108.364 120.71 108.509 120.331 108.801C119.956 109.089 119.674 109.481 119.484 109.977C119.299 110.47 119.206 111.023 119.206 111.636C119.206 112.258 119.301 112.822 119.49 113.33C119.683 113.833 119.967 114.235 120.342 114.534C120.721 114.83 121.191 114.977 121.751 114.977ZM131.871 116.182C131.03 116.182 130.304 115.996 129.695 115.625C129.089 115.25 128.621 114.727 128.291 114.057C127.965 113.383 127.803 112.598 127.803 111.705C127.803 110.811 127.965 110.023 128.291 109.341C128.621 108.655 129.079 108.121 129.666 107.739C130.257 107.352 130.946 107.159 131.734 107.159C132.189 107.159 132.638 107.235 133.081 107.386C133.524 107.538 133.928 107.784 134.291 108.125C134.655 108.462 134.945 108.909 135.161 109.466C135.376 110.023 135.484 110.708 135.484 111.523V112.091H128.757V110.932H134.121C134.121 110.439 134.022 110 133.825 109.614C133.632 109.227 133.356 108.922 132.996 108.699C132.64 108.475 132.219 108.364 131.734 108.364C131.2 108.364 130.738 108.496 130.348 108.761C129.962 109.023 129.664 109.364 129.456 109.784C129.248 110.205 129.143 110.655 129.143 111.136V111.909C129.143 112.568 129.257 113.127 129.484 113.585C129.715 114.04 130.036 114.386 130.445 114.625C130.854 114.86 131.329 114.977 131.871 114.977C132.223 114.977 132.541 114.928 132.825 114.83C133.113 114.727 133.361 114.576 133.57 114.375C133.778 114.17 133.939 113.917 134.053 113.614L135.348 113.977C135.212 114.417 134.982 114.803 134.661 115.136C134.339 115.466 133.941 115.723 133.467 115.909C132.994 116.091 132.462 116.182 131.871 116.182ZM143.706 109.227L142.501 109.568C142.426 109.367 142.314 109.172 142.166 108.983C142.022 108.79 141.825 108.631 141.575 108.506C141.325 108.381 141.005 108.318 140.615 108.318C140.081 108.318 139.636 108.441 139.28 108.688C138.928 108.93 138.751 109.239 138.751 109.614C138.751 109.947 138.873 110.21 139.115 110.403C139.357 110.597 139.736 110.758 140.251 110.886L141.547 111.205C142.327 111.394 142.909 111.684 143.291 112.074C143.674 112.46 143.865 112.958 143.865 113.568C143.865 114.068 143.721 114.515 143.433 114.909C143.149 115.303 142.751 115.614 142.24 115.841C141.729 116.068 141.134 116.182 140.456 116.182C139.566 116.182 138.829 115.989 138.246 115.602C137.662 115.216 137.293 114.652 137.138 113.909L138.411 113.591C138.532 114.061 138.761 114.413 139.098 114.648C139.439 114.883 139.884 115 140.433 115C141.058 115 141.554 114.867 141.922 114.602C142.293 114.333 142.479 114.011 142.479 113.636C142.479 113.333 142.373 113.08 142.161 112.875C141.948 112.667 141.623 112.511 141.183 112.409L139.729 112.068C138.929 111.879 138.342 111.585 137.967 111.188C137.596 110.786 137.411 110.284 137.411 109.682C137.411 109.189 137.549 108.754 137.825 108.375C138.106 107.996 138.486 107.699 138.967 107.483C139.452 107.267 140.001 107.159 140.615 107.159C141.479 107.159 142.157 107.348 142.649 107.727C143.145 108.106 143.498 108.606 143.706 109.227ZM149.543 116.182C148.702 116.182 147.976 115.996 147.366 115.625C146.76 115.25 146.293 114.727 145.963 114.057C145.637 113.383 145.474 112.598 145.474 111.705C145.474 110.811 145.637 110.023 145.963 109.341C146.293 108.655 146.751 108.121 147.338 107.739C147.929 107.352 148.618 107.159 149.406 107.159C149.861 107.159 150.31 107.235 150.753 107.386C151.196 107.538 151.599 107.784 151.963 108.125C152.327 108.462 152.616 108.909 152.832 109.466C153.048 110.023 153.156 110.708 153.156 111.523V112.091H146.429V110.932H151.793C151.793 110.439 151.694 110 151.497 109.614C151.304 109.227 151.027 108.922 150.668 108.699C150.312 108.475 149.891 108.364 149.406 108.364C148.872 108.364 148.41 108.496 148.02 108.761C147.634 109.023 147.336 109.364 147.128 109.784C146.92 110.205 146.815 110.655 146.815 111.136V111.909C146.815 112.568 146.929 113.127 147.156 113.585C147.387 114.04 147.707 114.386 148.116 114.625C148.526 114.86 149.001 114.977 149.543 114.977C149.895 114.977 150.213 114.928 150.497 114.83C150.785 114.727 151.033 114.576 151.241 114.375C151.45 114.17 151.611 113.917 151.724 113.614L153.02 113.977C152.884 114.417 152.654 114.803 152.332 115.136C152.01 115.466 151.613 115.723 151.139 115.909C150.666 116.091 150.134 116.182 149.543 116.182ZM156.537 110.75V116H155.196V107.273H156.491V108.636H156.605C156.81 108.193 157.12 107.837 157.537 107.568C157.954 107.295 158.491 107.159 159.151 107.159C159.741 107.159 160.259 107.28 160.702 107.523C161.145 107.761 161.49 108.125 161.736 108.614C161.982 109.098 162.105 109.712 162.105 110.455V116H160.764V110.545C160.764 109.86 160.586 109.326 160.23 108.943C159.874 108.557 159.385 108.364 158.764 108.364C158.336 108.364 157.954 108.456 157.616 108.642C157.283 108.828 157.02 109.098 156.827 109.455C156.634 109.811 156.537 110.242 156.537 110.75ZM168.101 116.182C167.283 116.182 166.578 115.989 165.987 115.602C165.396 115.216 164.942 114.684 164.624 114.006C164.305 113.328 164.146 112.553 164.146 111.682C164.146 110.795 164.309 110.013 164.635 109.335C164.964 108.653 165.423 108.121 166.01 107.739C166.601 107.352 167.29 107.159 168.078 107.159C168.692 107.159 169.245 107.273 169.737 107.5C170.23 107.727 170.633 108.045 170.947 108.455C171.262 108.864 171.457 109.341 171.533 109.886H170.192C170.089 109.489 169.862 109.136 169.51 108.83C169.161 108.519 168.692 108.364 168.101 108.364C167.578 108.364 167.12 108.5 166.726 108.773C166.336 109.042 166.031 109.422 165.811 109.915C165.595 110.403 165.487 110.977 165.487 111.636C165.487 112.311 165.593 112.898 165.805 113.398C166.021 113.898 166.324 114.286 166.714 114.562C167.108 114.839 167.571 114.977 168.101 114.977C168.449 114.977 168.766 114.917 169.05 114.795C169.334 114.674 169.574 114.5 169.771 114.273C169.968 114.045 170.108 113.773 170.192 113.455H171.533C171.457 113.97 171.269 114.434 170.97 114.847C170.675 115.256 170.283 115.581 169.794 115.824C169.309 116.062 168.745 116.182 168.101 116.182ZM173.493 116V107.273H174.788V108.591H174.879C175.038 108.159 175.326 107.809 175.743 107.54C176.16 107.271 176.629 107.136 177.152 107.136C177.25 107.136 177.374 107.138 177.521 107.142C177.669 107.146 177.781 107.152 177.857 107.159V108.523C177.811 108.511 177.707 108.494 177.544 108.472C177.385 108.445 177.216 108.432 177.038 108.432C176.614 108.432 176.235 108.521 175.902 108.699C175.572 108.873 175.311 109.116 175.118 109.426C174.929 109.733 174.834 110.083 174.834 110.477V116H173.493ZM179.446 116V107.273H180.787V116H179.446ZM180.128 105.818C179.866 105.818 179.641 105.729 179.452 105.551C179.266 105.373 179.173 105.159 179.173 104.909C179.173 104.659 179.266 104.445 179.452 104.267C179.641 104.089 179.866 104 180.128 104C180.389 104 180.613 104.089 180.798 104.267C180.988 104.445 181.082 104.659 181.082 104.909C181.082 105.159 180.988 105.373 180.798 105.551C180.613 105.729 180.389 105.818 180.128 105.818ZM183.243 119.273V107.273H184.538V108.659H184.697C184.796 108.508 184.932 108.314 185.107 108.08C185.285 107.841 185.538 107.629 185.868 107.443C186.201 107.254 186.652 107.159 187.22 107.159C187.955 107.159 188.603 107.343 189.163 107.71C189.724 108.078 190.161 108.598 190.476 109.273C190.79 109.947 190.947 110.742 190.947 111.659C190.947 112.583 190.79 113.384 190.476 114.062C190.161 114.737 189.726 115.259 189.169 115.631C188.612 115.998 187.97 116.182 187.243 116.182C186.682 116.182 186.233 116.089 185.896 115.903C185.559 115.714 185.3 115.5 185.118 115.261C184.936 115.019 184.796 114.818 184.697 114.659H184.584V119.273H183.243ZM184.561 111.636C184.561 112.295 184.658 112.877 184.851 113.381C185.044 113.881 185.326 114.273 185.697 114.557C186.069 114.837 186.523 114.977 187.061 114.977C187.622 114.977 188.089 114.83 188.464 114.534C188.843 114.235 189.127 113.833 189.317 113.33C189.51 112.822 189.607 112.258 189.607 111.636C189.607 111.023 189.512 110.47 189.322 109.977C189.137 109.481 188.855 109.089 188.476 108.801C188.101 108.509 187.629 108.364 187.061 108.364C186.516 108.364 186.057 108.502 185.686 108.778C185.315 109.051 185.035 109.434 184.845 109.926C184.656 110.415 184.561 110.985 184.561 111.636ZM196.788 107.273V108.409H192.266V107.273H196.788ZM193.584 105.182H194.925V113.5C194.925 113.879 194.98 114.163 195.089 114.352C195.203 114.538 195.347 114.663 195.521 114.727C195.699 114.788 195.887 114.818 196.084 114.818C196.232 114.818 196.353 114.811 196.447 114.795C196.542 114.777 196.618 114.761 196.675 114.75L196.947 115.955C196.857 115.989 196.73 116.023 196.567 116.057C196.404 116.095 196.197 116.114 195.947 116.114C195.569 116.114 195.197 116.032 194.834 115.869C194.474 115.706 194.175 115.458 193.936 115.125C193.701 114.792 193.584 114.371 193.584 113.864V105.182ZM201.374 116.205C200.821 116.205 200.319 116.1 199.868 115.892C199.417 115.68 199.059 115.375 198.794 114.977C198.529 114.576 198.396 114.091 198.396 113.523C198.396 113.023 198.495 112.617 198.692 112.307C198.889 111.992 199.152 111.746 199.482 111.568C199.811 111.39 200.175 111.258 200.572 111.17C200.974 111.08 201.377 111.008 201.783 110.955C202.313 110.886 202.743 110.835 203.072 110.801C203.406 110.763 203.648 110.701 203.8 110.614C203.955 110.527 204.033 110.375 204.033 110.159V110.114C204.033 109.553 203.879 109.117 203.572 108.807C203.269 108.496 202.809 108.341 202.192 108.341C201.552 108.341 201.05 108.481 200.686 108.761C200.322 109.042 200.067 109.341 199.919 109.659L198.646 109.205C198.874 108.674 199.177 108.261 199.555 107.966C199.938 107.667 200.355 107.458 200.805 107.341C201.26 107.22 201.707 107.159 202.146 107.159C202.427 107.159 202.749 107.193 203.112 107.261C203.48 107.326 203.834 107.46 204.175 107.665C204.519 107.869 204.805 108.178 205.033 108.591C205.26 109.004 205.374 109.557 205.374 110.25V116H204.033V114.818H203.964C203.874 115.008 203.722 115.21 203.51 115.426C203.298 115.642 203.016 115.826 202.663 115.977C202.311 116.129 201.881 116.205 201.374 116.205ZM201.578 115C202.108 115 202.555 114.896 202.919 114.688C203.286 114.479 203.563 114.21 203.749 113.881C203.938 113.551 204.033 113.205 204.033 112.841V111.614C203.976 111.682 203.851 111.744 203.658 111.801C203.468 111.854 203.249 111.902 202.999 111.943C202.752 111.981 202.512 112.015 202.277 112.045C202.046 112.072 201.858 112.095 201.714 112.114C201.366 112.159 201.04 112.233 200.737 112.335C200.438 112.434 200.196 112.583 200.01 112.784C199.828 112.981 199.737 113.25 199.737 113.591C199.737 114.057 199.91 114.409 200.254 114.648C200.603 114.883 201.044 115 201.578 115ZM207.821 116V107.273H209.116V108.591H209.207C209.366 108.159 209.654 107.809 210.071 107.54C210.488 107.271 210.957 107.136 211.48 107.136C211.579 107.136 211.702 107.138 211.849 107.142C211.997 107.146 212.109 107.152 212.185 107.159V108.523C212.139 108.511 212.035 108.494 211.872 108.472C211.713 108.445 211.545 108.432 211.366 108.432C210.942 108.432 210.563 108.521 210.23 108.699C209.901 108.873 209.639 109.116 209.446 109.426C209.257 109.733 209.162 110.083 209.162 110.477V116H207.821ZM213.751 116.091C213.471 116.091 213.231 115.991 213.03 115.79C212.829 115.589 212.729 115.348 212.729 115.068C212.729 114.788 212.829 114.547 213.03 114.347C213.231 114.146 213.471 114.045 213.751 114.045C214.032 114.045 214.272 114.146 214.473 114.347C214.674 114.547 214.774 114.788 214.774 115.068C214.774 115.254 214.727 115.424 214.632 115.58C214.541 115.735 214.418 115.86 214.263 115.955C214.111 116.045 213.941 116.091 213.751 116.091Z" fill="#495057"/>
</svg>
