<svg width="299" height="18" viewBox="0 0 299 18" fill="none" xmlns="http://www.w3.org/2000/svg">
<g clip-path="url(#clip0_20_31)">
<path d="M16 9C16 11.1217 15.1571 13.1566 13.6569 14.6569C12.1566 16.1571 10.1217 17 8 17C5.87827 17 3.84344 16.1571 2.34315 14.6569C0.842855 13.1566 0 11.1217 0 9C0 6.87827 0.842855 4.84344 2.34315 3.34315C3.84344 1.84285 5.87827 1 8 1C10.1217 1 12.1566 1.84285 13.6569 3.34315C15.1571 4.84344 16 6.87827 16 9ZM8 5C7.87361 5.00007 7.74863 5.02662 7.63312 5.07793C7.51761 5.12924 7.41413 5.20418 7.32934 5.29791C7.24456 5.39165 7.18035 5.5021 7.14084 5.62217C7.10134 5.74223 7.08743 5.86923 7.1 5.995L7.45 9.502C7.46176 9.63977 7.5248 9.76811 7.62664 9.86164C7.72849 9.95516 7.86173 10.0071 8 10.0071C8.13827 10.0071 8.27151 9.95516 8.37336 9.86164C8.4752 9.76811 8.53824 9.63977 8.55 9.502L8.9 5.995C8.91257 5.86923 8.89866 5.74223 8.85915 5.62217C8.81965 5.5021 8.75544 5.39165 8.67066 5.29791C8.58587 5.20418 8.48239 5.12924 8.36688 5.07793C8.25137 5.02662 8.12639 5.00007 8 5ZM8.002 11C7.73678 11 7.48243 11.1054 7.29489 11.2929C7.10736 11.4804 7.002 11.7348 7.002 12C7.002 12.2652 7.10736 12.5196 7.29489 12.7071C7.48243 12.8946 7.73678 13 8.002 13C8.26722 13 8.52157 12.8946 8.70911 12.7071C8.89664 12.5196 9.002 12.2652 9.002 12C9.002 11.7348 8.89664 11.4804 8.70911 11.2929C8.52157 11.1054 8.26722 11 8.002 11Z" fill="#495057"/>
</g>
<path opacity="0.8" d="M29.8295 6.45455C29.7784 6.02273 29.571 5.6875 29.2074 5.44886C28.8438 5.21023 28.3977 5.09091 27.8693 5.09091C27.483 5.09091 27.1449 5.15341 26.8551 5.27841C26.5682 5.40341 26.3438 5.57528 26.1818 5.79403C26.0227 6.01278 25.9432 6.26136 25.9432 6.53977C25.9432 6.77273 25.9986 6.97301 26.1094 7.14062C26.223 7.3054 26.3679 7.44318 26.544 7.55398C26.7202 7.66193 26.9048 7.75142 27.098 7.82244C27.2912 7.89062 27.4688 7.94602 27.6307 7.98864L28.517 8.22727C28.7443 8.28693 28.9972 8.36932 29.2756 8.47443C29.5568 8.57955 29.8253 8.72301 30.081 8.90483C30.3395 9.08381 30.5526 9.31392 30.7202 9.59517C30.8878 9.87642 30.9716 10.2216 30.9716 10.6307C30.9716 11.1023 30.848 11.5284 30.6009 11.9091C30.3565 12.2898 29.9986 12.5923 29.527 12.8168C29.0582 13.0412 28.4886 13.1534 27.8182 13.1534C27.1932 13.1534 26.652 13.0526 26.1946 12.8509C25.7401 12.6491 25.3821 12.3679 25.1207 12.0071C24.8622 11.6463 24.7159 11.2273 24.6818 10.75H25.7727C25.8011 11.0795 25.9119 11.3523 26.1051 11.5682C26.3011 11.7812 26.5483 11.9403 26.8466 12.0455C27.1477 12.1477 27.4716 12.1989 27.8182 12.1989C28.2216 12.1989 28.5838 12.1335 28.9048 12.0028C29.2259 11.8693 29.4801 11.6847 29.6676 11.4489C29.8551 11.2102 29.9489 10.9318 29.9489 10.6136C29.9489 10.3239 29.8679 10.0881 29.706 9.90625C29.544 9.72443 29.331 9.5767 29.0668 9.46307C28.8026 9.34943 28.517 9.25 28.2102 9.16477L27.1364 8.85795C26.4545 8.66193 25.9148 8.3821 25.517 8.01847C25.1193 7.65483 24.9205 7.17898 24.9205 6.59091C24.9205 6.10227 25.0526 5.67614 25.3168 5.3125C25.5838 4.94602 25.9418 4.66193 26.3906 4.46023C26.8423 4.25568 27.3466 4.15341 27.9034 4.15341C28.4659 4.15341 28.9659 4.25426 29.4034 4.45597C29.8409 4.65483 30.1875 4.92756 30.4432 5.27415C30.7017 5.62074 30.8381 6.0142 30.8523 6.45455H29.8295ZM35.2319 13.1364C34.641 13.1364 34.1225 12.9957 33.6765 12.7145C33.2333 12.4332 32.8867 12.0398 32.6367 11.5341C32.3896 11.0284 32.266 10.4375 32.266 9.76136C32.266 9.07955 32.3896 8.48437 32.6367 7.97585C32.8867 7.46733 33.2333 7.07244 33.6765 6.79119C34.1225 6.50994 34.641 6.36932 35.2319 6.36932C35.8228 6.36932 36.3398 6.50994 36.783 6.79119C37.229 7.07244 37.5756 7.46733 37.8228 7.97585C38.0728 8.48437 38.1978 9.07955 38.1978 9.76136C38.1978 10.4375 38.0728 11.0284 37.8228 11.5341C37.5756 12.0398 37.229 12.4332 36.783 12.7145C36.3398 12.9957 35.8228 13.1364 35.2319 13.1364ZM35.2319 12.233C35.6808 12.233 36.0501 12.1179 36.3398 11.8878C36.6296 11.6577 36.8441 11.3551 36.9833 10.9801C37.1225 10.6051 37.1921 10.1989 37.1921 9.76136C37.1921 9.32386 37.1225 8.91619 36.9833 8.53835C36.8441 8.16051 36.6296 7.85511 36.3398 7.62216C36.0501 7.3892 35.6808 7.27273 35.2319 7.27273C34.783 7.27273 34.4137 7.3892 34.1239 7.62216C33.8342 7.85511 33.6197 8.16051 33.4805 8.53835C33.3413 8.91619 33.2717 9.32386 33.2717 9.76136C33.2717 10.1989 33.3413 10.6051 33.4805 10.9801C33.6197 11.3551 33.8342 11.6577 34.1239 11.8878C34.4137 12.1179 34.783 12.233 35.2319 12.233ZM40.7386 4.27273V13H39.733V4.27273H40.7386ZM45.2397 13.1364C44.6488 13.1364 44.1303 12.9957 43.6843 12.7145C43.2411 12.4332 42.8945 12.0398 42.6445 11.5341C42.3974 11.0284 42.2738 10.4375 42.2738 9.76136C42.2738 9.07955 42.3974 8.48437 42.6445 7.97585C42.8945 7.46733 43.2411 7.07244 43.6843 6.79119C44.1303 6.50994 44.6488 6.36932 45.2397 6.36932C45.8306 6.36932 46.3477 6.50994 46.7908 6.79119C47.2369 7.07244 47.5835 7.46733 47.8306 7.97585C48.0806 8.48437 48.2056 9.07955 48.2056 9.76136C48.2056 10.4375 48.0806 11.0284 47.8306 11.5341C47.5835 12.0398 47.2369 12.4332 46.7908 12.7145C46.3477 12.9957 45.8306 13.1364 45.2397 13.1364ZM45.2397 12.233C45.6886 12.233 46.0579 12.1179 46.3477 11.8878C46.6374 11.6577 46.8519 11.3551 46.9911 10.9801C47.1303 10.6051 47.1999 10.1989 47.1999 9.76136C47.1999 9.32386 47.1303 8.91619 46.9911 8.53835C46.8519 8.16051 46.6374 7.85511 46.3477 7.62216C46.0579 7.3892 45.6886 7.27273 45.2397 7.27273C44.7908 7.27273 44.4215 7.3892 44.1317 7.62216C43.842 7.85511 43.6275 8.16051 43.4883 8.53835C43.3491 8.91619 43.2795 9.32386 43.2795 9.76136C43.2795 10.1989 43.3491 10.6051 43.4883 10.9801C43.6275 11.3551 43.842 11.6577 44.1317 11.8878C44.4215 12.1179 44.7908 12.233 45.2397 12.233ZM57.7521 7.92045L56.8487 8.17614C56.7919 8.02557 56.7081 7.87926 56.5973 7.73722C56.4893 7.59233 56.3416 7.47301 56.1541 7.37926C55.9666 7.28551 55.7266 7.23864 55.4339 7.23864C55.0334 7.23864 54.6996 7.33097 54.4325 7.51562C54.1683 7.69744 54.0362 7.92898 54.0362 8.21023C54.0362 8.46023 54.1271 8.65767 54.3089 8.80256C54.4908 8.94744 54.7749 9.06818 55.1612 9.16477L56.1328 9.40341C56.718 9.54545 57.1541 9.76278 57.4411 10.0554C57.728 10.3452 57.8714 10.7187 57.8714 11.1761C57.8714 11.5511 57.7635 11.8864 57.5476 12.1818C57.3345 12.4773 57.0362 12.7102 56.6527 12.8807C56.2692 13.0511 55.8232 13.1364 55.3146 13.1364C54.647 13.1364 54.0945 12.9915 53.657 12.7017C53.2195 12.4119 52.9425 11.9886 52.826 11.4318L53.7805 11.1932C53.8714 11.5455 54.0433 11.8097 54.2962 11.9858C54.5518 12.1619 54.8857 12.25 55.2976 12.25C55.7663 12.25 56.1385 12.1506 56.4141 11.9517C56.6925 11.75 56.8317 11.5085 56.8317 11.2273C56.8317 11 56.7521 10.8097 56.593 10.6562C56.4339 10.5 56.1896 10.3835 55.8601 10.3068L54.7692 10.0511C54.1697 9.90909 53.7294 9.68892 53.4482 9.39062C53.1697 9.08949 53.0305 8.71307 53.0305 8.26136C53.0305 7.89205 53.1342 7.56534 53.3416 7.28125C53.5518 6.99716 53.8374 6.77415 54.1982 6.61222C54.5618 6.45028 54.9737 6.36932 55.4339 6.36932C56.0817 6.36932 56.5902 6.51136 56.9595 6.79545C57.3317 7.07955 57.5959 7.45455 57.7521 7.92045ZM62.1296 13.1364C61.4989 13.1364 60.9549 12.9972 60.4975 12.7188C60.043 12.4375 59.6921 12.0455 59.445 11.5426C59.2006 11.0369 59.0785 10.4489 59.0785 9.77841C59.0785 9.10795 59.2006 8.51705 59.445 8.00568C59.6921 7.49148 60.0359 7.09091 60.4762 6.80398C60.9194 6.5142 61.4364 6.36932 62.0273 6.36932C62.3683 6.36932 62.7049 6.42614 63.0373 6.53977C63.3697 6.65341 63.6722 6.83807 63.945 7.09375C64.2177 7.34659 64.435 7.68182 64.5969 8.09943C64.7589 8.51705 64.8398 9.03125 64.8398 9.64205V10.0682H59.7944V9.19886H63.8171C63.8171 8.82955 63.7433 8.5 63.5955 8.21023C63.4506 7.92045 63.2433 7.69176 62.9734 7.52415C62.7063 7.35653 62.391 7.27273 62.0273 7.27273C61.6268 7.27273 61.2802 7.37216 60.9876 7.57102C60.6978 7.76705 60.4748 8.02273 60.3185 8.33807C60.1623 8.65341 60.0842 8.99148 60.0842 9.35227V9.93182C60.0842 10.4261 60.1694 10.8452 60.3398 11.1889C60.5131 11.5298 60.7532 11.7898 61.06 11.9688C61.3668 12.1449 61.7234 12.233 62.1296 12.233C62.3938 12.233 62.6325 12.196 62.8455 12.1222C63.0614 12.0455 63.2475 11.9318 63.4038 11.7812C63.56 11.6278 63.6808 11.4375 63.766 11.2102L64.7376 11.483C64.6353 11.8125 64.4634 12.1023 64.2219 12.3523C63.9805 12.5994 63.6822 12.7926 63.3271 12.9318C62.9719 13.0682 62.5728 13.1364 62.1296 13.1364ZM69.7447 15.4545V6.45455H70.7163V7.49432H70.8356C70.9094 7.38068 71.0117 7.2358 71.1424 7.05966C71.2759 6.88068 71.4663 6.72159 71.7134 6.58239C71.9634 6.44034 72.3015 6.36932 72.7276 6.36932C73.2788 6.36932 73.7646 6.5071 74.185 6.78267C74.6055 7.05824 74.9336 7.44886 75.1694 7.95455C75.4052 8.46023 75.5231 9.05682 75.5231 9.74432C75.5231 10.4375 75.4052 11.0384 75.1694 11.5469C74.9336 12.0526 74.6069 12.4446 74.1893 12.723C73.7717 12.9986 73.2901 13.1364 72.7447 13.1364C72.3242 13.1364 71.9876 13.0668 71.7347 12.9276C71.4819 12.7855 71.2873 12.625 71.1509 12.446C71.0146 12.2642 70.9094 12.1136 70.8356 11.9943H70.7504V15.4545H69.7447ZM70.7333 9.72727C70.7333 10.2216 70.8058 10.6577 70.9506 11.0355C71.0955 11.4105 71.3072 11.7045 71.5856 11.9176C71.864 12.1278 72.2049 12.233 72.6083 12.233C73.0288 12.233 73.3796 12.1222 73.6609 11.9006C73.945 11.6761 74.158 11.375 74.3001 10.9972C74.445 10.6165 74.5174 10.1932 74.5174 9.72727C74.5174 9.26705 74.4464 8.85227 74.3043 8.48295C74.1651 8.1108 73.9535 7.81676 73.6694 7.60085C73.3881 7.3821 73.0344 7.27273 72.6083 7.27273C72.1992 7.27273 71.8555 7.37642 71.5771 7.58381C71.2987 7.78835 71.0884 8.07528 70.9464 8.4446C70.8043 8.81108 70.7333 9.23864 70.7333 9.72727ZM79.8015 13.1364C79.1708 13.1364 78.6268 12.9972 78.1694 12.7188C77.7148 12.4375 77.364 12.0455 77.1168 11.5426C76.8725 11.0369 76.7504 10.4489 76.7504 9.77841C76.7504 9.10795 76.8725 8.51705 77.1168 8.00568C77.364 7.49148 77.7077 7.09091 78.1481 6.80398C78.5913 6.5142 79.1083 6.36932 79.6992 6.36932C80.0401 6.36932 80.3768 6.42614 80.7092 6.53977C81.0415 6.65341 81.3441 6.83807 81.6168 7.09375C81.8896 7.34659 82.1069 7.68182 82.2688 8.09943C82.4308 8.51705 82.5117 9.03125 82.5117 9.64205V10.0682H77.4663V9.19886H81.489C81.489 8.82955 81.4151 8.5 81.2674 8.21023C81.1225 7.92045 80.9151 7.69176 80.6452 7.52415C80.3782 7.35653 80.0629 7.27273 79.6992 7.27273C79.2987 7.27273 78.9521 7.37216 78.6594 7.57102C78.3697 7.76705 78.1467 8.02273 77.9904 8.33807C77.8342 8.65341 77.756 8.99148 77.756 9.35227V9.93182C77.756 10.4261 77.8413 10.8452 78.0117 11.1889C78.185 11.5298 78.4251 11.7898 78.7319 11.9688C79.0387 12.1449 79.3952 12.233 79.8015 12.233C80.0657 12.233 80.3043 12.196 80.5174 12.1222C80.7333 12.0455 80.9194 11.9318 81.0756 11.7812C81.2319 11.6278 81.3526 11.4375 81.4379 11.2102L82.4094 11.483C82.3072 11.8125 82.1353 12.1023 81.8938 12.3523C81.6523 12.5994 81.354 12.7926 80.9989 12.9318C80.6438 13.0682 80.2447 13.1364 79.8015 13.1364ZM84.0415 13V6.45455H85.0131V7.44318H85.0813C85.2006 7.11932 85.4165 6.85653 85.729 6.65483C86.0415 6.45312 86.3938 6.35227 86.7859 6.35227C86.8597 6.35227 86.9521 6.35369 87.0629 6.35653C87.1737 6.35937 87.2575 6.36364 87.3143 6.36932V7.39205C87.2802 7.38352 87.2021 7.37074 87.0799 7.35369C86.9606 7.33381 86.8342 7.32386 86.7006 7.32386C86.3825 7.32386 86.0984 7.39062 85.8484 7.52415C85.6012 7.65483 85.4052 7.83665 85.2603 8.0696C85.1183 8.29972 85.0472 8.5625 85.0472 8.85795V13H84.0415ZM88.5064 13V6.45455H89.478V7.47727H89.5632C89.6996 7.12784 89.9197 6.85653 90.2237 6.66335C90.5277 6.46733 90.8928 6.36932 91.3189 6.36932C91.7507 6.36932 92.1101 6.46733 92.397 6.66335C92.6868 6.85653 92.9126 7.12784 93.0746 7.47727H93.1428C93.3104 7.1392 93.5618 6.87074 93.897 6.67188C94.2322 6.47017 94.6342 6.36932 95.103 6.36932C95.6882 6.36932 96.1669 6.55256 96.5391 6.91903C96.9112 7.28267 97.0973 7.84943 97.0973 8.61932V13H96.0916V8.61932C96.0916 8.13636 95.9595 7.79119 95.6953 7.58381C95.4311 7.37642 95.12 7.27273 94.7621 7.27273C94.3018 7.27273 93.9453 7.41193 93.6925 7.69034C93.4396 7.96591 93.3132 8.31534 93.3132 8.73864V13H92.2905V8.51705C92.2905 8.14489 92.1697 7.84517 91.9283 7.6179C91.6868 7.38778 91.3757 7.27273 90.995 7.27273C90.7337 7.27273 90.4893 7.34233 90.2621 7.48153C90.0376 7.62074 89.8558 7.81392 89.7166 8.06108C89.5803 8.3054 89.5121 8.58807 89.5121 8.90909V13H88.5064ZM98.9361 13V6.45455H99.9418V13H98.9361ZM99.4474 5.36364C99.2514 5.36364 99.0824 5.29688 98.9403 5.16335C98.8011 5.02983 98.7315 4.86932 98.7315 4.68182C98.7315 4.49432 98.8011 4.33381 98.9403 4.20028C99.0824 4.06676 99.2514 4 99.4474 4C99.6435 4 99.8111 4.06676 99.9503 4.20028C100.092 4.33381 100.163 4.49432 100.163 4.68182C100.163 4.86932 100.092 5.02983 99.9503 5.16335C99.8111 5.29688 99.6435 5.36364 99.4474 5.36364ZM104.63 6.45455V7.30682H101.238V6.45455H104.63ZM102.227 4.88636H103.233V11.125C103.233 11.4091 103.274 11.6222 103.356 11.7642C103.441 11.9034 103.549 11.9972 103.68 12.0455C103.814 12.0909 103.954 12.1136 104.102 12.1136C104.213 12.1136 104.304 12.108 104.375 12.0966C104.446 12.0824 104.502 12.071 104.545 12.0625L104.75 12.9659C104.681 12.9915 104.586 13.017 104.464 13.0426C104.342 13.071 104.187 13.0852 104 13.0852C103.716 13.0852 103.437 13.0241 103.164 12.902C102.895 12.7798 102.67 12.5938 102.491 12.3438C102.315 12.0938 102.227 11.7784 102.227 11.3977V4.88636ZM108.817 13.1364C108.186 13.1364 107.642 12.9972 107.185 12.7188C106.73 12.4375 106.38 12.0455 106.132 11.5426C105.888 11.0369 105.766 10.4489 105.766 9.77841C105.766 9.10795 105.888 8.51705 106.132 8.00568C106.38 7.49148 106.723 7.09091 107.164 6.80398C107.607 6.5142 108.124 6.36932 108.715 6.36932C109.056 6.36932 109.392 6.42614 109.725 6.53977C110.057 6.65341 110.36 6.83807 110.632 7.09375C110.905 7.34659 111.123 7.68182 111.284 8.09943C111.446 8.51705 111.527 9.03125 111.527 9.64205V10.0682H106.482V9.19886H110.505C110.505 8.82955 110.431 8.5 110.283 8.21023C110.138 7.92045 109.931 7.69176 109.661 7.52415C109.394 7.35653 109.078 7.27273 108.715 7.27273C108.314 7.27273 107.968 7.37216 107.675 7.57102C107.385 7.76705 107.162 8.02273 107.006 8.33807C106.85 8.65341 106.772 8.99148 106.772 9.35227V9.93182C106.772 10.4261 106.857 10.8452 107.027 11.1889C107.201 11.5298 107.441 11.7898 107.748 11.9688C108.054 12.1449 108.411 12.233 108.817 12.233C109.081 12.233 109.32 12.196 109.533 12.1222C109.749 12.0455 109.935 11.9318 110.091 11.7812C110.248 11.6278 110.368 11.4375 110.453 11.2102L111.425 11.483C111.323 11.8125 111.151 12.1023 110.909 12.3523C110.668 12.5994 110.37 12.7926 110.015 12.9318C109.659 13.0682 109.26 13.1364 108.817 13.1364ZM114.063 9.0625V13H113.057V6.45455H114.029V7.47727H114.114C114.267 7.14489 114.5 6.87784 114.813 6.67614C115.125 6.47159 115.529 6.36932 116.023 6.36932C116.466 6.36932 116.854 6.46023 117.186 6.64205C117.519 6.82102 117.777 7.09375 117.962 7.46023C118.147 7.82386 118.239 8.28409 118.239 8.84091V13H117.233V8.90909C117.233 8.39489 117.1 7.99432 116.833 7.70739C116.566 7.41761 116.199 7.27273 115.733 7.27273C115.412 7.27273 115.125 7.34233 114.873 7.48153C114.623 7.62074 114.425 7.82386 114.28 8.09091C114.135 8.35795 114.063 8.68182 114.063 9.0625ZM124.457 4.27273V13H123.452V4.27273H124.457ZM129.044 13.1364C128.413 13.1364 127.869 12.9972 127.412 12.7188C126.957 12.4375 126.606 12.0455 126.359 11.5426C126.115 11.0369 125.993 10.4489 125.993 9.77841C125.993 9.10795 126.115 8.51705 126.359 8.00568C126.606 7.49148 126.95 7.09091 127.39 6.80398C127.833 6.5142 128.35 6.36932 128.941 6.36932C129.282 6.36932 129.619 6.42614 129.951 6.53977C130.284 6.65341 130.586 6.83807 130.859 7.09375C131.132 7.34659 131.349 7.68182 131.511 8.09943C131.673 8.51705 131.754 9.03125 131.754 9.64205V10.0682H126.708V9.19886H130.731C130.731 8.82955 130.657 8.5 130.51 8.21023C130.365 7.92045 130.157 7.69176 129.887 7.52415C129.62 7.35653 129.305 7.27273 128.941 7.27273C128.541 7.27273 128.194 7.37216 127.902 7.57102C127.612 7.76705 127.389 8.02273 127.233 8.33807C127.076 8.65341 126.998 8.99148 126.998 9.35227V9.93182C126.998 10.4261 127.083 10.8452 127.254 11.1889C127.427 11.5298 127.667 11.7898 127.974 11.9688C128.281 12.1449 128.637 12.233 129.044 12.233C129.308 12.233 129.547 12.196 129.76 12.1222C129.975 12.0455 130.162 11.9318 130.318 11.7812C130.474 11.6278 130.595 11.4375 130.68 11.2102L131.652 11.483C131.549 11.8125 131.377 12.1023 131.136 12.3523C130.895 12.5994 130.596 12.7926 130.241 12.9318C129.886 13.0682 129.487 13.1364 129.044 13.1364ZM136.13 6.45455V7.30682H132.738V6.45455H136.13ZM133.727 4.88636H134.733V11.125C134.733 11.4091 134.774 11.6222 134.856 11.7642C134.941 11.9034 135.049 11.9972 135.18 12.0455C135.314 12.0909 135.454 12.1136 135.602 12.1136C135.713 12.1136 135.804 12.108 135.875 12.0966C135.946 12.0824 136.002 12.071 136.045 12.0625L136.25 12.9659C136.181 12.9915 136.086 13.017 135.964 13.0426C135.842 13.071 135.687 13.0852 135.5 13.0852C135.216 13.0852 134.937 13.0241 134.664 12.902C134.395 12.7798 134.17 12.5938 133.991 12.3438C133.815 12.0938 133.727 11.7784 133.727 11.3977V4.88636ZM137.643 13V6.45455H138.615V7.44318H138.683C138.802 7.11932 139.018 6.85653 139.331 6.65483C139.643 6.45312 139.995 6.35227 140.387 6.35227C140.461 6.35227 140.554 6.35369 140.664 6.35653C140.775 6.35937 140.859 6.36364 140.916 6.36932V7.39205C140.882 7.38352 140.804 7.37074 140.681 7.35369C140.562 7.33381 140.436 7.32386 140.302 7.32386C139.984 7.32386 139.7 7.39062 139.45 7.52415C139.203 7.65483 139.007 7.83665 138.862 8.0696C138.72 8.29972 138.649 8.5625 138.649 8.85795V13H137.643ZM144.034 13.1534C143.619 13.1534 143.243 13.0753 142.905 12.919C142.567 12.7599 142.298 12.5312 142.099 12.233C141.901 11.9318 141.801 11.5682 141.801 11.142C141.801 10.767 141.875 10.4631 142.023 10.2301C142.17 9.99432 142.368 9.80966 142.615 9.67614C142.862 9.54261 143.135 9.44318 143.433 9.37784C143.734 9.30966 144.037 9.25568 144.341 9.21591C144.739 9.16477 145.061 9.12642 145.308 9.10085C145.558 9.07244 145.74 9.02557 145.854 8.96023C145.97 8.89489 146.028 8.78125 146.028 8.61932V8.58523C146.028 8.16477 145.913 7.83807 145.683 7.60511C145.456 7.37216 145.111 7.25568 144.648 7.25568C144.168 7.25568 143.791 7.3608 143.518 7.57102C143.246 7.78125 143.054 8.00568 142.943 8.24432L141.989 7.90341C142.159 7.50568 142.386 7.19602 142.67 6.97443C142.957 6.75 143.27 6.59375 143.608 6.50568C143.949 6.41477 144.284 6.36932 144.614 6.36932C144.824 6.36932 145.065 6.39489 145.338 6.44602C145.614 6.49432 145.879 6.59517 146.135 6.74858C146.393 6.90199 146.608 7.13352 146.778 7.44318C146.949 7.75284 147.034 8.16761 147.034 8.6875V13H146.028V12.1136H145.977C145.909 12.2557 145.795 12.4077 145.636 12.5696C145.477 12.7315 145.266 12.8693 145.001 12.983C144.737 13.0966 144.415 13.1534 144.034 13.1534ZM144.188 12.25C144.585 12.25 144.92 12.1719 145.193 12.0156C145.469 11.8594 145.676 11.6577 145.815 11.4105C145.957 11.1634 146.028 10.9034 146.028 10.6307V9.71023C145.986 9.76136 145.892 9.80824 145.747 9.85085C145.605 9.89062 145.44 9.92614 145.253 9.95739C145.068 9.9858 144.888 10.0114 144.712 10.0341C144.538 10.054 144.398 10.071 144.29 10.0852C144.028 10.1193 143.784 10.1747 143.557 10.2514C143.332 10.3253 143.151 10.4375 143.011 10.5881C142.875 10.7358 142.807 10.9375 142.807 11.1932C142.807 11.5426 142.936 11.8068 143.195 11.9858C143.456 12.1619 143.787 12.25 144.188 12.25ZM153.506 7.92045L152.603 8.17614C152.546 8.02557 152.462 7.87926 152.351 7.73722C152.243 7.59233 152.096 7.47301 151.908 7.37926C151.721 7.28551 151.48 7.23864 151.188 7.23864C150.787 7.23864 150.453 7.33097 150.186 7.51562C149.922 7.69744 149.79 7.92898 149.79 8.21023C149.79 8.46023 149.881 8.65767 150.063 8.80256C150.245 8.94744 150.529 9.06818 150.915 9.16477L151.887 9.40341C152.472 9.54545 152.908 9.76278 153.195 10.0554C153.482 10.3452 153.625 10.7187 153.625 11.1761C153.625 11.5511 153.517 11.8864 153.301 12.1818C153.088 12.4773 152.79 12.7102 152.407 12.8807C152.023 13.0511 151.577 13.1364 151.069 13.1364C150.401 13.1364 149.848 12.9915 149.411 12.7017C148.973 12.4119 148.696 11.9886 148.58 11.4318L149.534 11.1932C149.625 11.5455 149.797 11.8097 150.05 11.9858C150.306 12.1619 150.64 12.25 151.051 12.25C151.52 12.25 151.892 12.1506 152.168 11.9517C152.446 11.75 152.586 11.5085 152.586 11.2273C152.586 11 152.506 10.8097 152.347 10.6562C152.188 10.5 151.944 10.3835 151.614 10.3068L150.523 10.0511C149.924 9.90909 149.483 9.68892 149.202 9.39062C148.924 9.08949 148.784 8.71307 148.784 8.26136C148.784 7.89205 148.888 7.56534 149.096 7.28125C149.306 6.99716 149.591 6.77415 149.952 6.61222C150.316 6.45028 150.728 6.36932 151.188 6.36932C151.836 6.36932 152.344 6.51136 152.713 6.79545C153.086 7.07955 153.35 7.45455 153.506 7.92045ZM158.514 13V6.45455H159.486V7.47727H159.571C159.707 7.12784 159.928 6.85653 160.232 6.66335C160.536 6.46733 160.901 6.36932 161.327 6.36932C161.759 6.36932 162.118 6.46733 162.405 6.66335C162.695 6.85653 162.92 7.12784 163.082 7.47727H163.151C163.318 7.1392 163.57 6.87074 163.905 6.67188C164.24 6.47017 164.642 6.36932 165.111 6.36932C165.696 6.36932 166.175 6.55256 166.547 6.91903C166.919 7.28267 167.105 7.84943 167.105 8.61932V13H166.099V8.61932C166.099 8.13636 165.967 7.79119 165.703 7.58381C165.439 7.37642 165.128 7.27273 164.77 7.27273C164.31 7.27273 163.953 7.41193 163.7 7.69034C163.447 7.96591 163.321 8.31534 163.321 8.73864V13H162.298V8.51705C162.298 8.14489 162.178 7.84517 161.936 7.6179C161.695 7.38778 161.384 7.27273 161.003 7.27273C160.741 7.27273 160.497 7.34233 160.27 7.48153C160.045 7.62074 159.864 7.81392 159.724 8.06108C159.588 8.3054 159.52 8.58807 159.52 8.90909V13H158.514ZM168.944 13V6.45455H169.95V13H168.944ZM169.455 5.36364C169.259 5.36364 169.09 5.29688 168.948 5.16335C168.809 5.02983 168.739 4.86932 168.739 4.68182C168.739 4.49432 168.809 4.33381 168.948 4.20028C169.09 4.06676 169.259 4 169.455 4C169.651 4 169.819 4.06676 169.958 4.20028C170.1 4.33381 170.171 4.49432 170.171 4.68182C170.171 4.86932 170.1 5.02983 169.958 5.16335C169.819 5.29688 169.651 5.36364 169.455 5.36364ZM172.797 9.0625V13H171.792V6.45455H172.763V7.47727H172.848C173.002 7.14489 173.235 6.87784 173.547 6.67614C173.86 6.47159 174.263 6.36932 174.757 6.36932C175.201 6.36932 175.588 6.46023 175.921 6.64205C176.253 6.82102 176.512 7.09375 176.696 7.46023C176.881 7.82386 176.973 8.28409 176.973 8.84091V13H175.968V8.90909C175.968 8.39489 175.834 7.99432 175.567 7.70739C175.3 7.41761 174.934 7.27273 174.468 7.27273C174.147 7.27273 173.86 7.34233 173.607 7.48153C173.357 7.62074 173.159 7.82386 173.015 8.09091C172.87 8.35795 172.797 8.68182 172.797 9.0625ZM182.936 10.3239V6.45455H183.942V13H182.936V11.892H182.868C182.714 12.2244 182.476 12.5071 182.152 12.7401C181.828 12.9702 181.419 13.0852 180.925 13.0852C180.516 13.0852 180.152 12.9957 179.834 12.8168C179.516 12.6349 179.266 12.3622 179.084 11.9986C178.902 11.6321 178.811 11.1705 178.811 10.6136V6.45455H179.817V10.5455C179.817 11.0227 179.95 11.4034 180.217 11.6875C180.487 11.9716 180.831 12.1136 181.249 12.1136C181.499 12.1136 181.753 12.0497 182.011 11.9219C182.273 11.794 182.491 11.598 182.668 11.3338C182.847 11.0696 182.936 10.733 182.936 10.3239ZM180.925 5.56818L181.964 3.59091H183.141L181.811 5.56818H180.925ZM190.42 7.92045L189.517 8.17614C189.46 8.02557 189.376 7.87926 189.265 7.73722C189.157 7.59233 189.01 7.47301 188.822 7.37926C188.635 7.28551 188.395 7.23864 188.102 7.23864C187.701 7.23864 187.368 7.33097 187.1 7.51562C186.836 7.69744 186.704 7.92898 186.704 8.21023C186.704 8.46023 186.795 8.65767 186.977 8.80256C187.159 8.94744 187.443 9.06818 187.829 9.16477L188.801 9.40341C189.386 9.54545 189.822 9.76278 190.109 10.0554C190.396 10.3452 190.539 10.7187 190.539 11.1761C190.539 11.5511 190.431 11.8864 190.216 12.1818C190.002 12.4773 189.704 12.7102 189.321 12.8807C188.937 13.0511 188.491 13.1364 187.983 13.1364C187.315 13.1364 186.762 12.9915 186.325 12.7017C185.887 12.4119 185.61 11.9886 185.494 11.4318L186.449 11.1932C186.539 11.5455 186.711 11.8097 186.964 11.9858C187.22 12.1619 187.554 12.25 187.966 12.25C188.434 12.25 188.806 12.1506 189.082 11.9517C189.36 11.75 189.5 11.5085 189.5 11.2273C189.5 11 189.42 10.8097 189.261 10.6562C189.102 10.5 188.858 10.3835 188.528 10.3068L187.437 10.0511C186.838 9.90909 186.397 9.68892 186.116 9.39062C185.838 9.08949 185.699 8.71307 185.699 8.26136C185.699 7.89205 185.802 7.56534 186.01 7.28125C186.22 6.99716 186.505 6.77415 186.866 6.61222C187.23 6.45028 187.642 6.36932 188.102 6.36932C188.75 6.36932 189.258 6.51136 189.627 6.79545C190 7.07955 190.264 7.45455 190.42 7.92045ZM194.712 13.1364C194.099 13.1364 193.57 12.9915 193.127 12.7017C192.684 12.4119 192.343 12.0128 192.104 11.5043C191.866 10.9957 191.746 10.4148 191.746 9.76136C191.746 9.09659 191.869 8.50994 192.113 8.00142C192.36 7.49006 192.704 7.09091 193.144 6.80398C193.587 6.5142 194.104 6.36932 194.695 6.36932C195.156 6.36932 195.57 6.45455 195.94 6.625C196.309 6.79545 196.612 7.03409 196.847 7.34091C197.083 7.64773 197.229 8.00568 197.286 8.41477H196.281C196.204 8.11648 196.033 7.85227 195.769 7.62216C195.508 7.3892 195.156 7.27273 194.712 7.27273C194.32 7.27273 193.977 7.375 193.681 7.57955C193.388 7.78125 193.16 8.06676 192.995 8.43608C192.833 8.80256 192.752 9.23295 192.752 9.72727C192.752 10.233 192.832 10.6733 192.991 11.0483C193.153 11.4233 193.38 11.7145 193.673 11.9219C193.968 12.1293 194.315 12.233 194.712 12.233C194.974 12.233 195.211 12.1875 195.424 12.0966C195.637 12.0057 195.817 11.875 195.965 11.7045C196.113 11.5341 196.218 11.3295 196.281 11.0909H197.286C197.229 11.4773 197.089 11.8253 196.864 12.1349C196.643 12.4418 196.349 12.6861 195.982 12.8679C195.619 13.0469 195.195 13.1364 194.712 13.1364ZM202.881 10.3239V6.45455H203.887V13H202.881V11.892H202.813C202.66 12.2244 202.421 12.5071 202.097 12.7401C201.773 12.9702 201.364 13.0852 200.87 13.0852C200.461 13.0852 200.097 12.9957 199.779 12.8168C199.461 12.6349 199.211 12.3622 199.029 11.9986C198.847 11.6321 198.756 11.1705 198.756 10.6136V6.45455H199.762V10.5455C199.762 11.0227 199.896 11.4034 200.163 11.6875C200.433 11.9716 200.776 12.1136 201.194 12.1136C201.444 12.1136 201.698 12.0497 201.957 11.9219C202.218 11.794 202.437 11.598 202.613 11.3338C202.792 11.0696 202.881 10.733 202.881 10.3239ZM206.735 4.27273V13H205.729V4.27273H206.735ZM210.503 13.1534C210.088 13.1534 209.712 13.0753 209.374 12.919C209.036 12.7599 208.767 12.5312 208.568 12.233C208.369 11.9318 208.27 11.5682 208.27 11.142C208.27 10.767 208.344 10.4631 208.491 10.2301C208.639 9.99432 208.837 9.80966 209.084 9.67614C209.331 9.54261 209.604 9.44318 209.902 9.37784C210.203 9.30966 210.506 9.25568 210.81 9.21591C211.207 9.16477 211.53 9.12642 211.777 9.10085C212.027 9.07244 212.209 9.02557 212.322 8.96023C212.439 8.89489 212.497 8.78125 212.497 8.61932V8.58523C212.497 8.16477 212.382 7.83807 212.152 7.60511C211.925 7.37216 211.58 7.25568 211.116 7.25568C210.636 7.25568 210.26 7.3608 209.987 7.57102C209.714 7.78125 209.523 8.00568 209.412 8.24432L208.457 7.90341C208.628 7.50568 208.855 7.19602 209.139 6.97443C209.426 6.75 209.739 6.59375 210.077 6.50568C210.418 6.41477 210.753 6.36932 211.082 6.36932C211.293 6.36932 211.534 6.39489 211.807 6.44602C212.082 6.49432 212.348 6.59517 212.604 6.74858C212.862 6.90199 213.077 7.13352 213.247 7.44318C213.418 7.75284 213.503 8.16761 213.503 8.6875V13H212.497V12.1136H212.446C212.378 12.2557 212.264 12.4077 212.105 12.5696C211.946 12.7315 211.734 12.8693 211.47 12.983C211.206 13.0966 210.884 13.1534 210.503 13.1534ZM210.656 12.25C211.054 12.25 211.389 12.1719 211.662 12.0156C211.938 11.8594 212.145 11.6577 212.284 11.4105C212.426 11.1634 212.497 10.9034 212.497 10.6307V9.71023C212.455 9.76136 212.361 9.80824 212.216 9.85085C212.074 9.89062 211.909 9.92614 211.722 9.95739C211.537 9.9858 211.357 10.0114 211.18 10.0341C211.007 10.054 210.866 10.071 210.759 10.0852C210.497 10.1193 210.253 10.1747 210.026 10.2514C209.801 10.3253 209.619 10.4375 209.48 10.5881C209.344 10.7358 209.276 10.9375 209.276 11.1932C209.276 11.5426 209.405 11.8068 209.663 11.9858C209.925 12.1619 210.256 12.25 210.656 12.25ZM219.975 7.92045L219.071 8.17614C219.015 8.02557 218.931 7.87926 218.82 7.73722C218.712 7.59233 218.564 7.47301 218.377 7.37926C218.189 7.28551 217.949 7.23864 217.657 7.23864C217.256 7.23864 216.922 7.33097 216.655 7.51562C216.391 7.69744 216.259 7.92898 216.259 8.21023C216.259 8.46023 216.35 8.65767 216.532 8.80256C216.713 8.94744 216.998 9.06818 217.384 9.16477L218.355 9.40341C218.941 9.54545 219.377 9.76278 219.664 10.0554C219.951 10.3452 220.094 10.7187 220.094 11.1761C220.094 11.5511 219.986 11.8864 219.77 12.1818C219.557 12.4773 219.259 12.7102 218.875 12.8807C218.492 13.0511 218.046 13.1364 217.537 13.1364C216.87 13.1364 216.317 12.9915 215.88 12.7017C215.442 12.4119 215.165 11.9886 215.049 11.4318L216.003 11.1932C216.094 11.5455 216.266 11.8097 216.519 11.9858C216.775 12.1619 217.108 12.25 217.52 12.25C217.989 12.25 218.361 12.1506 218.637 11.9517C218.915 11.75 219.054 11.5085 219.054 11.2273C219.054 11 218.975 10.8097 218.816 10.6562C218.657 10.5 218.412 10.3835 218.083 10.3068L216.992 10.0511C216.392 9.90909 215.952 9.68892 215.671 9.39062C215.392 9.08949 215.253 8.71307 215.253 8.26136C215.253 7.89205 215.357 7.56534 215.564 7.28125C215.775 6.99716 216.06 6.77415 216.421 6.61222C216.784 6.45028 217.196 6.36932 217.657 6.36932C218.304 6.36932 218.813 6.51136 219.182 6.79545C219.554 7.07955 219.819 7.45455 219.975 7.92045ZM225.631 15.4545C225.46 15.4545 225.308 15.4403 225.175 15.4119C225.041 15.3864 224.949 15.3608 224.898 15.3352L225.153 14.4489C225.398 14.5114 225.614 14.5341 225.801 14.517C225.989 14.5 226.155 14.4162 226.3 14.2656C226.447 14.1179 226.582 13.8778 226.705 13.5455L226.892 13.0341L224.472 6.45455H225.562L227.369 11.6705H227.438L229.244 6.45455H230.335L227.557 13.9545C227.432 14.2926 227.277 14.5724 227.092 14.794C226.908 15.0185 226.693 15.1847 226.449 15.2926C226.207 15.4006 225.935 15.4545 225.631 15.4545ZM239.674 7.92045L238.771 8.17614C238.714 8.02557 238.63 7.87926 238.519 7.73722C238.411 7.59233 238.263 7.47301 238.076 7.37926C237.888 7.28551 237.648 7.23864 237.356 7.23864C236.955 7.23864 236.621 7.33097 236.354 7.51562C236.09 7.69744 235.958 7.92898 235.958 8.21023C235.958 8.46023 236.049 8.65767 236.231 8.80256C236.413 8.94744 236.697 9.06818 237.083 9.16477L238.055 9.40341C238.64 9.54545 239.076 9.76278 239.363 10.0554C239.65 10.3452 239.793 10.7187 239.793 11.1761C239.793 11.5511 239.685 11.8864 239.469 12.1818C239.256 12.4773 238.958 12.7102 238.575 12.8807C238.191 13.0511 237.745 13.1364 237.237 13.1364C236.569 13.1364 236.016 12.9915 235.579 12.7017C235.141 12.4119 234.864 11.9886 234.748 11.4318L235.702 11.1932C235.793 11.5455 235.965 11.8097 236.218 11.9858C236.474 12.1619 236.808 12.25 237.219 12.25C237.688 12.25 238.06 12.1506 238.336 11.9517C238.614 11.75 238.754 11.5085 238.754 11.2273C238.754 11 238.674 10.8097 238.515 10.6562C238.356 10.5 238.112 10.3835 237.782 10.3068L236.691 10.0511C236.092 9.90909 235.651 9.68892 235.37 9.39062C235.092 9.08949 234.952 8.71307 234.952 8.26136C234.952 7.89205 235.056 7.56534 235.263 7.28125C235.474 6.99716 235.759 6.77415 236.12 6.61222C236.484 6.45028 236.896 6.36932 237.356 6.36932C238.004 6.36932 238.512 6.51136 238.881 6.79545C239.254 7.07955 239.518 7.45455 239.674 7.92045ZM241.307 13V6.45455H242.313V13H241.307ZM241.819 5.36364C241.623 5.36364 241.453 5.29688 241.311 5.16335C241.172 5.02983 241.103 4.86932 241.103 4.68182C241.103 4.49432 241.172 4.33381 241.311 4.20028C241.453 4.06676 241.623 4 241.819 4C242.015 4 242.182 4.06676 242.321 4.20028C242.463 4.33381 242.534 4.49432 242.534 4.68182C242.534 4.86932 242.463 5.02983 242.321 5.16335C242.182 5.29688 242.015 5.36364 241.819 5.36364ZM245.161 9.0625V13H244.155V6.45455H245.126V7.47727H245.212C245.365 7.14489 245.598 6.87784 245.911 6.67614C246.223 6.47159 246.626 6.36932 247.121 6.36932C247.564 6.36932 247.952 6.46023 248.284 6.64205C248.616 6.82102 248.875 7.09375 249.06 7.46023C249.244 7.82386 249.337 8.28409 249.337 8.84091V13H248.331V8.90909C248.331 8.39489 248.197 7.99432 247.93 7.70739C247.663 7.41761 247.297 7.27273 246.831 7.27273C246.51 7.27273 246.223 7.34233 245.97 7.48153C245.72 7.62074 245.523 7.82386 245.378 8.09091C245.233 8.35795 245.161 8.68182 245.161 9.0625ZM256.475 13.1534C256.061 13.1534 255.684 13.0753 255.346 12.919C255.008 12.7599 254.74 12.5312 254.541 12.233C254.342 11.9318 254.243 11.5682 254.243 11.142C254.243 10.767 254.316 10.4631 254.464 10.2301C254.612 9.99432 254.809 9.80966 255.056 9.67614C255.304 9.54261 255.576 9.44318 255.875 9.37784C256.176 9.30966 256.478 9.25568 256.782 9.21591C257.18 9.16477 257.502 9.12642 257.75 9.10085C258 9.07244 258.181 9.02557 258.295 8.96023C258.412 8.89489 258.47 8.78125 258.47 8.61932V8.58523C258.47 8.16477 258.355 7.83807 258.125 7.60511C257.897 7.37216 257.552 7.25568 257.089 7.25568C256.609 7.25568 256.233 7.3608 255.96 7.57102C255.687 7.78125 255.495 8.00568 255.385 8.24432L254.43 7.90341C254.6 7.50568 254.828 7.19602 255.112 6.97443C255.399 6.75 255.711 6.59375 256.049 6.50568C256.39 6.41477 256.725 6.36932 257.055 6.36932C257.265 6.36932 257.507 6.39489 257.779 6.44602C258.055 6.49432 258.321 6.59517 258.576 6.74858C258.835 6.90199 259.049 7.13352 259.22 7.44318C259.39 7.75284 259.475 8.16761 259.475 8.6875V13H258.47V12.1136H258.419C258.35 12.2557 258.237 12.4077 258.078 12.5696C257.919 12.7315 257.707 12.8693 257.443 12.983C257.179 13.0966 256.856 13.1534 256.475 13.1534ZM256.629 12.25C257.027 12.25 257.362 12.1719 257.635 12.0156C257.91 11.8594 258.118 11.6577 258.257 11.4105C258.399 11.1634 258.47 10.9034 258.47 10.6307V9.71023C258.427 9.76136 258.333 9.80824 258.189 9.85085C258.047 9.89062 257.882 9.92614 257.694 9.95739C257.51 9.9858 257.329 10.0114 257.153 10.0341C256.98 10.054 256.839 10.071 256.731 10.0852C256.47 10.1193 256.225 10.1747 255.998 10.2514C255.774 10.3253 255.592 10.4375 255.453 10.5881C255.316 10.7358 255.248 10.9375 255.248 11.1932C255.248 11.5426 255.377 11.8068 255.636 11.9858C255.897 12.1619 256.228 12.25 256.629 12.25ZM263.97 13.1364C263.357 13.1364 262.828 12.9915 262.385 12.7017C261.942 12.4119 261.601 12.0128 261.362 11.5043C261.124 10.9957 261.004 10.4148 261.004 9.76136C261.004 9.09659 261.126 8.50994 261.371 8.00142C261.618 7.49006 261.962 7.09091 262.402 6.80398C262.845 6.5142 263.362 6.36932 263.953 6.36932C264.413 6.36932 264.828 6.45455 265.197 6.625C265.567 6.79545 265.869 7.03409 266.105 7.34091C266.341 7.64773 266.487 8.00568 266.544 8.41477H265.538C265.462 8.11648 265.291 7.85227 265.027 7.62216C264.766 7.3892 264.413 7.27273 263.97 7.27273C263.578 7.27273 263.234 7.375 262.939 7.57955C262.646 7.78125 262.418 8.06676 262.253 8.43608C262.091 8.80256 262.01 9.23295 262.01 9.72727C262.01 10.233 262.089 10.6733 262.249 11.0483C262.411 11.4233 262.638 11.7145 262.93 11.9219C263.226 12.1293 263.572 12.233 263.97 12.233C264.232 12.233 264.469 12.1875 264.682 12.0966C264.895 12.0057 265.075 11.875 265.223 11.7045C265.371 11.5341 265.476 11.3295 265.538 11.0909H266.544C266.487 11.4773 266.347 11.8253 266.122 12.1349C265.901 12.4418 265.607 12.6861 265.24 12.8679C264.876 13.0469 264.453 13.1364 263.97 13.1364ZM270.759 13.1364C270.128 13.1364 269.584 12.9972 269.126 12.7188C268.672 12.4375 268.321 12.0455 268.074 11.5426C267.83 11.0369 267.707 10.4489 267.707 9.77841C267.707 9.10795 267.83 8.51705 268.074 8.00568C268.321 7.49148 268.665 7.09091 269.105 6.80398C269.548 6.5142 270.065 6.36932 270.656 6.36932C270.997 6.36932 271.334 6.42614 271.666 6.53977C271.999 6.65341 272.301 6.83807 272.574 7.09375C272.847 7.34659 273.064 7.68182 273.226 8.09943C273.388 8.51705 273.469 9.03125 273.469 9.64205V10.0682H268.423V9.19886H272.446C272.446 8.82955 272.372 8.5 272.224 8.21023C272.08 7.92045 271.872 7.69176 271.602 7.52415C271.335 7.35653 271.02 7.27273 270.656 7.27273C270.256 7.27273 269.909 7.37216 269.616 7.57102C269.327 7.76705 269.104 8.02273 268.947 8.33807C268.791 8.65341 268.713 8.99148 268.713 9.35227V9.93182C268.713 10.4261 268.798 10.8452 268.969 11.1889C269.142 11.5298 269.382 11.7898 269.689 11.9688C269.996 12.1449 270.352 12.233 270.759 12.233C271.023 12.233 271.261 12.196 271.474 12.1222C271.69 12.0455 271.876 11.9318 272.033 11.7812C272.189 11.6278 272.31 11.4375 272.395 11.2102L273.366 11.483C273.264 11.8125 273.092 12.1023 272.851 12.3523C272.609 12.5994 272.311 12.7926 271.956 12.9318C271.601 13.0682 271.202 13.1364 270.759 13.1364ZM276.004 9.0625V13H274.999V6.45455H275.97V7.47727H276.055C276.209 7.14489 276.442 6.87784 276.754 6.67614C277.067 6.47159 277.47 6.36932 277.964 6.36932C278.408 6.36932 278.795 6.46023 279.128 6.64205C279.46 6.82102 279.719 7.09375 279.903 7.46023C280.088 7.82386 280.18 8.28409 280.18 8.84091V13H279.175V8.90909C279.175 8.39489 279.041 7.99432 278.774 7.70739C278.507 7.41761 278.141 7.27273 277.675 7.27273C277.354 7.27273 277.067 7.34233 276.814 7.48153C276.564 7.62074 276.366 7.82386 276.222 8.09091C276.077 8.35795 276.004 8.68182 276.004 9.0625ZM284.865 6.45455V7.30682H281.473V6.45455H284.865ZM282.461 4.88636H283.467V11.125C283.467 11.4091 283.508 11.6222 283.591 11.7642C283.676 11.9034 283.784 11.9972 283.914 12.0455C284.048 12.0909 284.189 12.1136 284.336 12.1136C284.447 12.1136 284.538 12.108 284.609 12.0966C284.68 12.0824 284.737 12.071 284.779 12.0625L284.984 12.9659C284.916 12.9915 284.821 13.017 284.699 13.0426C284.576 13.071 284.422 13.0852 284.234 13.0852C283.95 13.0852 283.672 13.0241 283.399 12.902C283.129 12.7798 282.904 12.5938 282.725 12.3438C282.549 12.0938 282.461 11.7784 282.461 11.3977V4.88636ZM288.966 13.1364C288.375 13.1364 287.857 12.9957 287.411 12.7145C286.968 12.4332 286.621 12.0398 286.371 11.5341C286.124 11.0284 286 10.4375 286 9.76136C286 9.07955 286.124 8.48437 286.371 7.97585C286.621 7.46733 286.968 7.07244 287.411 6.79119C287.857 6.50994 288.375 6.36932 288.966 6.36932C289.557 6.36932 290.074 6.50994 290.517 6.79119C290.963 7.07244 291.31 7.46733 291.557 7.97585C291.807 8.48437 291.932 9.07955 291.932 9.76136C291.932 10.4375 291.807 11.0284 291.557 11.5341C291.31 12.0398 290.963 12.4332 290.517 12.7145C290.074 12.9957 289.557 13.1364 288.966 13.1364ZM288.966 12.233C289.415 12.233 289.784 12.1179 290.074 11.8878C290.364 11.6577 290.578 11.3551 290.718 10.9801C290.857 10.6051 290.926 10.1989 290.926 9.76136C290.926 9.32386 290.857 8.91619 290.718 8.53835C290.578 8.16051 290.364 7.85511 290.074 7.62216C289.784 7.3892 289.415 7.27273 288.966 7.27273C288.517 7.27273 288.148 7.3892 287.858 7.62216C287.569 7.85511 287.354 8.16051 287.215 8.53835C287.076 8.91619 287.006 9.32386 287.006 9.76136C287.006 10.1989 287.076 10.6051 287.215 10.9801C287.354 11.3551 287.569 11.6577 287.858 11.8878C288.148 12.1179 288.517 12.233 288.966 12.233ZM298.104 7.92045L297.2 8.17614C297.143 8.02557 297.06 7.87926 296.949 7.73722C296.841 7.59233 296.693 7.47301 296.506 7.37926C296.318 7.28551 296.078 7.23864 295.786 7.23864C295.385 7.23864 295.051 7.33097 294.784 7.51562C294.52 7.69744 294.388 7.92898 294.388 8.21023C294.388 8.46023 294.479 8.65767 294.661 8.80256C294.842 8.94744 295.126 9.06818 295.513 9.16477L296.484 9.40341C297.07 9.54545 297.506 9.76278 297.793 10.0554C298.08 10.3452 298.223 10.7187 298.223 11.1761C298.223 11.5511 298.115 11.8864 297.899 12.1818C297.686 12.4773 297.388 12.7102 297.004 12.8807C296.621 13.0511 296.175 13.1364 295.666 13.1364C294.999 13.1364 294.446 12.9915 294.009 12.7017C293.571 12.4119 293.294 11.9886 293.178 11.4318L294.132 11.1932C294.223 11.5455 294.395 11.8097 294.648 11.9858C294.903 12.1619 295.237 12.25 295.649 12.25C296.118 12.25 296.49 12.1506 296.766 11.9517C297.044 11.75 297.183 11.5085 297.183 11.2273C297.183 11 297.104 10.8097 296.945 10.6562C296.786 10.5 296.541 10.3835 296.212 10.3068L295.121 10.0511C294.521 9.90909 294.081 9.68892 293.8 9.39062C293.521 9.08949 293.382 8.71307 293.382 8.26136C293.382 7.89205 293.486 7.56534 293.693 7.28125C293.903 6.99716 294.189 6.77415 294.55 6.61222C294.913 6.45028 295.325 6.36932 295.786 6.36932C296.433 6.36932 296.942 6.51136 297.311 6.79545C297.683 7.07955 297.947 7.45455 298.104 7.92045Z" fill="#495057"/>
<defs>
<clipPath id="clip0_20_31">
<rect width="16" height="16" fill="white" transform="translate(0 1)"/>
</clipPath>
</defs>
</svg>
